<?xml version="1.0" encoding="UTF-8" standalone="no"?>
<svg width="13px" height="11px" viewBox="0 0 13 11" version="1.1" xmlns="http://www.w3.org/2000/svg" xmlns:xlink="http://www.w3.org/1999/xlink" xmlns:sketch="http://www.bohemiancoding.com/sketch/ns">
    <!-- Generator: Sketch 3.2.2 (9983) - http://www.bohemiancoding.com/sketch -->
    <title>Icon</title>
    <desc>Created with Sketch.</desc>
    <defs></defs>
    <g id="Page-1" stroke="none" stroke-width="1" fill="none" fill-rule="evenodd" sketch:type="MSPage">
        <g id="Artboard" sketch:type="MSArtboardGroup" transform="translate(-975.000000, -782.000000)" fill="#C3C9CE">
            <g id="Footer" sketch:type="MSLayerGroup" transform="translate(557.000000, 683.000000)">
                <g id="Text-Field" transform="translate(407.000000, 91.000000)" sketch:type="MSShapeGroup">
                    <path d="M23.887,18.795 C23.027,18.096 22.468,17.056 22.411,15.876 L22.396,15.876 C22.796,15.146 23.026,14.326 23.026,13.456 C23.026,10.442 20.334,8 17.013,8 C13.692,8 11,10.442 11,13.456 C11,16.469 13.692,18.912 17.013,18.912 C18.334,18.912 19.552,18.521 20.544,17.865 C21.377,18.468 22.393,18.834 23.5,18.834 C23.633,18.834 23.757,18.805 23.887,18.795" id="Icon" transform="translate(17.500000, 14.000000) scale(-1, 1) translate(-17.500000, -14.000000) "></path>
                </g>
            </g>
        </g>
    </g>
</svg>