<?xml version="1.0" encoding="UTF-8" standalone="no"?>
<svg width="11px" height="10px" viewBox="0 0 11 10" version="1.1" xmlns="http://www.w3.org/2000/svg" xmlns:xlink="http://www.w3.org/1999/xlink" xmlns:sketch="http://www.bohemiancoding.com/sketch/ns">
    <!-- Generator: Sketch 3.2.2 (9983) - http://www.bohemiancoding.com/sketch -->
    <title>Icon</title>
    <desc>Created with Sketch.</desc>
    <defs></defs>
    <g id="Page-1" stroke="none" stroke-width="1" fill="none" fill-rule="evenodd" sketch:type="MSPage">
        <g id="Artboard" sketch:type="MSArtboardGroup" transform="translate(-1248.000000, -783.000000)" fill="#FFFFFF">
            <g id="Footer" sketch:type="MSLayerGroup" transform="translate(557.000000, 683.000000)">
                <g id="Text-Field" transform="translate(407.000000, 91.000000)" sketch:type="MSShapeGroup">
                    <g id="Submit" transform="translate(269.000000, 3.000000)">
                        <path d="M24.8565092,6 C25.0138092,6 25.1700092,6.0781 25.3273092,6.1573 C25.5627092,6.3927 25.5627092,6.7854 25.3273092,7.0208 L18.7394092,15.1927 L18.6613092,15.2719 C18.4259092,15.5073 18.1124092,15.6646 17.8770092,15.6646 C17.6416092,15.6646 17.4062092,15.5865 17.1708092,15.4292 L16.9365092,15.1927 L15.1325092,12.05 C14.8971092,11.6573 14.9752092,11.1073 15.3679092,10.8719 C15.5241092,10.7927 15.6814092,10.7146 15.8376092,10.7146 C16.0730092,10.7146 16.2303092,10.7927 16.3865092,10.95 L17.8770092,12.6792 L24.3868092,6.1573 C24.5430092,6 24.7003092,6 24.8565092,6" id="Icon"></path>
                    </g>
                </g>
            </g>
        </g>
    </g>
</svg>