<?xml version="1.0" encoding="UTF-8" standalone="no"?>
<svg width="20px" height="21px" viewBox="0 0 20 21" version="1.1" xmlns="http://www.w3.org/2000/svg" xmlns:xlink="http://www.w3.org/1999/xlink" xmlns:sketch="http://www.bohemiancoding.com/sketch/ns">
    <title>Untitled</title>
    <description>Created with Sketch (http://www.bohemiancoding.com/sketch)</description>
    <defs></defs>
    <g id="Page-1" stroke="none" stroke-width="1" fill="none" fill-rule="evenodd" sketch:type="MSPage">
        <path d="M19.2450506,7.03673013 C19.7315571,8.21330115 20,9.5029499 20,10.8552969 C20,16.3781447 15.5228478,20.8552969 10,20.8552969 C4.47715223,20.8552969 0,16.3781447 0,10.8552969 C0,5.33244913 4.47715223,0.855296897 10,0.855296897 C11.4933238,0.855296897 12.9101959,1.1826253 14.1827817,1.7694475 L12.7851065,3.35343459 C11.9177852,3.03131134 10.9794478,2.8552969 10,2.8552969 C5.58172178,2.8552969 2,6.43701868 2,10.8552969 C2,15.2735751 5.58172178,18.8552969 10,18.8552969 C14.4182782,18.8552969 18,15.2735751 18,10.8552969 C18,10.4878756 17.9752307,10.1262394 17.9272707,9.7719672 L19.2450506,7.03673013 Z" id="Oval-32" fill-opacity="0.7000517" fill="#37990F" sketch:type="MSShapeGroup"></path>
        <path d="M9.78688323,10.5889808 C9.78688323,10.5889808 17.4084306,1.52167827 18.4883899,1.10333948 C19.5683493,0.685000618 20.4794828,1.59770888 19.7199369,2.74555499 C18.960391,3.8934011 11.2400075,15.152408 10.6184877,15.7178074 C9.99696794,16.2832069 9.34694656,15.8812335 8.92838606,15.5336974 C8.50982556,15.1861614 5.34924587,10.0782461 5.09273101,9.57035264 C4.83621615,9.06245922 5.15835373,8.07417498 5.49393766,7.84221914 C5.82952158,7.6102633 6.61366155,7.65880554 7.10554487,8.07940279 C7.59742816,8.50000007 9.78688323,10.5889808 9.78688323,10.5889808 Z" id="Path-10" fill-opacity="0.7000517" fill="#37990F" sketch:type="MSShapeGroup"></path>
        <path d="M19.2450506,6.03673013 C19.7315571,7.21330115 20,8.5029499 20,9.8552969 C20,15.3781447 15.5228478,19.8552969 10,19.8552969 C4.47715223,19.8552969 0,15.3781447 0,9.8552969 C0,4.33244913 4.47715223,-0.144703103 10,-0.144703103 C11.4933238,-0.144703103 12.9101959,0.182625299 14.1827817,0.769447503 L12.7851065,2.35343459 C11.9177852,2.03131134 10.9794478,1.8552969 10,1.8552969 C5.58172178,1.8552969 2,5.43701868 2,9.8552969 C2,14.2735751 5.58172178,17.8552969 10,17.8552969 C14.4182782,17.8552969 18,14.2735751 18,9.8552969 C18,9.48787557 17.9752307,9.12623943 17.9272707,8.7719672 L19.2450506,6.03673013 Z" id="Oval-32-copy" fill="#FFFFFF" sketch:type="MSShapeGroup"></path>
        <path d="M9.78688323,9.58898085 C9.78688323,9.58898085 17.4084306,0.521678268 18.4883899,0.103339479 C19.5683493,-0.314999382 20.4794828,0.597708876 19.7199369,1.74555499 C18.960391,2.8934011 11.2400075,14.152408 10.6184877,14.7178074 C9.99696794,15.2832069 9.34694656,14.8812335 8.92838606,14.5336974 C8.50982556,14.1861614 5.34924587,9.07824606 5.09273101,8.57035264 C4.83621615,8.06245922 5.15835373,7.07417498 5.49393766,6.84221914 C5.82952158,6.6102633 6.61366155,6.65880554 7.10554487,7.07940279 C7.59742816,7.50000007 9.78688323,9.58898085 9.78688323,9.58898085 Z" id="Path-10-copy" fill="#FFFFFF" sketch:type="MSShapeGroup"></path>
    </g>
</svg>