<svg width="32" height="41" xmlns="http://www.w3.org/2000/svg"><defs><linearGradient x1="50%" y1="0%" x2="50%" y2="100%" id="a"><stop stop-color="#FFF" offset="0%"/><stop stop-color="#FFF" stop-opacity=".85" offset="100%"/></linearGradient></defs><g fill="none" fill-rule="evenodd"><path d="M15 25l-3.792231 3.792231c-.396307.396307-1.02389.391648-1.413846.001692l-.087846-.087846c-.387966-.387966-.388325-1.023829.003642-1.415796L16 21l6.290281 6.290281c.390754.390754.393598 1.02584.003642 1.415796l-.087846.087846c-.387966.387966-1.022956.389198-1.413846-.001692L17 25v16h-2V25zm5 16h9.998257C31.110738 41 32 40.106685 32 39.004725V15.5C32 11 22 1 17.5 1H2.499295C1.120622 1 0 2.120264 0 3.502179v35.500529C0 40.10846.896211 41 2.001743 41H12v-2H2.996535C2.446164 39 2 38.544827 2 37.999581V4.501042C2 3.672039 2.663518 3 3.49383 3H18c3.5 0 3 9 3 9s9-.5 9 3v22.993964C30 38.549582 29.560187 39 29.003465 39H20v2z" fill-opacity=".14747509" fill="#054A80"/><path d="M177 836l-3.792231 3.792231c-.396307.396307-1.02389.391648-1.413846.001692l-.087846-.087846c-.387966-.387966-.388325-1.023829.003642-1.415796L178 832l6.290281 6.290281c.390754.390754.393598 1.02584.003642 1.415796l-.087846.087846c-.387966.387966-1.022956.389198-1.413846-.001692L179 836v16h-2v-16zm5 16h9.998257C193.110738 852 194 851.106685 194 850.004725V826.5c0-4.5-10-14.5-14.5-14.5h-15.000705C163.120622 812 162 813.120264 162 814.502179v35.500529C162 851.10846 162.896211 852 164.001743 852H174v-2h-9.003465c-.550371 0-.996535-.455173-.996535-1.000419v-33.498539c0-.829003.663518-1.501042 1.49383-1.501042H180c3.5 0 3 9 3 9s9-.5 9 3v22.993964c0 .555618-.439813 1.006036-.996535 1.006036H182v2z" fill="url(#a)" transform="translate(-162 -812)"/></g></svg>