<svg width="40" height="41" xmlns="http://www.w3.org/2000/svg"><defs><linearGradient x1="50%" y1="0%" x2="50%" y2="100%" id="a"><stop stop-color="#FFF" offset="0%"/><stop stop-color="#FFF" stop-opacity=".85" offset="100%"/></linearGradient></defs><g fill="none" fill-rule="evenodd"><path d="M26.252035 5H3.00742C1.345539 5 0 6.346468 0 8.00742v29.98516C0 39.654461 1.346468 41 3.00742 41h29.98516C34.654461 41 36 39.653532 36 37.99258V14.747965C35.36076 14.912494 34.690599 15 34 15v23.007214c0 .5483-.452362.992786-.992786.992786H2.992786C2.444486 39 2 38.547638 2 38.007214V9.001743C2 7.896211 2.889262 7 4.001743 7H26c0-.690599.087506-1.36076.252035-2zM34 13c3.313708 0 6-2.686292 6-6s-2.686292-6-6-6-6 2.686292-6 6 2.686292 6 6 6zm-16.866949 6.500963c0-.554913.466212-.878612 1.274313-.878612 1.491878 0 3.030377.570327 4.087124 1.094412l.606076-3.668593C22.261382 15.647399 20.536398 15 18.174258 15c-1.678363 0-3.076999.431599-4.071584 1.248555-1.041207.847784-1.585121 2.080925-1.585121 3.560694 0 2.697495 1.662823 3.83815 4.351312 4.809248 1.740524.61657 2.315519 1.04817 2.315519 1.726397 0 .647399-.559455 1.032755-1.585121 1.032755-1.258772 0-3.341185-.61657-4.6932-1.402697l-.606075 3.699422C13.465518 30.321773 15.610092 31 17.84791 31c1.771605 0 3.263483-.416185 4.258068-1.202312 1.118909-.878613 1.693904-2.157996 1.693904-3.822736.01554-2.759152-1.678363-3.899807-4.413473-4.870906-1.460797-.539499-2.253358-.955684-2.253358-1.603083z" fill-opacity=".14747509" fill="#054A80"/><path d="M186.252035 734H163.00742C161.345539 734 160 735.346468 160 737.00742v29.98516c0 1.661881 1.346468 3.00742 3.00742 3.00742h29.98516c1.661881 0 3.00742-1.346468 3.00742-3.00742v-23.244615c-.63924.164529-1.309401.252035-2 .252035v23.007214c0 .5483-.452362.992786-.992786.992786h-30.014428c-.5483 0-.992786-.452362-.992786-.992786v-29.005471c0-1.105532.889262-2.001743 2.001743-2.001743H186c0-.690599.087506-1.36076.252035-2zM194 742c3.313708 0 6-2.686292 6-6s-2.686292-6-6-6-6 2.686292-6 6 2.686292 6 6 6zm-16.866949 6.500963c0-.554913.466212-.878612 1.274313-.878612 1.491878 0 3.030377.570327 4.087124 1.094412l.606076-3.668593c-.839182-.400771-2.564166-1.04817-4.926306-1.04817-1.678363 0-3.076999.431599-4.071584 1.248555-1.041207.847784-1.585121 2.080925-1.585121 3.560694 0 2.697495 1.662823 3.83815 4.351312 4.809248 1.740524.61657 2.315519 1.04817 2.315519 1.726397 0 .647399-.559455 1.032755-1.585121 1.032755-1.258772 0-3.341185-.61657-4.6932-1.402697l-.606075 3.699422c1.16553.647399 3.310104 1.325626 5.547922 1.325626 1.771605 0 3.263483-.416185 4.258068-1.202312 1.118909-.878613 1.693904-2.157996 1.693904-3.822736.01554-2.759152-1.678363-3.899807-4.413473-4.870906-1.460797-.539499-2.253358-.955684-2.253358-1.603083z" fill="url(#a)" transform="translate(-160 -730)"/></g></svg>