<svg width="40" height="31" xmlns="http://www.w3.org/2000/svg"><defs><linearGradient x1="50%" y1="0%" x2="50%" y2="100%" id="a"><stop stop-color="#FFF" offset="0%"/><stop stop-color="#FFF" stop-opacity=".85" offset="100%"/></linearGradient></defs><g fill="none" fill-rule="evenodd"><path d="M34.964386 4c-.243124-1.699365-1.70157-3-3.464408-3H3.500022C1.571872 1 0 2.568108 0 4.502466v17.995068c0 1.768344 1.303851 3.22488 3 3.467083v-2.465988c-.607185-.45705-1-1.182574-1-1.99007V5.491441C2 4.115456 3.121621 3 4.497515 3h26.00497c.816012 0 1.540621.395153 1.996381 1h2.46552z" fill-opacity=".14894701" fill="#054A80"/><path d="M5 8.990752C5 7.339005 6.350596 6 7.999211 6h29.001578C38.657208 6 40 7.344109 40 8.990752v19.018496C40 29.660995 38.649404 31 37.000789 31H7.999211C6.342792 31 5 29.655891 5 28.009248V8.990752zm2 .007994C7 8.447154 7.438226 8 7.996315 8h29.00737C37.553935 8 38 8.438615 38 8.998746v19.002508C38 28.552846 37.561774 29 37.003685 29H7.996315C7.446065 29 7 28.561385 7 28.001254V8.998746zM7 11h31v5H7v-5zm26 14h3v2h-3v-2zm-4 0h3v2h-3v-2z" opacity=".9" fill-opacity=".14894701" fill="#054A80"/><path d="M194.964386 659c-.243124-1.699365-1.70157-3-3.464408-3h-27.999956C161.571872 656 160 657.568108 160 659.502466v17.995068c0 1.768344 1.303851 3.22488 3 3.467083v-2.465988c-.607185-.45705-1-1.182574-1-1.99007v-16.017118C162 659.115456 163.121621 658 164.497515 658h26.00497c.816012 0 1.540621.395153 1.996381 1h2.46552z" fill="url(#a)" transform="translate(-160 -656)"/><path d="M165 663.990752C165 662.339005 166.350596 661 167.999211 661h29.001578C198.657208 661 200 662.344109 200 663.990752v19.018496C200 684.660995 198.649404 686 197.000789 686h-29.001578C166.342792 686 165 684.655891 165 683.009248v-19.018496zm2 .007994c0-.551592.438226-.998746.996315-.998746h29.00737c.55025 0 .996315.438615.996315.998746v19.002508c0 .551592-.438226.998746-.996315.998746h-29.00737c-.55025 0-.996315-.438615-.996315-.998746v-19.002508zM167 666h31v5h-31v-5zm26 14h3v2h-3v-2zm-4 0h3v2h-3v-2z" opacity=".9" fill="url(#a)" transform="translate(-160 -656)"/></g></svg>