<svg width="15" height="13" xmlns="http://www.w3.org/2000/svg"><defs><filter x="-50%" y="-50%" width="200%" height="200%" filterUnits="objectBoundingBox" id="a"><feOffset dy="4" in="SourceAlpha" result="shadowOffsetOuter1"/><feGaussianBlur stdDeviation="9" in="shadowOffsetOuter1" result="shadowBlurOuter1"/><feColorMatrix values="0 0 0 0 0.588235294 0 0 0 0 0.658823529 0 0 0 0 0.694117647 0 0 0 0.127524909 0" in="shadowBlurOuter1" result="shadowMatrixOuter1"/><feOffset in="SourceAlpha" result="shadowOffsetOuter2"/><feGaussianBlur stdDeviation=".5" in="shadowOffsetOuter2" result="shadowBlurOuter2"/><feColorMatrix values="0 0 0 0 0.588235294 0 0 0 0 0.658823529 0 0 0 0 0.694117647 0 0 0 0.208783401 0" in="shadowBlurOuter2" result="shadowMatrixOuter2"/><feMerge><feMergeNode in="shadowMatrixOuter1"/><feMergeNode in="shadowMatrixOuter2"/><feMergeNode in="SourceGraphic"/></feMerge></filter></defs><g fill="none" fill-rule="evenodd"><path fill="#F5F7F9" d="M-718-372H562V628H-718z"/><path fill="#FFF" filter="url(#a)" d="M693 345h243v170H693z" transform="translate(-718 -372)"/><path d="M0 10.5l14.02-1.87c.54-.07.75.26.46.73l-.46.78c-.3.47-.97.86-1.5.86H0v-.5zm12.3 1.1c.38-.06.53.16.3.5l-.6.9H2l10.3-1.4zm-7.5-4c-.9.78-1.88 1.2-2.9 1.27C.87 8.94.26 8.63.06 7.94c-.2-.7.03-1.68.7-2.95.66-1.3 1.48-2.35 2.44-3.13C4.2 1.07 5.17.67 6.17.6 7.5.5 8.1 1.1 8.03 2.37l-2.6.9c.1-.24.13-.44.1-.57-.05-.13-.16-.2-.34-.18-.64.04-1.37.87-2.22 2.5-.36.7-.55 1.2-.57 1.5-.02.3.12.46.42.44.12 0 .25-.05.37-.1.12-.07.24-.15.36-.26.12-.1.24-.23.35-.37.12-.15.22-.3.3-.5l-.83.07.88-1.7 3.16-.2-.16.33C6.44 5.78 5.64 6.9 4.8 7.6zm2.48.07c-.37-.7-.16-1.77.6-3.25C8.6 3 9.56 1.9 10.72 1.1c.87-.6 1.7-.93 2.5-.98.96-.07 1.54.26 1.72.97.18.7-.05 1.7-.7 2.98C13.6 5.3 12.78 6.3 11.8 7.1c-.96.8-1.9 1.24-2.85 1.3-.82.06-1.38-.2-1.67-.73zm2.9-3.52c-.42.72-.66 1.27-.74 1.67-.07.4.03.6.3.6s.6-.2.97-.6c.4-.38.78-.93 1.18-1.62.88-1.54 1.04-2.3.5-2.3-.3 0-.63.2-1.02.6-.38.37-.77.92-1.2 1.65z" fill="#57DDEE"/></g></svg>