<svg width="13" height="13" xmlns="http://www.w3.org/2000/svg"><defs><filter x="-50%" y="-50%" width="200%" height="200%" filterUnits="objectBoundingBox" id="a"><feOffset dy="4" in="SourceAlpha" result="shadowOffsetOuter1"/><feGaussianBlur stdDeviation="9" in="shadowOffsetOuter1" result="shadowBlurOuter1"/><feColorMatrix values="0 0 0 0 0.588235294 0 0 0 0 0.658823529 0 0 0 0 0.694117647 0 0 0 0.127524909 0" in="shadowBlurOuter1" result="shadowMatrixOuter1"/><feOffset in="SourceAlpha" result="shadowOffsetOuter2"/><feGaussianBlur stdDeviation=".5" in="shadowOffsetOuter2" result="shadowBlurOuter2"/><feColorMatrix values="0 0 0 0 0.588235294 0 0 0 0 0.658823529 0 0 0 0 0.694117647 0 0 0 0.208783401 0" in="shadowBlurOuter2" result="shadowMatrixOuter2"/><feMerge><feMergeNode in="shadowMatrixOuter1"/><feMergeNode in="shadowMatrixOuter2"/><feMergeNode in="SourceGraphic"/></feMerge></filter></defs><g fill="none" fill-rule="evenodd"><path fill="#F5F7F9" d="M-425-152H855V848H-425z"/><path fill="#FFF" filter="url(#a)" d="M400 125h243v170H400z" transform="translate(-425 -152)"/><path d="M0 1c0-.55.45-1 1-1h11c.55 0 1 .45 1 1v11c0 .55-.45 1-1 1H1c-.55 0-1-.45-1-1V1zm7.07 9.2v.26l-.03.1v.06l-.02.1-.02.06v.07l-.04.08-.02.06-.03.06-.02.07-.04.07-.04.08-.05.06-.05.07-.05.07-.05.05-.05.06-.06.05-.08.05-.06.04-.07.04-.08.04-.07.04-.07.04-.08.02-.1.03-.06.02-.08.02-.07.02h-.1l-.07.02h-.08l-.08.02h-.1l-.08.02h-.5l-.08-.02h-.07l-.1-.02h-.1l-.1-.02-.05-.02-.02-.08v-.08l-.02-.08v-.1l-.03-.07-.02-.08v-.17l-.02-.08v-.1l-.03-.07V11L4 10.92v-.08l-.02-.1.07.03.08.02h.08l.08.02h.08l.07.02h.48l.08-.02.1-.02.07-.03.07-.03.07-.04.07-.04.05-.05.04-.04.04-.07.03-.07.02-.08.03-.1.02-.08V6.07H7.08V10.22zm5.28 0v.2l-.02.1v.08l-.02.08-.02.1v.07l-.04.07-.03.08-.02.06-.05.08-.04.08-.06.06-.04.07-.05.06-.06.06-.07.06-.06.05-.06.05-.06.04-.06.05-.07.04-.05.05-.07.02-.07.03-.07.03-.07.03-.07.03-.1.03h-.07l-.07.03h-.08l-.08.02h-.07l-.08.02h-.08l-.08.02H9.7l-.07-.02h-.08L9.47 12H9.3l-.07-.03-.07-.03h-.1L9 11.93l-.08-.02h-.08l-.08-.04h-.08l-.07-.04-.07-.02-.08-.03-.07-.03-.08-.03-.07-.03-.07-.02-.08-.03-.07-.03.03-.08v-.08l.02-.08.02-.1v-.08l.02-.08v-.08l.02-.08.02-.08v-.08l.03-.1v-.08l.03-.08v-.08l.02-.08.08.03.07.05.07.03.08.04.07.03.06.03.08.03.07.04.1.02.06.04.08.02.07.03.1.02.08.03.08.02.08.02.08.02.1.02h.07l.07.02h.08l.08.02H10.38l.1-.02.07-.02.07-.03.1-.02.05-.04.07-.06.05-.06.04-.06.04-.07.02-.08v-.26l-.04-.06-.04-.07-.05-.07-.07-.06-.06-.03-.05-.04-.07-.04-.07-.04-.07-.04-.06-.02-.07-.03-.07-.03-.08-.03-.1-.04-.08-.03-.1-.03-.07-.03-.08-.04-.08-.02-.08-.03-.07-.04-.08-.02-.08-.02-.06-.04-.07-.03-.05-.03-.06-.04L9 9.2l-.07-.05-.08-.05-.06-.04L8.7 9l-.04-.04-.07-.05-.06-.04-.06-.06-.05-.07-.06-.06-.04-.07-.04-.07-.05-.07-.03-.08-.02-.06-.03-.08v-.07l-.03-.08V8l-.02-.07V7.5l.02-.08.02-.07v-.07l.04-.08.02-.07.03-.07.03-.06.04-.08.04-.06.04-.07.05-.07.05-.06.05-.06.06-.04.06-.06.07-.05.06-.05.05-.04.08-.05L9 6.3l.07-.04.08-.04.08-.03.08-.03.1-.03h.07l.08-.03h.08l.08-.03.1-.02h.25l.1-.02H10.6l.1.02h.16l.08.03H11l.1.02.07.02h.07l.08.02.07.02.06.02.08.03h.08l.07.04.07.03.07.02.07.03.08.03.07.03v.07l-.03.1v.07l-.02.08-.02.08-.02.08v.1l-.02.08-.02.08v.08l-.03.08-.03.08v.08l-.02.1-.02.07-.07-.04-.08-.05-.07-.04-.06-.03-.08-.03-.07-.03-.08-.03-.08-.03-.07-.02-.07-.03-.08-.03-.1-.03h-.06l-.08-.04h-.1l-.07-.02-.06-.02h-.59l-.07.03H9.8l-.06.04-.06.04-.07.05-.04.06-.03.06-.02.08V7.7l.02.06.02.06.03.05.05.06.08.06.05.03.07.04.08.04.1.05.06.04.07.02.08.03.1.03.08.04.1.03.1.03.08.03.08.05.1.03.07.03.08.05.08.03.07.03.07.04.07.04.07.03.07.05.1.04.06.03.07.04.06.05.05.04.06.05.06.06.06.04.06.07.06.06.05.07.03.07.05.08.04.07.03.07.02.06.02.07v.08l.02.08v.08l.02.08v.18z" fill="#FAD932"/></g></svg>