<svg width="13" height="13" xmlns="http://www.w3.org/2000/svg"><defs><filter x="-50%" y="-50%" width="200%" height="200%" filterUnits="objectBoundingBox" id="a"><feOffset dy="4" in="SourceAlpha" result="shadowOffsetOuter1"/><feGaussianBlur stdDeviation="9" in="shadowOffsetOuter1" result="shadowBlurOuter1"/><feColorMatrix values="0 0 0 0 0.588235294 0 0 0 0 0.658823529 0 0 0 0 0.694117647 0 0 0 0.127524909 0" in="shadowBlurOuter1" result="shadowMatrixOuter1"/><feOffset in="SourceAlpha" result="shadowOffsetOuter2"/><feGaussianBlur stdDeviation=".5" in="shadowOffsetOuter2" result="shadowBlurOuter2"/><feColorMatrix values="0 0 0 0 0.588235294 0 0 0 0 0.658823529 0 0 0 0 0.694117647 0 0 0 0.208783401 0" in="shadowBlurOuter2" result="shadowMatrixOuter2"/><feMerge><feMergeNode in="shadowMatrixOuter1"/><feMergeNode in="shadowMatrixOuter2"/><feMergeNode in="SourceGraphic"/></feMerge></filter></defs><g fill="none" fill-rule="evenodd"><path fill="#F5F7F9" d="M-425-372H855V628H-425z"/><path fill="#FFF" filter="url(#a)" d="M400 345h243v170H400z" transform="translate(-425 -372)"/><path d="M4.47.1C3.23.3 3 .75 3 1.6v.9h3V3H2C1.15 3 .44 3.6.2 4.58c-.26 1.1-.27 1.8 0 2.95C.4 8.4.9 9 1.77 9H3V7.78c0-.96.84-1.8 1.83-1.8h2.7C8.35 5.98 9 5.3 9 4.5V1.63C9 .83 8.33.25 7.53.13 7.03.02 6.5 0 6 0S4.9.02 4.48.1zM4 1h1v1H4V1zm4.53 11.9c1.24-.2 1.47-.66 1.47-1.5v-.9H7V10h4c.85 0 1.56-.6 1.8-1.58.26-1.1.27-1.8 0-2.95C12.6 4.6 12.1 4 11.23 4H10v1.22c0 .96-.84 1.8-1.83 1.8h-2.7C4.65 7.02 4 7.7 4 8.5v2.87c0 .8.67 1.38 1.47 1.5.5.1 1.02.13 1.52.13s1.1-.02 1.53-.1zM9 12H8v-1h1v1z" fill="#4CA6FF"/></g></svg>