<svg width="9" height="15" xmlns="http://www.w3.org/2000/svg"><defs><filter x="-50%" y="-50%" width="200%" height="200%" filterUnits="objectBoundingBox" id="a"><feOffset dy="4" in="SourceAlpha" result="shadowOffsetOuter1"/><feGaussianBlur stdDeviation="9" in="shadowOffsetOuter1" result="shadowBlurOuter1"/><feColorMatrix values="0 0 0 0 0.588235294 0 0 0 0 0.658823529 0 0 0 0 0.694117647 0 0 0 0.127524909 0" in="shadowBlurOuter1" result="shadowMatrixOuter1"/><feOffset in="SourceAlpha" result="shadowOffsetOuter2"/><feGaussianBlur stdDeviation=".5" in="shadowOffsetOuter2" result="shadowBlurOuter2"/><feColorMatrix values="0 0 0 0 0.588235294 0 0 0 0 0.658823529 0 0 0 0 0.694117647 0 0 0 0.208783401 0" in="shadowBlurOuter2" result="shadowMatrixOuter2"/><feMerge><feMergeNode in="shadowMatrixOuter1"/><feMergeNode in="shadowMatrixOuter2"/><feMergeNode in="SourceGraphic"/></feMerge></filter></defs><g fill="none" fill-rule="evenodd"><path fill="#F5F7F9" d="M-718-151H562V849H-718z"/><path fill="#FFF" filter="url(#a)" d="M693 125h243v170H693z" transform="translate(-718 -151)"/><path d="M0 4c0-2 9-2 9-4v2.9c0 2-9 2-9 4V4zm0 4c0-2 9-2 9-4v3c0 2-9 2-9 4V8zm0 4.1c0-2 9-2 9-4V11c0 2-9 2-9 4v-2.9z" fill="#F92400"/></g></svg>