<svg width="15" height="14" xmlns="http://www.w3.org/2000/svg"><defs><filter x="-50%" y="-50%" width="200%" height="200%" filterUnits="objectBoundingBox" id="a"><feOffset dy="4" in="SourceAlpha" result="shadowOffsetOuter1"/><feGaussianBlur stdDeviation="9" in="shadowOffsetOuter1" result="shadowBlurOuter1"/><feColorMatrix values="0 0 0 0 0.588235294 0 0 0 0 0.658823529 0 0 0 0 0.694117647 0 0 0 0.127524909 0" in="shadowBlurOuter1" result="shadowMatrixOuter1"/><feOffset in="SourceAlpha" result="shadowOffsetOuter2"/><feGaussianBlur stdDeviation=".5" in="shadowOffsetOuter2" result="shadowBlurOuter2"/><feColorMatrix values="0 0 0 0 0.588235294 0 0 0 0 0.658823529 0 0 0 0 0.694117647 0 0 0 0.208783401 0" in="shadowBlurOuter2" result="shadowMatrixOuter2"/><feMerge><feMergeNode in="shadowMatrixOuter1"/><feMergeNode in="shadowMatrixOuter2"/><feMergeNode in="SourceGraphic"/></feMerge></filter></defs><g fill="none" fill-rule="evenodd"><path fill="#F5F7F9" d="M-1011-151H269V849h-1280z"/><path fill="#FFF" filter="url(#a)" d="M986 125h244v170H986z" transform="translate(-1011 -151)"/><path d="M9.23 0c6.38 4.2 4.43 9.5 4.43 9.5s.7.78 1.03 1.77c.33 1 .33 2.2.27 2.23-.07.03-.87-1.37-2.28-1.37-1.42 0-2.13 1.37-4.63 1.37C2.44 13.5 0 8.8 0 8.8s2.48 1.8 5.07 1.74c2.6-.07 3.3-.83 3.3-.83s-1.15-.98-3.15-2.97C3.22 4.75 1.35 2 1.35 2s3 2.44 3.97 3.15c.97.72 1.93 1.36 1.93 1.36s-.93-1-1.6-1.84C5 3.83 3.33 1.34 3.33 1.34S5.9 3.72 7.08 4.66C8.25 5.6 10.5 7.2 10.5 7.2S11.86 4.04 9.23 0z" fill="#FF9A26"/></g></svg>