<?xml version="1.0" encoding="UTF-8" standalone="no"?>
<svg width="14px" height="14px" viewBox="0 0 14 14" version="1.1" xmlns="http://www.w3.org/2000/svg" xmlns:xlink="http://www.w3.org/1999/xlink" xmlns:sketch="http://www.bohemiancoding.com/sketch/ns">
    <!-- Generator: Sketch 3.2.2 (9983) - http://www.bohemiancoding.com/sketch -->
    <title>docs-arrow</title>
    <desc>Created with Sketch.</desc>
    <defs></defs>
    <g id="Page-1" stroke="none" stroke-width="1" fill="none" fill-rule="evenodd" sketch:type="MSPage">
        <path d="M6,10.0295681 L6,13.5295681 C6.5,14.0295677 12.5,8.0295682 13.5,7.5295682 C12.5,7.0295682 6.5,1.02956808 6,1.52956808 L6,5.02956808 L1.00292933,5.02956808 C0.437881351,5.02956808 0,5.47719714 0,6.02937557 L0,9.02976059 C0,9.58585143 0.449026756,10.0295681 1.00292933,10.0295681 L6,10.0295681 Z" id="docs-arrow-2" fill="#001F26" sketch:type="MSShapeGroup"></path>
        <path d="M6,9.02956808 L6,12.5295681 C6.5,13.0295677 12.5,7.0295682 13.5,6.5295682 C12.5,6.0295682 6.5,0.0295680792 6,0.529568079 L6,4.02956808 L1.00292933,4.02956808 C0.437881351,4.02956808 0,4.47719714 0,5.02937557 L0,8.02976059 C0,8.58585143 0.449026756,9.02956808 1.00292933,9.02956808 L6,9.02956808 Z" id="docs-arrow-3" fill="#FFFFFF" sketch:type="MSShapeGroup"></path>
    </g>
</svg>