<svg width="14" height="16" viewBox="0 0 14 16" xmlns="http://www.w3.org/2000/svg"><title>reports</title><defs><filter x="-50%" y="-50%" width="200%" height="200%" filterUnits="objectBoundingBox" id="a"><feOffset dy="1" in="SourceAlpha" result="shadowOffsetOuter1"/><feGaussianBlur in="shadowOffsetOuter1" result="shadowBlurOuter1"/><feColorMatrix values="0 0 0 0 1 0 0 0 0 0.999941409 0 0 0 0 1 0 0 0 0.7 0" in="shadowBlurOuter1" result="shadowMatrixOuter1"/><feMerge><feMergeNode in="shadowMatrixOuter1"/><feMergeNode in="SourceGraphic"/></feMerge></filter></defs><g fill="none"><g><path d="M885 714.99406c0-1.101289.897206-1.99406 1.99815-1.99406H894c1.5 0 5 3.5 5 5v8.993907C899 728.101842 898.10294 729 896.994141 729h-9.988282C885.898054 729 885 728.105486 885 727.00594v-12.01188z" fill="#2BB4B0" filter="url(#a)" transform="translate(-885 -713)"/><path d="M8 1h1c1 0 4 3 4 4v1c-.5-1.5-4-1-4-1s.5-3.5-1-4z" fill="#fff"/><path d="M4 10h6v1H4v-1zm0-2h6v1H4V8zm0 4h6v1H4v-1z" fill="#fff"/></g></g></svg>