<svg width="40" height="40" xmlns="http://www.w3.org/2000/svg"><g fill="none" fill-rule="evenodd"><circle stroke="#FFB3A3" stroke-width="2" fill="#FFFBFA" cx="20" cy="20" r="19"/><path d="M28.86 14.3C29.62 15.57 30 17 30 18.52c0 1.25-.18 2.38-.54 3.4-.36 1-.9 1.78-1.6 2.36-.7.56-1.53.85-2.48.85-.83 0-1.48-.22-1.96-.67-.48-.45-.8-.97-.94-1.56-.28.65-.68 1.17-1.2 1.57-.53.4-1.18.6-1.97.6-1.25 0-2.23-.45-2.9-1.33-.68-.88-1.02-2.05-1.02-3.5 0-1.8.44-3.22 1.33-4.24.9-1.02 2.13-1.53 3.68-1.53 1.26 0 2.5.38 3.62 1v5.4c.05.88.15 1.5.35 1.86.2.35.5.53.94.53.65 0 1.16-.38 1.5-1.12.37-.75.8-1.96.8-3.68 0-1.98-.84-3.55-2.02-4.7-1.18-1.13-2.93-1.7-5.23-1.7-1.6 0-2.96.34-4.12 1.02-1.16.68-2.04 1.62-2.66 2.82-.6 1.2-1.07 2.58-1.07 4.12 0 1.58.45 2.95 1.05 4.13.6 1.16 1.48 2.07 2.63 2.72 1.16.64 2.56.96 4.2.96 1.4 0 2.84-.25 4.3-.76l.7 2c-1.6.58-3.3.88-5.03.88-2.06 0-3.88-.4-5.44-1.22-1.55-.82-2.76-1.98-3.62-3.48-.85-1.5-1.28-3.24-1.28-5.24 0-1.9.44-3.62 1.32-5.15.87-1.52 2.1-2.72 3.68-3.6 1.58-.86 3.36-1.3 5.35-1.3 2 0 3.74.4 5.2 1.17 1.44.78 2.55 1.82 3.3 3.12zM21.6 21.8V16.6c-.4-.17-.83-.26-1.27-.26-.77 0-1.35.32-1.75.94-.4.63-.6 1.62-.6 2.98 0 1.02.14 1.78.42 2.26.27.5.7.73 1.27.73.87 0 1.5-.48 1.92-1.43z" fill="#FFB3A3"/></g></svg>