<svg width="40" height="40" xmlns="http://www.w3.org/2000/svg"><g fill="none" fill-rule="evenodd"><circle stroke="#F4B7D3" stroke-width="2" fill="#FFFCFD" cx="20" cy="20" r="19"/><path d="M34.32 32.5l-.2-.2c-.67-.6-6.87-2.66-8.07-3.3-1.2-.66-.8-1.08-1.86-1.6 0-.28-.2-1.16 0-1.56.17-.4.76-1.83.84-2.25.08-.43.12-.38.43-.26.3.13 1.04-2.3 1.04-2.58 0-.27.77-2.22-.4-1.77 1.8-8.5-5.6-8.68-6.15-8.68-.55 0-3.73.17.58-.32-4.53 0-4.66 1.06-4.66 1.48-4.08 1.9-1.74 7.34-1.62 7.6-.7-.53-1.08.7-.82 1.17.25.48.24 1.05.7 2.32.46 1.27.9.55.9.87 0 .3.5 1.67.97 2.34 0 .6.08 1.25-.13 1.94-.53.14-.9.57-1.8 1.4-.92.82-5.78 1.95-7.67 3.05l-.64.4c2.17 2.46 4.97 4.35 8.14 5.43h12.2c3.2-1.1 6.03-3 8.22-5.5z" fill="#F4B7D3"/></g></svg>