<svg width="40" height="40" xmlns="http://www.w3.org/2000/svg"><g fill="none" fill-rule="evenodd"><circle stroke="#74E4D7" stroke-width="2" fill="#F7FEFD" cx="20" cy="20" r="19"/><path d="M5.52 7.7l.2-.14 1.03-.77 1.75-1-2.32 1.97-.2.57.36.86.82-.98.9-1.1.93-.57.52.48.78-.48.16.9.53.4-1.23.77-1.8.58.6.73-1.13.45-1.18 1.14-.82.53-.36.94-1.02 1.17-.86.65-1.1.65-.57 2.33.12.53.7-.9-.17 1.35.4.6.25 1.23.5.42.9-1.06 1.66.57 1 .6.62.9 1.1.2.45 1.1-.53.9 1.27-.1 1.03.35 1.26.54 1.42 1.22-.74 1.22-.16 1.8-.4 1.46-1.56.5.04.93-.44.94-.78-.1.3.82-.8.08.7 1.63-1.18-.85-1.42-1.96-.78-2.4-1.02-2.12-1.6-2.25L3 24.53l.2-1.8.16-1.14-1-1.03-.26-1.1-1.06-.7c.27-4.2 1.9-8.05 4.48-11.07zm28.06-1l-1.63-.52h-1.23l-.6-.53 1.05.08-.8-.5L29 4.72l-1.2-.2-1.07.37-.5.37-1 .3.15.52 1.02.08.4.77-.68-.23-.13.6-.74.34-.94.5-1.38.2.8.53-.07.94-.94-.04-.94.32-.1 1.55 1.03.2 1.22-.4.45-.82.74-.6 1.3-.25.65.7.77.4.33.85.48-.65-1.22-1.06.04-.5 1.35 1 .94 1.5.03-.74 1.14-.5.4-.96 1.35.08s.4.65.4.8c0 .18.62.95.62.95l-1.4-.5-1.45.22.88 1.06 1.23.16.05 1.55-.86.07-1.1-.33-1.52-.57-.24.86-1.1-.65-1.1-.66-.1-.77-.6-.04-1.26-.2-1.67.62-1.05-.3-.98.87-.2.92-1.03.45-1.34 1.92.33 1.66-.45 1.3.73 1.03.7 1 .86 1.06 1.96-.08.9-.36 1.14-.37 1.67.94v1.82l1.22 1.96-.16 1.18-.66 1.63.7 1.17v1.2l.44.76.04 1.14 1.63-.4 1.6-1.23.3-.8.83-.95-.08-.5.53-.65 1.22-1.23-.37-1.67.45-1.55 1.47-2.52.74-1.6-.98.37-.57-.53-.42-1.06-.82-1.26-.24-1.14-.7-1.1v-.78l1.15 1.4 1.46 3.53 1.2-.64.64-.9.08-1.05-.73-.57-.78-.4-.12-.7-.08-.65.9.9.73.7.73.2.45 1.18.38 3.92c.05-.55.07-1.1.07-1.68 0-5.17-2.07-9.86-5.42-13.3zM14.9 5.74l1.02-.98h1.2l1-.77h1.72l.5-.9 1.66-.7-3-.88-3.5.5L12 3.08l2.33.5.04.64-.77.94.53.57h.77z" fill="#80E8DC"/></g></svg>