<?xml version="1.0" encoding="UTF-8" standalone="no"?>
<svg width="147px" height="50px" viewBox="0 0 147 50" version="1.1" xmlns="http://www.w3.org/2000/svg" xmlns:xlink="http://www.w3.org/1999/xlink" xmlns:sketch="http://www.bohemiancoding.com/sketch/ns">
    <!-- Generator: Sketch 3.2.2 (9983) - http://www.bohemiancoding.com/sketch -->
    <title>Logo</title>
    <desc>Created with Sketch.</desc>
    <defs></defs>
    <g id="Page-1" stroke="none" stroke-width="1" fill="none" fill-rule="evenodd" sketch:type="MSPage">
        <g id="Artboard" sketch:type="MSArtboardGroup" transform="translate(-521.000000, -511.000000)" fill="#FFFFFF">
            <g id="Alipay" sketch:type="MSLayerGroup" transform="translate(461.000000, 439.000000)">
                <path d="M179.363255,72 L179.363255,76.1413545 L189.506662,76.1413545 C191.180926,76.1413545 193.126653,75.9704489 194.13743,76.6680546 C194.210982,76.7690443 194.284534,76.8692572 194.358087,76.96947 C194.529456,77.1201777 194.700826,77.2708854 194.872195,77.4215932 L194.872195,77.5723009 L194.945748,77.5723009 C194.995035,77.7222317 195.043565,77.8729394 195.092852,78.0236471 L195.166405,78.0236471 C195.19067,78.1743548 195.215693,78.3250625 195.239957,78.4757702 L195.31351,78.4757702 L195.31351,78.9271165 L195.387062,78.9271165 C195.505353,79.3567112 195.321851,80.5157622 195.239957,80.810186 L195.239957,81.4875938 L195.166405,81.4875938 L195.166405,82.0904246 L195.092852,82.0904246 L195.092852,82.6924786 L195.0193,82.6924786 L195.0193,83.2945326 L194.945748,83.2945326 L194.945748,83.8220095 L194.872195,83.8220095 C194.786511,84.1203176 194.897218,84.5304911 194.72509,84.7254789 C194.537039,84.894054 193.203238,84.8008328 192.814245,84.8008328 L187.301606,84.8008328 C187.305397,84.3013222 187.411556,83.8367696 187.522263,83.4452403 C187.546528,83.0941069 187.571551,82.7429734 187.595816,82.3910632 L187.669368,82.3910632 L187.669368,81.7136554 L187.742921,81.7136554 L187.742921,80.8855398 L187.816473,80.8855398 L187.816473,79.680655 L187.742921,79.680655 C187.717898,79.5796653 187.693633,79.4794525 187.669368,79.3792396 C187.497999,79.2533909 187.325871,79.1283191 187.154501,79.0024704 L186.787498,79.0024704 C186.384855,78.8789522 185.691794,78.9271165 185.170103,78.9271165 L180.907097,78.9271165 L169.661163,78.9271165 L163.928625,78.9271165 C163.745124,78.9838261 163.548731,79.1073443 163.340206,79.1531781 C163.265896,79.2945636 163.099834,79.4631388 163.045997,79.6053012 L163.045997,79.9059397 L162.972444,79.9059397 C162.958037,80.0115905 163.024765,79.8771965 163.045997,79.9812936 L163.045997,81.1861784 L163.045997,84.7254789 C162.506107,84.9274583 161.314861,84.8008328 160.621042,84.8008328 L155.255509,84.8008328 L155.255509,79.4545935 C155.255509,78.5192735 155.181956,77.5287976 155.54896,76.96947 C156.254911,75.8958719 158.155141,76.1413545 159.885518,76.1413545 L171.35211,76.1413545 L171.35211,72.9788232 C171.407464,72.790827 171.526512,72.5896245 171.572767,72.3759924 C171.744136,72.2509206 171.915506,72.1250719 172.086875,72 L174.439036,72 L179.363255,72 Z M132.175979,88.2647795 C134.221797,88.4551062 136.187239,90.8003977 137.247303,92.4441993 C138.667547,94.6457747 136.243351,96.6438171 134.527381,98.0537887 C133.947303,98.5315476 133.264858,99.3130525 132.433792,99.2967388 C131.372211,99.275764 130.252243,98.0506813 129.603162,97.3763808 C128.442247,96.1691655 126.544292,94.6224694 127.360951,92.9336109 C127.821222,91.9835309 128.700818,90.9309075 129.676714,90.0344297 C129.953484,89.7796249 132.175979,88.3409102 132.175979,88.2647795 C132.445166,88.2896385 132.175979,88.2896385 132.175979,88.2647795 Z M189.1389,100.162143 C191.076285,100.19477 193.796207,103.524323 193.034902,105.057036 C192.31606,106.504296 190.292231,108.903967 188.551239,108.144213 C187.486625,107.680438 185.411992,105.678511 185.317208,104.454982 C185.24593,103.534422 186.323435,102.37304 187.007397,101.743797 C187.134786,101.62727 189.1389,100.136507 189.1389,100.162143 C189.720494,100.172242 189.1389,100.187779 189.1389,100.162143 Z M200.017072,109.424452 C197.530697,109.826857 195.032191,110.284418 192.698229,110.553983 C188.144046,111.079906 183.363899,112.123984 179.572538,112.060283 L179.572538,100.802262 C179.572538,100.263909 179.36553,99.5966005 179.467897,99.0706773 C179.62865,98.2464459 179.178995,98.3520967 179.838692,98.0141696 C180.374032,97.7399438 181.710107,97.8238429 182.322033,97.8238429 L187.816473,97.8238429 C188.975113,97.8238429 192.420701,98.4515327 192.887797,97.6754657 C192.937085,97.5931203 193.029594,95.539922 192.887797,95.3985364 C192.62316,95.1344095 190.759327,95.4933114 190.352135,95.4933114 L184.857695,95.4933114 C184.105489,95.4933114 179.865231,96.0254494 179.363255,95.4933114 C178.83019,94.9285459 179.363255,91.2059102 179.363255,90.3389525 C179.363255,88.8124544 179.659739,89.2785607 180.988232,89.2785607 L183.425319,89.2785607 L188.705926,89.2785607 C190.361993,89.2785607 192.354732,89.4082936 193.986533,89.1107624 C194.901768,88.943741 194.573436,89.2000994 194.798643,88.3486786 C194.860821,88.1148486 194.837315,87.5003651 194.798643,87.2595435 C194.616658,86.1276821 194.802434,86.1711853 193.536878,86.1711853 L188.068219,86.1711853 L166.192068,86.1711853 L160.723409,86.1711853 C160.026557,86.1711853 155.691515,85.6957569 155.255509,86.2014822 C155.111437,86.3677268 155.150109,88.5638643 155.255509,88.784488 C155.530761,89.3647903 156.592342,89.2785607 157.372604,89.2785607 L162.879935,89.2785607 L168.386507,89.2785607 C168.711806,89.2785607 171.026811,88.8660566 171.291448,89.1480509 C171.534095,89.4067399 171.231544,91.0513183 171.231544,91.445955 L171.231544,94.2798813 C171.231544,95.5531284 171.331636,95.4933114 170.094136,95.4933114 L164.641401,95.4933114 L159.189424,95.4933114 C158.724604,95.4933114 157.914011,95.2874478 157.512126,95.4933114 C156.834231,95.8413374 157.298294,95.4070817 157.092802,96.171496 C157.03214,96.3967808 156.951763,97.8743377 157.092802,98.0141696 C157.401419,98.3217998 159.553395,97.8238429 160.028073,97.8238429 L162.544779,97.8238429 L167.996755,97.8238429 C168.706498,97.8238429 170.311002,97.6956637 170.932785,98.0141696 C171.586416,98.3489893 171.131453,98.1477868 171.291448,98.9642496 C171.367275,99.3487873 171.231544,99.9485108 171.231544,100.341594 L171.231544,105.898358 L171.231544,111.455899 C171.231544,113.049205 170.983589,112.739245 169.601259,112.813045 C169.348755,112.826251 168.755028,112.868978 168.381958,112.888399 C163.759531,113.132328 159.14317,113.398008 154.339516,113.330423 C153.143721,113.314109 150.573936,113.81362 149.530554,113.269829 C148.915595,112.948992 149.241652,111.598838 149.241652,110.711682 L149.241652,108.158196 L149.241652,97.0936097 L149.241652,91.5609279 C149.241652,89.8316735 148.85645,87.7303109 149.161275,86.028246 C149.331128,85.0812734 148.942135,85.3733667 149.831588,85.177602 C150.146271,85.1084629 150.554221,85.177602 150.877245,85.177602 C151.391354,85.177602 152.548477,85.4083247 152.998891,85.177602 C153.427314,84.9577552 153.494801,83.8157948 153.349212,83.0878921 C153.158886,82.1339279 152.941262,82.3910632 151.925177,82.3910632 C151.320834,82.3910632 150.048454,82.6598512 149.517663,82.3910632 C148.943651,82.1005236 149.241652,81.1364604 149.241652,80.3207744 L149.241652,74.9364697 C149.241652,74.4221991 149.259851,73.7828566 149.161275,73.2794618 C149.005071,72.4847506 149.349327,72.7776207 148.712378,72.4513463 C148.194478,72.1856657 146.831105,72.4513463 146.238894,72.4513463 C145.238734,72.4513463 142.571132,71.9394062 141.851532,72.9034694 C141.202451,73.7735345 141.658931,76.7193263 141.658931,77.7766108 L141.658931,80.7130805 C141.658931,80.9950748 141.815893,81.7237543 141.694569,81.9715675 C141.375337,82.6272237 141.655139,82.1805385 140.869569,82.3390147 C139.190755,82.6777186 137.120672,82.2869661 135.404702,82.2869661 L129.921636,82.2869661 L126.968924,82.2869661 C126.354724,82.2869661 124.97846,82.0663425 124.43857,82.3390147 C123.875174,82.6241163 124.016971,82.6233395 124.016971,83.4102823 C124.016971,83.7249041 123.951001,84.1607135 124.016971,84.4675668 C124.183032,85.2397495 123.78494,84.9468794 124.43857,85.2793686 C124.689558,85.406771 125.419016,85.3943415 125.704126,85.3943415 L136.670258,85.3943415 L139.622212,85.3943415 C140.010447,85.3943415 140.507874,85.2078989 140.887768,85.2855833 C141.691536,85.4510511 141.365479,84.9896058 141.694569,85.6646831 C141.99712,86.2846045 141.658931,87.8880102 141.658931,88.6407719 L141.658931,91.2393145 L141.658931,102.497335 L141.658931,108.125569 C141.658931,109.09507 142.072189,112.509299 141.401118,112.888399 C141.186527,113.009586 139.769316,112.727592 139.43416,112.700402 C138.605369,112.632817 137.874394,112.597082 137.017547,112.511629 C135.106701,112.322856 132.660515,112.057176 130.47745,111.684291 C128.946498,111.422494 127.416305,111.238382 125.880046,110.96338 C125.030781,110.811895 123.929011,110.787036 123.115385,110.469307 C122.388202,110.185759 122.809802,110.56952 122.513317,109.902211 C122.39351,109.631092 122.702127,108.926495 122.702127,108.624303 L122.702127,86.4726007 C122.702127,84.0705996 122.02044,81.2467722 123.176047,79.3038858 C123.524094,78.7181455 123.713662,78.1176452 124.037444,77.4215932 C124.799508,75.7816758 125.122532,74.6063111 125.607826,72.4513463 C123.590064,72.4513463 121.519222,72.3449187 119.505252,72.4295946 C117.738477,72.5033948 117.631561,73.2126532 117.229677,74.8230505 C116.85509,76.3254665 116.379654,77.5645324 115.901184,78.6264779 C114.537811,81.6468468 113.096335,84.1692587 110.936776,86.909187 C110.422668,87.5609589 107.593554,89.7477743 107.554124,90.5238413 C107.500287,91.5819026 108.716555,90.8874043 109.17076,90.7499029 C109.88202,90.5339403 110.560673,90.2068891 111.301505,89.9217874 C111.971818,89.6638752 112.596634,89.3601293 113.137282,89.0556065 C113.771198,88.6982583 114.361133,87.968802 115.119405,87.8126563 L115.119405,108.67169 C112.844589,108.107702 110.978481,107.47069 109.277677,106.939328 C108.447369,106.680639 107.311477,106.336498 106.46752,106.073924 C105.550011,105.787269 104.803113,105.565092 103.592911,105.095101 C102.375884,104.622003 101.308995,103.95081 100.041164,103.852151 C100.444565,102.613085 101.36814,101.466464 101.812488,100.463558 C102.174942,99.6463185 102.717864,98.708668 103.175861,97.7702407 C104.38303,95.295993 105.612189,91.6090922 106.009524,89.2785607 L98.2812142,89.2785607 C97.1529052,89.2785607 95.7038471,89.3733356 94.6210345,89.1107624 C93.6466548,88.873825 94.0455059,89.2047605 93.8081668,88.217392 C93.6625785,87.6130075 93.8081668,86.7678014 93.8081668,86.1509874 C93.8081668,85.5644703 93.4639112,82.7647251 93.8081668,82.3980548 C94.1395317,82.0430371 97.1627627,82.2869661 97.6116599,82.2869661 L104.796288,82.2869661 C105.673609,82.2869661 107.812695,82.774824 108.599782,82.37708 C109.200333,82.0733341 109.022897,81.8169756 109.022897,81.0284791 C109.022897,80.7728975 109.166211,79.9882852 109.022897,79.7956279 C108.762052,79.446825 105.816923,79.9564346 105.219404,79.9564346 L101.415153,79.9564346 L97.6116599,79.9564346 C96.9815357,79.9564346 94.2494811,80.2485279 93.8475969,79.8181564 C93.4464709,79.3885618 93.8877853,76.6999052 93.8877853,76.0660007 L93.8877853,72.4513463 C91.6129689,72.4513463 89.6444944,72.2602427 87.6001927,72.4513463 C85.5740895,72.6408962 85.9630831,73.8791852 85.9630831,75.7272967 C85.9630831,76.6059071 86.2262035,78.2023212 85.9532256,79.0281062 C86.2102798,79.8414617 85.9206199,79.9564346 85.1039608,79.9564346 L84.2645535,79.9564346 L77.5485371,79.9564346 L71.6719279,79.9564346 C70.1083708,79.9564346 69.9931134,79.5874338 69.9931134,81.2118142 C69.9931134,82.5876047 69.8179525,82.1176142 70.8325207,82.4454423 C71.7341062,82.7375355 73.2385182,82.2869661 74.190908,82.2869661 L77.5485371,82.2869661 L83.4251462,82.2869661 L85.1039608,82.2869661 C85.926686,82.2869661 86.2064885,82.3599894 85.943368,83.1865513 C86.0950225,83.8414306 85.943368,84.9849448 85.943368,85.6592452 C85.943368,86.1610863 86.2542596,88.7627364 85.943368,89.0882339 C85.6347513,89.411401 83.1620258,89.2785607 82.6699072,89.2785607 L76.9419194,89.2785607 C76.4846812,89.2785607 73.9323372,88.8031322 73.6684585,89.1107624 C73.5888399,89.20243 73.625237,90.9107096 73.6684585,91.0373351 C73.4478013,91.7714525 73.7230541,91.6090922 74.4949751,91.6090922 L76.1472501,91.6090922 L79.4518002,91.6090922 L85.2359001,91.6090922 L97.6298584,91.6090922 C97.5100514,92.385936 97.0505385,93.381073 96.8215403,94.1159672 C96.2733095,95.8755185 95.6325695,97.1883846 94.9470915,98.7956745 C94.7537321,99.2493513 94.4056852,99.8514053 94.1016181,100.382766 C94.0265491,100.515607 94.0075923,100.806923 93.8817192,100.912574 C93.184867,101.497537 92.8436446,101.073381 92.1172199,100.838774 C91.6599818,100.691174 91.2512731,100.579308 90.7204826,100.387428 C88.7626239,99.6804997 85.9888644,98.7513944 83.9589698,98.2798502 C78.5062348,97.0120411 73.1194695,96.6469245 67.9351628,98.5059118 C66.0099098,99.196526 64.2651256,100.112425 62.6067844,101.969858 C60.0150102,104.872147 59.4933189,108.523313 60.438126,111.758868 C61.1759248,114.286718 63.4044867,116.579961 65.5837608,118.008576 C69.1089681,120.32124 74.9954347,120.83085 79.0339922,119.967 C82.5682987,119.211131 85.3822466,117.882728 88.6996873,115.900222 C89.5337867,115.401488 90.2670358,114.779237 91.0882446,114.093283 C92.1020544,113.245747 93.2470454,112.251387 94.2949775,111.194102 C94.705961,110.780044 95.1616825,110.256452 95.4983554,109.876575 C96.2824088,108.990196 96.24677,109.110607 97.3356488,109.57516 C98.8969311,110.240915 100.372529,110.867051 101.892864,111.60816 C103.737741,112.507745 105.388499,113.113683 107.896863,114.06221 C112.50185,115.803117 116.246956,116.89769 120.889098,117.98061 C133.780483,120.986996 145.303945,122 158.231727,122 C171.615988,122 183.70588,121.047589 196.374332,119.518761 C198.579388,119.252303 199.020702,118.943119 200.679043,117.331169 C201.739108,116.301074 202.583065,115.08609 203.47176,113.942576 C204.074586,113.168062 204.696369,112.247502 205.236259,111.457452 C205.7625,110.6876 206.897633,109.416683 207,108.294921 C204.702435,108.383481 202.294163,109.056228 200.017072,109.424452 Z M88.4054777,108.539627 C87.2187818,109.818312 85.9145537,110.911331 84.6937355,111.834222 C83.2856241,112.898498 81.4202747,113.958113 79.9158627,114.545407 C75.6771214,116.19853 69.8619323,116.65143 65.9879199,114.093283 C64.363701,113.021239 62.7531309,111.335488 62.5370233,109.00884 C62.3201575,106.675202 63.4295097,104.370306 65.1424464,103.174743 C66.5407003,102.198251 68.0208475,101.61018 70.0302687,101.21632 C74.4980082,100.340817 79.3638406,101.18913 83.8854174,102.98597 C84.915151,103.395367 86.1268699,103.997421 87.1194481,104.454982 C88.06653,104.891568 89.2357857,105.809021 90.4270312,106.035859 C90.2162316,106.849991 88.9893472,107.91116 88.4054777,108.539627 L88.4054777,108.539627 Z" id="Logo" sketch:type="MSShapeGroup"></path>
            </g>
        </g>
    </g>
</svg>