<?xml version="1.0" encoding="UTF-8" standalone="no"?>
<svg width="80px" height="94px" viewBox="0 0 80 94" version="1.1" xmlns="http://www.w3.org/2000/svg" xmlns:xlink="http://www.w3.org/1999/xlink" xmlns:sketch="http://www.bohemiancoding.com/sketch/ns">
    <!-- Generator: Sketch 3.3.2 (12043) - http://www.bohemiancoding.com/sketch -->
    <title>Logo</title>
    <desc>Created with Sketch.</desc>
    <defs></defs>
    <g id="Page-1" stroke="none" stroke-width="1" fill="none" fill-rule="evenodd" sketch:type="MSPage">
        <g id="Artboard" sketch:type="MSArtboardGroup" transform="translate(-528.000000, -486.000000)" fill="#FFFFFF">
            <g id="Alipay" sketch:type="MSLayerGroup" transform="translate(461.000000, 439.000000)">
                <path d="M110.782325,52.4119826 C108.879971,51.5068417 106.74949,51 104.5,51 C102.241057,51 100.102125,51.5111106 98.1937037,52.423415 L98.1937037,52.423415 L95.3492545,47.4966845 C95.0772576,47.025572 94.4630067,46.8570887 93.984714,47.1332311 C93.5030868,47.4112987 93.3418814,48.0198124 93.6172037,48.4966845 L96.4526851,53.4078824 C92.9121975,55.7439189 90.4569471,59.5773714 90,64 L119,64 C118.542101,59.5681541 116.07756,55.7279427 112.525164,53.3932962 L115.352224,48.4966845 C115.627547,48.0198124 115.466341,47.4112987 114.984714,47.1332311 C114.506421,46.8570887 113.89217,47.025572 113.620174,47.4966845 L110.782325,52.4119826 Z M94.984714,90 L93.9865926,90 C91.7764161,90 89.984714,88.2020617 89.984714,85.9971835 L89.984714,65 L118.984714,65 L118.984714,85.9971835 C118.984714,88.207878 117.192519,90 114.982836,90 L113.984714,90 L113.984714,97.0012144 C113.984714,98.6573979 112.638197,100 110.984714,100 C109.32786,100 107.984714,98.6577357 107.984714,97.0012144 L107.984714,90 L100.984714,90 L100.984714,97.0012144 C100.984714,98.6573979 99.6381969,100 97.984714,100 C96.3278598,100 94.984714,98.6577357 94.984714,97.0012144 L94.984714,90 Z M134.580618,127.584875 L142.776373,108.057855 L147,108.057855 L135.3794,134.830367 C133.804935,138.608822 130.856103,140.597333 127.132724,140.597333 L125.808143,140.597333 L125.808143,136.843638 L127.182509,136.843638 C128.857024,136.843638 130.606218,135.948904 131.531079,133.885634 L132.355411,132.021405 L121.984714,108.082616 L126.332805,108.082616 L134.505638,127.584875 L134.580618,127.584875 L134.580618,127.584875 Z M133.62641,129.858351 L133.605314,129.908613 L133.62641,129.908613 L133.62641,129.858351 L133.62641,129.858351 Z M119.984714,132.940901 L119.984714,108.082616 L116.2086,108.082616 L116.2086,110.916339 C114.093397,108.828308 111.173298,107.585489 107.850028,107.585489 C100.649368,107.585489 94.984714,113.352931 94.984714,120.486997 C94.984714,127.646302 100.649368,133.438505 107.850028,133.438505 C111.173298,133.438505 114.093397,132.170448 116.2086,130.107178 L116.2086,132.940901 L119.984714,132.940901 Z M108.098815,129.809092 C103.062719,129.809092 98.984714,125.632554 98.984714,120.486997 C98.984714,115.366202 103.062719,111.19014 108.098815,111.19014 C111.243198,111.19014 114.215822,112.681523 115.739074,115.24192 C115.812484,115.390963 115.984714,115.639527 115.984714,116.062371 L115.984714,124.886862 C115.959774,125.334468 115.812484,125.607793 115.714133,125.732075 C114.068532,128.218189 111.243198,129.809092 108.098815,129.809092 Z M71.7334645,140.398767 L71.7334645,130.107178 C73.8325924,132.19521 76.7316389,133.463266 80.0304053,133.463266 C87.1526003,133.463266 92.8003794,127.671063 92.8003794,120.536996 C92.8003794,113.377692 87.1526003,107.585489 80.0304053,107.585489 C76.7316389,107.585489 73.8325924,108.853545 71.7334645,110.916339 L71.7334645,108.082616 L67.984714,108.082616 L67.984714,140.398767 L71.7334645,140.398767 Z M80.0063986,129.833853 C76.8076819,129.833853 73.8339572,128.317233 72.2345988,125.782073 C72.1345492,125.632554 71.984714,125.38399 71.984714,124.961622 L71.984714,116.03761 C72.0096068,115.614766 72.1594419,115.341441 72.2594916,115.217159 C73.9340068,112.731045 76.8076819,111.214901 80.0063986,111.214901 C85.1046226,111.214901 89.253093,115.390963 89.253093,120.536996 C89.253093,125.657791 85.1046226,129.833853 80.0063986,129.833853 Z M119.984714,68.0001221 C119.984714,66.3432004 121.331231,65 122.984714,65 C124.641568,65 125.984714,66.3360431 125.984714,68.0001221 L125.984714,80.9998779 C125.984714,82.6567996 124.638197,84 122.984714,84 C121.32786,84 119.984714,82.6639569 119.984714,80.9998779 L119.984714,68.0001221 Z M82.984714,68.0001221 C82.984714,66.3432004 84.3312312,65 85.984714,65 C87.6415683,65 88.984714,66.3360431 88.984714,68.0001221 L88.984714,80.9998779 C88.984714,82.6567996 87.6381969,84 85.984714,84 C84.3278598,84 82.984714,82.6639569 82.984714,80.9998779 L82.984714,68.0001221 Z M110.5,59 C111.328427,59 112,58.3284271 112,57.5 C112,56.6715729 111.328427,56 110.5,56 C109.671573,56 109,56.6715729 109,57.5 C109,58.3284271 109.671573,59 110.5,59 Z M98.5,59 C99.3284271,59 100,58.3284271 100,57.5 C100,56.6715729 99.3284271,56 98.5,56 C97.6715729,56 97,56.6715729 97,57.5 C97,58.3284271 97.6715729,59 98.5,59 Z" id="Logo" sketch:type="MSShapeGroup"></path>
            </g>
        </g>
    </g>
</svg>