<svg width="143" height="22" xmlns="http://www.w3.org/2000/svg"><path d="M15.06 6.92V0h-.28c0 .8-.5 1.44-1.35 1.44-.58 0-1.07-.3-1.58-.53C10.7.4 9.57.08 8.3.08 3.7.07 0 3.97 0 8.55c0 4.6 4 8.55 8.6 8.55 1.15 0 2.32-.28 3.32-.88 2.3-1.4 2.9-3.7 3.12-6.23h-.42c-.26 2.48-.77 4.73-3.17 6.03-.8.44-1.74.67-2.68.67-3.53 0-4.9-3.4-5.07-6.43-.02-.42-.05-.86-.05-1.28 0-2.6.3-5.96 2.54-7.7C6.9.74 7.72.44 8.65.44c1 0 2.1.35 2.93.9 2.04 1.35 2.76 3.28 3.13 5.56l.33.02zm19.5 1.77c0-.62-.04-1.22-.16-1.8-.3-1.46-.8-2.6-1.75-3.74-1.62-1.98-4.07-3.1-6.63-3.1-4.77 0-8.56 3.8-8.56 8.56 0 4.74 3.8 8.48 8.54 8.48 4.75 0 8.56-3.65 8.56-8.4zm-3.7-.1c0 2.13-.35 5.57-2.02 7.08-.77.7-1.86 1.14-2.9 1.14-1.36 0-2.7-.7-3.46-1.8-1.07-1.57-1.3-4.08-1.3-5.94 0-3.4.33-8.7 4.93-8.7 1.4 0 2.62.7 3.4 1.8 1.25 1.7 1.36 4.4 1.36 6.42zm19.2-1.86V.4H36.38v6.34h.25c.05-1.4.1-2.8.87-4 .83-1.32 2.23-2.1 3.8-2.1h.36v15.88h-2.44v.28h7.98v-.28h-2.4V.65c.3 0 .6 0 .9.05 2.04.28 3.57 1.88 3.92 3.85.12.72.12 1.44.12 2.16l.32.04zM64.94 16.8v-6.7h-.3c0 .9-.03 1.84-.3 2.72-.38 1.35-1.3 2.5-2.6 3.12-1.02.5-1.92.58-3.04.58h-2.28V8.4c.5-.06 1.02-.1 1.53-.1 2.54 0 3.38 1.46 3.38 3.8h.28V4.4h-.27c0 .78 0 1.48-.4 2.2-.76 1.4-2.02 1.44-3.44 1.44-.36 0-.73 0-1.08-.03V.66h.8c1.13 0 2.78-.05 3.85.37.54.2 1.03.54 1.45.93 1.46 1.37 1.56 2.9 1.6 4.8h.26V.38h-13.4v.25h2.3v15.87h-2.3v.28h13.96zm19-.35c0-.1-.08-.14-.15-.14-.13 0-.43.24-.83.24-.62 0-1.16-.4-1.5-.9-.3-.52-.36-.9-.45-1.5-.16-.94-.3-1.92-.68-2.83-.8-1.9-2.44-2.96-4.5-3.12 1.27-.2 2.6-.35 3.64-1.14.9-.7 1.56-1.67 1.56-2.84 0-1.18-.77-2.16-1.74-2.76C77.74.46 75.8.4 74 .4h-7v.25h2.3v15.87H67v.28h7.8v-.28h-2.35V8.34c.6-.05 1.17-.07 1.73-.07 3.1 0 3.05 2.14 3.16 4.53.05.7.05 1.44.35 2.1.34.76.95 1.32 1.7 1.64.78.33 1.62.5 2.46.5.35 0 2.1-.15 2.1-.6zm-6.27-12c0 1.1-.33 2.6-1.4 3.17-.74.42-1.77.42-2.6.42-.4 0-.82-.05-1.22-.07V.7c.45-.03.9-.05 1.33-.05.93 0 1.9.07 2.65.67.96.77 1.24 1.96 1.24 3.12zM92.2 16.8v-.28h-2.27V.65h2.26V.4h-7.74v.25h2.28v15.87h-2.28v.28h7.73zm18.5-8.4c0-4.7-3.82-8.3-8.52-8.3-4.73 0-8.6 3.57-8.6 8.38 0 3.1 1.5 6 4.27 7.53.88.5 1.58.68 2.32 1.45.38.37.7.8.98 1.25.35.58.63 1.2 1.07 1.72.9 1.05 2 1.58 3.38 1.58 1.04 0 2.53-.37 3.37-1.02.05-.05.1-.12.1-.2 0-.06-.07-.13-.14-.13-.12 0-.75.5-1.35.5-.98 0-1.68-.66-2.3-1.33-.73-.82-1.22-1.35-2.27-1.84-.78-.37-2.24-.5-2.83-1.07H100c.76.1 1.52.22 2.3.22 3.3 0 6.5-2.1 7.77-5.16.46-1.1.62-2.34.62-3.55zm-3.68.15c0 3.27-.6 8.25-4.94 8.25-1.42 0-2.74-.7-3.5-1.9-1.18-1.77-1.36-4.1-1.36-6.2 0-1.75.25-4.6 1.2-6.17.8-1.35 2.1-2.18 3.7-2.18.9 0 1.94.28 2.66.86 1.12.9 1.63 2.08 1.9 3.45.24 1.3.34 2.57.34 3.9zM128.8.65V.4h-4.93v.25h2.23v9.8c0 2.72.03 5.14-3.12 6-.44.1-.9.18-1.37.18-1 0-2.04-.32-2.83-.97-.98-.82-1.33-1.74-1.4-2.98-.02-.4-.02-.83-.02-1.25V.65h2.33V.4h-7.84v.25h2.28V11.1c0 .75-.03 1.5.18 2.23.82 2.86 3.56 3.8 6.3 3.8 3.06 0 5.55-1 5.87-4.4.07-.84.07-1.65.07-2.5V.66h2.26zM143 16.8v-6.7h-.3c0 .9-.03 1.84-.28 2.72-.4 1.35-1.33 2.5-2.6 3.12-1.03.5-1.94.58-3.06.58h-2.28V8.4c.5-.06 1.03-.1 1.54-.1 2.53 0 3.37 1.46 3.37 3.8h.27V4.4h-.28c0 .78 0 1.48-.4 2.2-.77 1.4-2.03 1.44-3.45 1.44-.35 0-.72 0-1.07-.03V.66h.8c1.13 0 2.8-.05 3.86.37.53.2 1.02.54 1.44.93 1.47 1.37 1.56 2.9 1.6 4.8h.26V.38h-13.38v.25h2.28v15.87h-2.28v.28H143z" fill="#FFF" fill-rule="evenodd"/></svg>