<svg width="646" height="139" xmlns="http://www.w3.org/2000/svg"><g fill="none" fill-rule="evenodd"><path d="M83.5 66.83s8.8-23.2 40.4-17.7c0 0-5.4-3.1-11-4.6 0 0 5.2-18.9 31.6-20.4 0 0-1.1 11.3 1.4 14.7 0 0-2.2-26.7 22.9-33.2 0 0 16.3-4 32.8 22.3 0 0-1.1-7.4-3.1-10.2 0 0 21.1-11.2 32.8 10.7l-6.3 6.3s36-17.9 43.1 22.7c0 0 1.9-36.9-31.9-31.4 0 0-8-22-40.8-13.3 0 0-13.1-13.5-26.6-12.7-13.5.8-23.9 16.7-24.6 19.1 0 0-25.2-1.3-36.6 24.6.1 0-17.8-.5-24.1 23.1zM0 136.63v-78.2c0-2.5.9-4.7 2.7-6.5 1.8-1.8 3.9-2.7 6.5-2.7h8.9v32.5h36.1v-32.4h18.3v87.3H54.1v-38.8h-36v38.8H0zM86.9 130.63c-3.6-3-6.1-7.1-7.6-12.3-1.5-5.2-2.3-10.5-2.3-16.1 0-4.6.6-9.1 1.9-13.7 1.3-4.6 3.3-8.4 6-11.4 4.4-5.1 10.1-8.1 17-9 6.9-.9 13.2-.4 18.8 1.7 6.4 2.5 11.2 6.9 14.2 13.2 2.9 5.6 4.3 12.1 4.3 19.6 0 5.4-.6 10.1-1.8 14-1.2 3.9-2.7 7.2-4.6 9.9-4.1 5.6-9.2 9.1-15.5 10.4-5.6 1.5-11.2 1.7-16.9.4-5.6-1.5-10.1-3.7-13.5-6.7zm12.2-44.7c-3.6 3.9-5.2 9.7-4.8 17.4.3 7.7 1.8 13.1 4.3 16.1 1 1.4 2.8 2.5 5.3 3.4 2.5.9 5.1 1 7.7.3 2.6-.8 5-2.7 7-5.7s3.1-8 3.3-14.7c0-6.1-1-10.7-2.9-13.7s-4.2-5-6.7-5.8c-2.5-.8-5.1-.9-7.6-.1-2.5.6-4.4 1.6-5.6 2.8z" fill="#F15F22"/><path d="M174.6 136.63c-5.6.3-11.6.3-18.2-.3-6.5-.5-9.8-4.7-9.8-12.4v-74.6h9.1c2.2 0 4.1.8 5.8 2.5 1.7 1.7 2.5 3.7 2.5 6.1v11.4h10.4v3.6c0 2.5-.8 4.6-2.5 6.2-1.7 1.6-3.7 2.4-6.1 2.4H164v37.6c0 2.9 1.7 4.3 5.1 4.3h5.3v13.2h.2zM225.7 115.83h12.7c-1.9 7.1-5.4 12.5-10.7 16.2-5.2 3.9-11.9 5.8-19.8 5.8-9.6 0-17.2-3.1-22.6-9.4-5.4-6.1-8.1-14.8-8.1-26.2 0-10.8 2.6-19.3 7.9-25.4 5.4-6.3 12.9-9.4 22.6-9.4 10.2 0 18 3 23.6 9.1 5.4 6.3 8.1 15 8.1 26.2v2.8c0 .8-.1 1.4-.3 1.8h-43.9c.2 5.2 1.4 9.1 3.8 11.7 2.2 2.7 5.5 4.1 9.9 4.1 2.9 0 5.3-.6 7.4-1.8.5-.2 1-.5 1.4-.9l1.4-1.4c.2-.5.8-1.2 1.9-2 1.1-.8 2.6-1.2 4.7-1.2zm-30.5-19.8h25.9c-.3-4.6-1.5-8-3.6-10.2-2.2-2.4-5.3-3.6-9.4-3.6-3.7 0-6.8 1.2-9.1 3.6-2.4 2.4-3.6 5.8-3.8 10.2zM263.3 84.73v-27c0-2.4-.8-4.4-2.5-6-1.7-1.6-3.7-2.4-6.1-2.4h-9.2v87.3h8l9.8-51.9z" fill="#F15F22"/><path d="M256.9 136.73l14.8-78.2c.5-2.5 1.8-4.7 3.9-6.5 2.1-1.8 4.4-2.7 7-2.7h33.3c9.5 0 16.1 2 19.9 6.1 3.9 4.2 5.1 10.4 3.6 18.5-1 5.4-3.1 9.9-6.1 13.5-2.7 3.4-6.4 5.8-11 7.4 3.6 1.4 6 3.4 7 6.1 1 2.5 1.2 6.9.3 12.9l-1.5 10.4c-.2 1-.4 2.1-.6 3.3-.2 1.2-.3 2.3-.4 3.3-.1 3 .6 5 1.9 5.8h-19.8c-.5-1.7-.7-3.5-.5-5.3.2-2.7.4-4.6.5-5.6l1.5-9.4c.6-5.1.3-8.7-1-10.9-1.5-1.9-4.6-2.8-9.4-2.8h-19l-6.4 34h-18v.1zm27.3-49.3h21.1c4.6 0 8.1-.9 10.7-2.8 2.5-1.9 4.2-4.7 4.9-8.6.7-3.9.2-6.8-1.7-8.6-1.6-2-4.5-3-8.6-3h-22.1l-4.3 23zM406.8 69.13l-7.5 39.6c-2.3 12-6.9 19.9-13.9 23.6-7 3.7-14.2 5.6-21.6 5.6-7.2-.3-13.5-2.4-18.8-6.1-5.3-3.7-6.9-11.4-4.6-23.1l7.5-39.6h17.8l-8.2 43.2c-.8 4.1-.1 7 1.9 8.9 2 1.9 4.6 2.8 7.6 2.8s6-.9 8.8-2.8c2.8-1.9 4.6-4.8 5.4-8.9l6.5-34.5c.4-2.4 1.6-4.4 3.6-6.1 1.9-1.7 4.2-2.5 6.7-2.5h8.8v-.1zM458.4 136.73h-8.9c-2.5 0-4.5-.8-5.8-2.4-1.3-1.6-1.7-3.7-1.2-6.2l6.5-34.5c.8-4.1.1-7-2-8.9-2.1-1.9-4.7-2.8-7.7-2.8s-5.9.9-8.7 2.8c-2.7 1.9-4.5 4.8-5.2 8.9l-8.2 43.2h-17.8l7.5-39.6c2.2-11.5 6.6-19.2 13.4-23.1 6.7-3.9 13.8-6 21.1-6.3 7.4 0 13.9 1.9 19.5 5.8 5.5 3.9 7.2 11.8 4.9 23.6l-7.4 39.5zM522.7 136.73h-8.9c-2.5 0-4.5-.8-5.8-2.4-1.3-1.6-1.7-3.7-1.2-6.2l6.5-34.5c.8-4.1.1-7-2-8.9-2.1-1.9-4.7-2.8-7.7-2.8s-5.9.9-8.7 2.8c-2.7 1.9-4.5 4.8-5.2 8.9l-8.2 43.2h-17.8l7.5-39.6c2.2-11.5 6.6-19.2 13.4-23.1 6.7-3.9 13.8-6 21.1-6.3 7.4 0 13.9 1.9 19.5 5.8 5.5 3.9 7.2 11.8 4.9 23.6l-7.4 39.5zM579 115.93h12.7c-3.2 7.1-7.8 12.5-13.7 16.2-6 3.9-13 5.8-20.9 5.8-9.6 0-16.6-3.1-20.8-9.4-4.3-6.1-5.3-14.8-3.2-26.2 2-10.8 6.3-19.3 12.7-25.4 6.6-6.3 14.7-9.4 24.4-9.4 10.2 0 17.5 3 21.9 9.1 4.2 6.3 5.3 15 3.2 26.2-.1.7-.2 1.3-.3 1.8-.1.5-.2.8-.2 1-.2.8-.4 1.4-.6 1.8h-43.9c-.8 5.2-.3 9.1 1.6 11.7 1.7 2.7 4.7 4.1 9.1 4.1 2.9 0 5.4-.6 7.7-1.8.5-.2 1.1-.5 1.6-.9l1.7-1.4c.3-.5 1-1.2 2.3-2 1-.8 2.6-1.2 4.7-1.2zm-26.8-19.9h25.9c.5-4.6 0-8-1.6-10.2-1.8-2.4-4.7-3.6-8.7-3.6-3.7 0-7 1.2-9.8 3.6-2.9 2.5-4.8 5.8-5.8 10.2zM594.1 136.73l6.2-32.8c1.2-6.6 3.3-12.1 6.1-16.6 2.8-4.5 6.1-8.1 10-10.8 3.7-2.5 7.8-4.4 12.4-5.6 4.5-1.2 9.1-1.8 13.7-1.8h2.6l-3.4 18h-5.8c-4.9 0-8.8 1.2-11.6 3.6-2.8 2.4-4.7 6.1-5.7 11.2l-6.6 34.8h-17.9z" fill="#FFF"/></g></svg>