<svg width="436" height="104" xmlns="http://www.w3.org/2000/svg"><g fill="#FFF" fill-rule="evenodd"><path d="M51 21.4l-.8-1.8c-1.7-3.6-4.7-6.4-8.3-7.8.4-2.2 1.8-4.1 3.7-5.1.7 1 1.8 1.6 3.1 1.6 2.1 0 3.8-1.7 3.8-3.8 0-2.1-1.7-3.8-3.8-3.8-1.9 0-3.5 1.5-3.7 3.4-2.8 1.2-4.9 3.7-5.5 7-.9-.2-1.9-.3-2.9-.3-.8 0-1.7.1-2.5.2-.6-3.2-2.7-5.7-5.5-6.9-.2-1.9-1.8-3.4-3.7-3.4-2.1 0-3.8 1.7-3.8 3.8 0 2.1 1.7 3.8 3.8 3.8 1.3 0 2.4-.7 3.1-1.6 1.9 1 3.2 2.9 3.7 5-3.8 1.3-7 4.2-8.7 7.9l-.8 1.8C9.3 27 .3 39.8.3 54.8c0 20.1 16.3 36.4 36.4 36.4 20.1 0 36.4-16.3 36.4-36.4C72.9 39.9 63.9 27 51 21.4zM34.9 60.1c0 8-1.9 16-5.3 23.2-.8 1.8-2.9 2.6-4.7 1.9C12.4 80.4 4.1 68.5 4.1 54.8c0-15.1 10-27.8 24.2-31.5 3.3-.9 6.6 1.6 6.6 5.1v31.7zm13.6 25.1c-1.8.7-3.9-.2-4.7-2-3.4-7.2-5.1-15.1-5.1-23.1V28.3c0-3.5 3.3-6 6.6-5 13.7 3.8 24 16.5 24 31.5 0 13.7-8.4 25.6-20.8 30.4z"/><path d="M23.7 74.2c2.1 0 3.8-1.7 3.8-3.8 0-2.1-1.7-3.8-3.8-3.8-2.1 0-3.8 1.7-3.8 3.8 0 2.1 1.7 3.8 3.8 3.8M10.5 54.2c0 2.1 1.7 3.8 3.8 3.8 2.1 0 3.8-1.7 3.8-3.8 0-2.1-1.7-3.8-3.8-3.8-2.1 0-3.8 1.7-3.8 3.8M23.7 42.2c2.1 0 3.8-1.7 3.8-3.8 0-2.1-1.7-3.8-3.8-3.8-2.1 0-3.8 1.7-3.8 3.8 0 2.1 1.7 3.8 3.8 3.8M49.4 34.7c-2.1 0-3.8 1.7-3.8 3.8 0 2.1 1.7 3.8 3.8 3.8 2.1 0 3.8-1.7 3.8-3.8 0-2.1-1.7-3.8-3.8-3.8M58.8 50.4c-2.1 0-3.8 1.7-3.8 3.8 0 2.1 1.7 3.8 3.8 3.8 2.1 0 3.8-1.7 3.8-3.8 0-2.1-1.7-3.8-3.8-3.8M49.4 66.1c-2.1 0-3.8 1.7-3.8 3.8 0 2.1 1.7 3.8 3.8 3.8 2.1 0 3.8-1.7 3.8-3.8 0-2.1-1.7-3.8-3.8-3.8M102.5 80.5V18h11.4v62.5h-11.4zm32.8-39h.2c.7-.9 1.5-1.9 2.5-2.8 1-.9 2.1-1.7 3.4-2.4 1.3-.7 2.7-1.2 4.2-1.7 1.5-.4 3.2-.6 4.9-.6 1.6 0 3.2.2 4.8.6 1.5.4 3 1 4.2 1.8 1.3.8 2.4 1.8 3.4 3.1s1.8 2.8 2.3 4.5c.3 1 .5 2 .6 3.2.1 1.1.2 2.5.2 3.9v29.4h-11.1V52.9c0-1.2 0-2.3-.1-3.1-.1-.9-.3-1.6-.5-2.3-.6-1.4-1.4-2.5-2.5-3.1-1.1-.6-2.5-.9-4.1-.9-2.2 0-4.2.5-6.2 1.5s-3.7 2.5-5.3 4.4v31.1h-11.1V35.3h9.2l1 6.2zm60.5 25.9c0-1-.3-1.8-.8-2.4-.5-.6-1.3-1.1-2.2-1.6-.9-.4-1.9-.8-3.1-1.1-1.2-.3-2.4-.6-3.7-.9-1.6-.4-3.2-.9-4.7-1.5s-2.8-1.3-3.9-2.3c-1.1-.9-2-2.1-2.7-3.5-.7-1.4-1-3.2-1-5.2 0-2.5.5-4.7 1.4-6.6.9-1.9 2.1-3.4 3.7-4.6 1.5-1.2 3.3-2.1 5.4-2.7 2-.6 4.2-.9 6.5-.9 2.8 0 5.4.2 7.8.7 2.4.5 4.6 1 6.6 1.8v9c-1-.3-2.1-.7-3.2-1-1.1-.3-2.3-.6-3.5-.8-1.2-.2-2.3-.4-3.5-.5-1.2-.1-2.2-.2-3.3-.2-1.3 0-2.4.1-3.3.4-.9.3-1.6.6-2.2 1-.6.4-1 .9-1.2 1.4-.2.5-.4 1.1-.4 1.7 0 1 .3 1.9.8 2.5.5.7 1.3 1.2 2.3 1.6 1 .4 2 .7 3 1 1.1.3 2.1.5 3.1.8 1.6.4 3.1.8 4.7 1.4 1.6.5 3 1.3 4.2 2.2 1.2 1 2.3 2.2 3.1 3.7.8 1.5 1.2 3.4 1.2 5.8 0 2.6-.5 4.8-1.4 6.7-1 1.9-2.3 3.5-4 4.7-1.7 1.3-3.8 2.2-6.2 2.8-2.4.6-5.1.9-8 .9-2.9 0-5.4-.2-7.7-.7-2.3-.5-4.2-1-5.7-1.7v-8.9c2.4.9 4.7 1.5 6.7 1.8 2.1.3 4 .5 5.7.5 1.4 0 2.6-.1 3.8-.3 1.2-.2 2.2-.5 3.1-1 .9-.4 1.5-1 2-1.7.3-.6.6-1.4.6-2.3zm45.7 13c-1.2.4-2.7.7-4.5.9-1.7.2-3.3.3-4.8.3-3.8 0-6.9-.6-9.3-1.8-2.4-1.2-4.1-3-5.1-5.3-.7-1.6-1.1-3.9-1.1-6.7V44.4h-8.4v-9.1h8.4V22.6h11.1v12.7h13.1v9.1h-13.1v22c0 1.7.3 3 .8 3.9.9 1.4 2.8 2.1 5.6 2.1 1.3 0 2.5-.1 3.8-.3 1.3-.2 2.5-.5 3.6-.8v9.1h-.1zm32.9-4.7h-.2c-.6.7-1.4 1.3-2.2 2-.9.7-1.9 1.3-3 1.9-1.1.6-2.4 1.1-3.7 1.5-1.4.4-2.8.6-4.4.6-2.1 0-4.2-.3-6-1-1.9-.7-3.5-1.6-4.8-2.9-1.3-1.3-2.4-2.8-3.2-4.6-.8-1.8-1.1-3.8-1.1-6 0-2.4.4-4.6 1.3-6.5.9-1.9 2.1-3.6 3.7-4.9 1.6-1.3 3.5-2.4 5.7-3.1 2.2-.7 4.7-1.1 7.3-1.1 2 0 3.8.1 5.4.4 1.7.3 3.1.5 4.3.9v-1.8c0-1.1-.2-2.1-.5-3.1-.4-1-.9-1.9-1.7-2.6-.8-.8-1.8-1.4-3.1-1.8-1.3-.5-2.8-.7-4.7-.7-2.2 0-4.5.2-6.7.7-2.2.5-4.7 1.2-7.3 2.2v-8.6c2.3-1 4.7-1.8 7.2-2.3 2.6-.5 5.2-.8 8-.8 3.3 0 6.2.4 8.7 1.2 2.5.8 4.5 1.9 6.2 3.3 1.7 1.4 2.9 3.1 3.7 5 .8 1.9 1.2 4 1.2 6.3v17c0 3 0 5.6.1 7.7.1 2.1.1 4.1.2 5.7h-10l-.4-4.6zm-.9-14.5c-1.1-.2-2.3-.5-3.6-.7-1.4-.2-2.8-.3-4.2-.3-2.7 0-4.8.5-6.4 1.6-1.6 1.1-2.4 2.7-2.4 4.9 0 1 .2 1.9.5 2.7.4.8.8 1.4 1.5 1.9.6.5 1.3.9 2.1 1.1.8.2 1.7.4 2.6.4 1.1 0 2.2-.1 3.2-.4 1-.3 1.9-.7 2.8-1.1.8-.5 1.6-1 2.3-1.5.7-.6 1.2-1.1 1.7-1.6v-7h-.1zm64.5-4.1c0 4.1-.6 7.7-1.8 10.8-1.2 3.1-2.7 5.7-4.6 7.8-1.9 2-4.1 3.5-6.5 4.5-2.4 1-4.8 1.5-7.2 1.5-1.7 0-3.2-.2-4.6-.6-1.4-.4-2.6-.9-3.6-1.6-1-.6-1.9-1.3-2.6-2-.7-.7-1.3-1.3-1.7-1.8h-.2l-1.1 4.8H295c.1-1.3.1-3 .2-5 0-2 .1-3.8.1-5.6v-57h11.1v22.5c0 1.1 0 2-.1 2.6h.1c.7-.5 1.5-1 2.3-1.4.8-.5 1.8-.9 2.8-1.3 1-.4 2.1-.7 3.2-.9 1.2-.2 2.4-.3 3.6-.3 2.5 0 5 .5 7.4 1.4 2.4.9 4.5 2.3 6.3 4.2 1.9 1.9 3.3 4.3 4.4 7.2 1.1 3 1.6 6.4 1.6 10.2zm-11.4.5c0-2.8-.3-5.3-1-7.3s-1.6-3.6-2.7-4.7-2.3-1.8-3.5-2.2c-1.2-.4-2.4-.6-3.6-.6-1.6 0-3.3.3-4.9 1-1.7.7-3.2 1.5-4.6 2.6v21.7c.4.5 1 1 1.6 1.6.6.5 1.4 1 2.1 1.5.8.5 1.7.8 2.6 1.1.9.3 1.9.4 3 .4 1.8 0 3.4-.4 4.7-1.1 1.4-.7 2.5-1.8 3.4-3.1.9-1.3 1.6-2.9 2.1-4.8.6-1.7.8-3.8.8-6.1zm38.8 24c-4.5 0-8.3-.8-11.3-2.3-3-1.5-5.2-3.6-6.8-6.2-.8-1.4-1.4-2.9-1.8-4.6-.4-1.7-.6-3.5-.6-5.6V35.3H356v26.5c0 1.5.1 2.8.3 3.9.2 1.1.5 2.1 1 2.9.7 1.4 1.8 2.4 3.2 3.1 1.4.7 3 1 4.9 1 2 0 3.7-.4 5.1-1.1 1.4-.7 2.5-1.9 3.2-3.4.7-1.5 1.1-3.5 1.1-6.1V35.4h11.1V63c0 3.7-.6 6.8-1.9 9.3-.7 1.4-1.6 2.7-2.8 3.9-1.1 1.2-2.5 2.2-4 3-1.5.8-3.3 1.5-5.2 1.9-2 .3-4.2.5-6.6.5zm59.1 0v-2.3c0-.9.1-1.7.1-2.3h-.1c-.7.6-1.5 1.1-2.4 1.7-.9.5-1.9 1-2.9 1.5-1.1.5-2.2.8-3.5 1.1-1.3.3-2.6.4-3.9.4-2.4 0-4.7-.4-7-1.3s-4.3-2.2-6.1-4.1c-1.8-1.8-3.2-4.2-4.3-7.1-1.1-2.9-1.6-6.4-1.6-10.5s.6-7.7 1.7-10.7c1.1-3.1 2.6-5.6 4.4-7.7 1.8-2.1 3.9-3.6 6.3-4.6 2.4-1 4.8-1.6 7.4-1.6 2.8 0 5.2.6 7.4 1.8 2.2 1.2 3.9 2.7 5.3 4.5h.2l.5-5.1h9.7v46.1c0 2.6-.2 4.9-.7 6.8-.4 1.9-1.1 3.6-1.9 5-1 1.7-2.3 3.2-3.8 4.5-1.5 1.3-3.3 2.3-5.3 3.2-2 .8-4.1 1.5-6.5 1.9-2.4.4-4.9.6-7.5.6-1.5 0-3-.1-4.4-.2-1.4-.1-2.8-.3-4-.5-1.3-.2-2.4-.4-3.5-.7-1-.3-1.9-.5-2.6-.8v-9c2.1.7 4.2 1.2 6.5 1.6 2.3.4 4.6.5 7.1.5 4.9 0 8.8-1 11.5-2.9 2.7-1.9 4.1-4.8 4.1-8.7v-1.1h-.2zm-9.9-8.8c1.1 0 2.2-.1 3.2-.4 1-.3 1.9-.6 2.8-1.1.8-.4 1.6-.9 2.3-1.4.7-.5 1.2-1.1 1.7-1.6V48.1c-1.2-1.4-2.6-2.6-4.4-3.5-1.7-.9-3.6-1.4-5.6-1.4-.7 0-1.4.1-2.2.3-.8.2-1.5.5-2.3.9-.8.4-1.5 1-2.2 1.8-.7.7-1.3 1.7-1.8 2.8-.5 1.1-1 2.5-1.3 4-.3 1.6-.5 3.4-.5 5.4 0 2.3.2 4.3.7 6.1.4 1.8 1.1 3.3 2 4.6.9 1.3 2 2.2 3.2 2.9 1.2.5 2.7.8 4.4.8z"/></g></svg>