<svg width="660" height="210" xmlns="http://www.w3.org/2000/svg"><g fill="none" fill-rule="evenodd"><path d="M81.17 9.93L10.1 81c-13.07 13.07-13.07 34.28 0 47.36l71.07 71.06c13.08 13.08 34.3 13.08 47.37 0l23.7-23.7-23.7-23.67-23.68 23.68-71.06-71.06 71.06-71.05L152.23 81l-47.37 47.36 23.68 23.7 47.37-47.4C189 91.6 189 70.4 175.9 57.3L128.55 9.93c-13.08-13.08-34.3-13.08-47.37 0" fill="#98CA3F"/><path d="M280.97 111.72c13.93 0 23.8-11.1 23.8-25.4 0-14.27-9.52-25.2-23.8-25.2H250.1v50.6h30.87zm-51.14 55.02V43.3h51.14c27.5 0 43.56 20.1 43.56 43.56 0 23.1-16.4 42.85-43.56 42.85h-30.5v37.04h-20.64zM356.2 43.3v92.93c0 14.1 3.7 18.52 18.35 16.23l.7 14.8c-26.1 4.24-38.08-2.46-38.08-30.85V43.3h19.04zM444.7 99.03c-5.82-2.65-12.35-3.53-17.8-3.53-16.24 0-27.17 9.35-27.7 27.68 0 15.52 7.58 27.7 23.28 27.7 14.28 0 21.7-11.12 22.22-26.8V99.02zm18.5 42.32c0 7.76-.16 12.7 9.18 11.8v13.06c-12.17 2.3-24.7.9-24.7-13.2v-3.54c-4.75 11.8-16.74 18.5-29.26 18.5-25.92 0-38.44-20.8-38.44-44.78.53-28.2 20.63-43.73 48.32-43.2 12.16 0 23.8 3 34.9 7.94v53.43zM512.7 81.92h29.46v15.52H512.7v36.5c0 21.7 13.6 23.1 31.04 16.93l1.94 14.46c-29.1 9-51.84 2.3-51.84-31.04V97.43h-17.28V81.92h17.28v-20.8h18.87v20.8zM554.23 162.86l24.7-38.62 18.5-26.8H556.9v-15.7h68.24v2.47l-26.27 40.75-17.28 25.2h43.37v16.6h-70.7v-3.9zM657.76 166.74h-19.22V81.92h19.22v84.82zM648.24 43.1c5.82 0 11.46 3.88 11.46 11.3 0 7.57-5.64 11.45-11.3 11.45-5.8 0-11.8-3.7-11.8-11.46 0-7.6 5.82-11.3 11.64-11.3z" fill="#FFF"/></g></svg>