<svg width="16" height="12" xmlns="http://www.w3.org/2000/svg"><path d="M15.2 1.76c-2 .97-3 2.12-3 3.44.85.1 1.55.44 2.1 1.04.56.6.84 1.28.84 2.06 0 .83-.27 1.53-.8 2.1-.55.57-1.22.85-2.04.85-.9 0-1.7-.37-2.36-1.1-.67-.75-1-1.65-1-2.7 0-3.18 1.77-5.66 5.32-7.45l.93 1.76zm-8.95 0c-2 .97-3 2.12-3 3.44.86.1 1.57.44 2.12 1.04.55.6.83 1.28.83 2.06 0 .83-.27 1.53-.82 2.1-.54.57-1.22.85-2.04.85-.9 0-1.7-.37-2.35-1.1-.67-.75-1-1.65-1-2.7C0 4.27 1.77 1.8 5.3 0l.95 1.76z" fill="#FFF" fill-rule="evenodd"/></svg>