<svg xmlns="http://www.w3.org/2000/svg" width="200" height="50" viewBox="0 0 200 50"><g fill="#fff"><path d="M25 1C11.8 1 1 11.8 1 25s10.8 24 24 24 24-10.8 24-24S38.2 1 25 1zm0 46.5C12.6 47.5 2.5 37.4 2.5 25S12.6 2.5 25 2.5 47.5 12.6 47.5 25 37.4 47.5 25 47.5zM38.2 13.5c-.5.2-1 .4-1.4.7-.2.1-.7.4-.8.4-.5 0-1 .1-1.3.3 0-.3 0-.9.2-1.4.1-.1.1-.3.1-.4 0-.1.1-.2.2-.3.1-.1.3-.1.4-.1.3 0 .6-.3.6-.6.1-.3 0-.6-.3-.8-.2-.1-.4-.2-.7-.4h-.1c-.5-.2-.6-.6-.5-.8 0-.1.1-.2.2-.2.4-.1.7-.4.6-.9.3-.2.5-.7.2-1-.2-.4-.7-.5-1-.3-.3.2-.6.5-.7.8-.4.2-.7.5-.8.9-.3.7-.1 1.7.7 2.3-.2.3-.4.6-.4.8 0 .1-.1.2-.1.3 0 0-.7 2 .1 2.9l-.1.1-.1.1c-.4.2-1.2.7-1.5 1.8 0 .1-.1.3-.1.5-.3.9-.6 2.1-.4 3.1.1.3.8 2.8 2.2 3.7 1.1.7 3 .8 4.1.5-.2.8 0 1.5.4 2 .2.3.4.5.5.7-.2 1-.3 3 .3 4.4.1.3.3.5.4.8.2.4.4.8.4 1-.1.7.1 1.3.5 1.8.3.4.7.6 1.2.6.4 0 .7-.3.7-.8 0-.4-.3-.8-.8-.8-.2-.3-.2-.6-.2-.8.1-.7-.3-1.2-.6-1.9-.1-.2-.2-.4-.4-.7-.4-1-.4-2.6-.2-3.5.1-.3.1-.5 0-.7-.1-.2-.1-.3-.3-.5-.1-.2-.3-.3-.5-.6-.4-.5-.2-.8.2-1.2.2-.2.2-.4.2-.6 0-.2-.2-.4-.4-.6-.4-.2-1.3-.5-1.9-.3-.7.3-2.3.2-3-.3-.7-.4-1.3-2-1.5-2.8-.2-.6.1-1.6.4-2.4 0-.2.1-.3.1-.5.1-.4.4-.6.8-.8.3-.1.5-.3.7-.6.3-.6.5-.8 1.3-.8.4 0 .9-.3 1.5-.6.4-.2.8-.4 1.1-.6.4-.1.6-.1 1 .7.1.3.3.6.5.8.9.8 1.5.3 1.7.2.1-.1.2-.2.5-.1.4.1.8-.2.8-.6s-.2-.8-.6-.8c-.6-.1-1 .1-1.4.3 0-.1-.1-.2-.1-.3-.6-1.4-1.8-1.4-2.6-1.1zM29.7 27c-.6-1.2-2.3-1.8-3.2-2-.3 0-.4-.1-.6-.4-.7-1-1.5-1.4-2.2-1.6-.2-.4-.6-1.1-1.7-1.5l-.4-.1c-.8-.3-1.6-.5-2.7-.1-.1 0-.1.1-.2.1 0 0-.8.5-1.5 1-.2.1-.4.1-.5.1l-.1-.1-.1-.1-.1-.1c-.1-.1-.2-.2-.3-.2-.1-.1-.1-.2-.1-.2 0-.1.1-.2.2-.3.3-.4.8-1.2.2-1.8-.4-.4-.9-.8-1.7-.6v-.7c.7 0 1.3-.3 1.8-.5.1 0 .3-.1.5-.2v.1c.1.1.1.3.2.4.3.7.7 1.7 1.8 1.6.6 0 1-.3 1.2-.6.5-.6.4-1.4.3-1.9v-.7c.5-.8.5-1.5.5-2 0-.1.1-.1.2-.2h.3c.5.1 1.4.2 2.2-.4.3-.2.5-.4.6-.7h.1c1.1 0 1.6-.6 1.8-1 .5-.9.1-1.7-.2-2.2.1-.9-.3-1.6-1-2.1-.1 0-.1-.1-.1-.1-.1-.7-.6-1.3-1.3-1.6-.4-.2-.7-.3-1.1-.3-.3-.4-.7-.6-1.2-.7-.8-.2-1.5 0-2.1.6-.5.5-.7 1.1-.7 1.9-.2 0-.3-.1-.7-.4l-.3-.3c-.3-.3-.7-.4-1.1-.1-.4.4-.4.9-.1 1.2l.5.5c.6.5.9.7 1.8.8.4 0 .7-.1 1-.4.3-.3.4-.7.4-1-.1-.4 0-.7.2-.9.1-.2.4-.3.7-.2.2 0 .4.2.5.4.2.3.5.5.8.4.2 0 .4 0 .6.1.3.2.5.4.5.7 0 .5.4.8.8 1 .2.1.3.3.2.7v.4c0 .1 0 .1.1.2l.1.1c.2.4.3.6.2.8-.1.1-.3.2-.6.2h-.4c-.2-.1-.5 0-.7.1-.2.1-.3.3-.3.6 0 .1 0 .2-.2.3-.3.2-.7.2-1.1.1-.2 0-.5-.1-.7 0-.6.1-1.4.8-1.5 1.5v.1c0 .5-.1.9-.4 1.5 0 .1-.1.2-.1.2v1.3c0 .2.1.6.1.7h-.1c-.1-.1-.3-.5-.3-.7-.1-.2-.1-.4-.2-.5-.4-.9-1-1-1.4-1h-.1c-.1 0-.6.3-.9.4-.4.2-.9.4-1.4.3-.4-.1-.6.1-.7.2-.4.4-.6 1.2-.5 2.1v.3c-.1.6.2.9.4.9.2.1.8.5 1.4.2.1 0 .1-.1.2-.1l-.1.1c-.2.3-.4.6-.4.9v.2c-.8-.1-1.2-.2-1.5-.3H13c-.7-.2-1.5-.9-1.6-1.5-.1-.7-.8-1.6-1.6-2.1-.5-.3-1-1.1-1.3-1.7l.3-.6c.2-.4.1-.8-.3-1-.4-.2-.8-.1-1 .3-.1.2-.2.3-.3.6-.2.4-.2.9 0 1.4.3.6 1 1.8 2 2.3.5.3.8.8.9.9.1 1.4 1.5 2.6 2.7 2.8h.1c.3.1.9.2 2 .3h.6c.1.1.2.2.3.2.1.1.2.1.3.2l.1.1c.1.1.3.1.4.2v.6c-.1.2-.2.4-.4.7-.6 1.4-.4 3 .6 4.4.5.7 1 1.2 1.4 1.5.1.1.2.2.3.2v.4c-.1.5-.1 1 0 1.6.1.9.1 1.8 0 2.2-.2.9-.2 2 0 3 .1.4.1 1.1 0 1.6v.4c-.1 1.1.9 2.4 1.7 3 .4.3.8.4 1.2.4.3 0 .6-.1.9-.2.9-.5 1.2-1.3.9-2.5V41c.5-.8.3-1.6.3-2v-.2c.1-.1.4-.3.5-.4.3-.2.6-.4.8-.7.3-.4.5-.8.5-1.2.8-.4 1.2-1.1 1.5-2.1v-.1c0-.1.1-.4.2-.6.8-.2 1.5-.6 2-1.9.2-.7.2-1.3.1-1.8.8-.7 1.2-2 .6-3zm-2.1 2.4c-.2.2-.3.4-.3.7 0 .1 0 .2.1.4 0 .4.1.7 0 1.1-.3.8-.7.9-1.2 1-.1 0-.3.1-.4.2-.2.2-.3.5-.6 1.4v.1c-.2.9-.5 1.1-1.1 1.3-.3.1-.5.4-.5.7 0 .2 0 .5-.2.7-.1.2-.4.3-.6.5-.4.3-.8.6-1 1.1-.1.3-.1.6 0 1 .1.5.1.8-.2 1.1-.1.1-.1.2-.2.4 0 .2 0 .3.1.7.1.6.1.8-.2.9-.2.1-.4.1-.6-.1-.5-.3-1.1-1.2-1-1.6v-.4c0-.6.1-1.4-.1-2.1-.2-.8-.2-1.6 0-2.3.2-.7.1-1.9 0-2.8-.1-.4 0-.8 0-1.2.1-.5.1-.9 0-1.2-.1-.3-.4-.5-.7-.8-.3-.3-.7-.6-1.1-1.2-.7-1-.9-2.1-.5-3 .1-.3.2-.4.3-.6.1-.2.2-.3.2-.4.1-.2.1-.4 0-.6v-.7c.7-.4 1.3-.9 1.6-1.1.5-.2 1-.1 1.6.2l.4.1c.5.2.7.5.8.8.1.2.2.3.3.4.1.1.1.1.2.1.6.2 1.3.5 1.8 1.2.5.8 1.1.9 1.7 1 .7.1 1.7.5 2 1.1.5.9-.3 1.6-.6 1.9zM75 1C61.8 1 51 11.8 51 25s10.8 24 24 24c2.4 0 4.8-.3 7-1 .4-.1.6-.5.5-.9-.1-.4-.5-.6-.9-.5-2.1.6-4.3 1-6.6 1-12.4 0-22.5-10.1-22.5-22.5S62.6 2.5 75 2.5 97.5 12.6 97.5 25c0 2.2-.3 4.4-1 6.6-.1.4.1.8.5.9.4.1.8-.1.9-.5.7-2.3 1-4.6 1-7C99 11.8 88.2 1 75 1zM85.3 26.6C84 25.3 84 24.4 84 21.5V21c-.1-3.1-1.4-6.1-3.6-8.3-2.5-2.4-5.6-3.7-8.9-3.7-1.3 0-2.6.2-3.9.6-.5.2-.9.6-1 1.1-.1.5.1 1 .4 1.4l5.8 5.5-1.1 4.1-4.1 1.1-5.5-5.8c-.4-.4-.9-.5-1.4-.4-.5.1-.9.5-1.1 1-1.5 4.5-.3 9.4 3 12.7 2.2 2.2 5.2 3.5 8.2 3.6h.6c3 0 3.8 0 5.1 1.4l9.8 9.8c.1.1.3.2.5.2s.4-.1.5-.2c.3-.3.3-.8 0-1.1l-9.8-9.8c-1.8-1.8-3.1-1.8-6.2-1.8h-.5c-2.7-.1-5.3-1.2-7.3-3.2-2.9-2.9-4-7.2-2.7-11.2l5.8 6.1c.2.2.5.3.7.2l5-1.3c.3-.1.5-.3.5-.5l1.3-5c.1-.3 0-.6-.2-.7L68 11.1c1.1-.4 2.3-.5 3.4-.5 2.9 0 5.7 1.1 7.7 3.2 2 2 3.1 4.6 3.2 7.3v.4c0 3 0 4.4 1.7 6.1l9.8 9.8c.3.3.8.3 1.1 0s.3-.8 0-1.1l-9.6-9.7zM146.7 16.5c-.4.1-.6.6-.5 1 1 2.8 1.4 5.7 1.3 8.7-.6 12.4-11.2 22-23.6 21.4-12.4-.6-22-11.2-21.4-23.6.6-12.4 11.2-22 23.6-21.4 5 .3 9.7 2.1 13.5 5.4.3.3.8.2 1.1-.1.3-.3.2-.8-.1-1.1-4.1-3.5-9.1-5.5-14.4-5.8-13.3-.7-24.5 9.6-25.2 22.8-.7 13.2 9.6 24.5 22.8 25.2h1.2c12.7 0 23.3-10 24-22.8.2-3.2-.3-6.3-1.3-9.2-.2-.4-.6-.6-1-.5zM113.8 23c-.3-.5-.9-.6-1.4-.3-.5.3-.6.9-.3 1.4l7.7 11.2c.2.2.4.4.7.4h.1c.3 0 .5-.1.7-.3L148 8.9c.4-.4.4-1 0-1.4-.4-.4-1-.4-1.4 0l-25.8 25.7-7-10.2zM198.3 25.5c-.4 0-.8.3-.8.7-.6 12-10.5 21.4-22.5 21.4-6.1 0-11.9-2.4-16.1-6.8-.3-.3-.8-.3-1.1 0-.3.3-.3.8 0 1.1 4.6 4.7 10.7 7.2 17.2 7.2 12.8 0 23.4-10 24-22.8 0-.5-.3-.8-.7-.8zM152.4 25c0-12.4 10.1-22.5 22.6-22.5 5.7 0 11.2 2.1 15.3 6 .3.3.8.3 1.1 0s.3-.8 0-1.1C186.9 3.3 181.1 1 175 1c-13.3 0-24.1 10.8-24.1 24 0 2.2.3 4.5.9 6.6.1.3.4.5.7.5h.2c.4-.1.6-.5.5-.9-.5-2-.8-4.1-.8-6.2zM179.3 30.2c.4.3 1 .3 1.3-.1L195 15.5v6.7c0 .6.4 1 1 1s1-.4 1-1V13c0-.6-.4-1-1-1h-9.2c-.6 0-1 .4-1 1s.4 1 1 1h6.9l-13.9 14-9.2-7.3c-.4-.3-1-.3-1.3.1L154.6 36c-.4.4-.4 1 0 1.4.2.2.4.3.7.3.3 0 .5-.1.7-.3l14.1-14.6 9.2 7.4zM80.7 29.3c-.4-.4-1-.4-1.4 0s-.4 1 0 1.4L89.6 41c.2.2.5.3.7.3s.5-.1.7-.3c.4-.4.4-1 0-1.4L80.7 29.3z"/></g></svg>