<?xml version="1.0" encoding="UTF-8" standalone="no"?>
<svg width="14px" height="18px" viewBox="0 0 14 18" version="1.1" xmlns="http://www.w3.org/2000/svg" xmlns:xlink="http://www.w3.org/1999/xlink" xmlns:sketch="http://www.bohemiancoding.com/sketch/ns">
    <title>play-again</title>
    <description>Created with Sketch (http://www.bohemiancoding.com/sketch)</description>
    <defs></defs>
    <g id="Page-1" stroke="none" stroke-width="1" fill="none" fill-rule="evenodd" sketch:type="MSPage">
        <path d="M13.9318677,10.0194664 C13.9767786,10.3398659 14,10.6672211 14,11 C14,14.8659934 10.8659934,18 7,18 C3.13400656,18 0,14.8659934 0,11 C0,7.13400656 3.13400656,4 7,4 L7,6 C4.23857611,6 2,8.23857611 2,11 C2,13.7614239 4.23857611,16 7,16 C9.76142389,16 12,13.7614239 12,11 C12,10.857353 11.9940265,10.7161012 11.9823159,10.5764812 L13.9318677,10.0194664 Z M7,1 L7,9 C8.01265168,9 12.4781494,5 13,5 C12.4781494,5 7.95484817,1 7,1 Z" id="Rectangle-45" fill-opacity="0.200712316" fill="#000000" sketch:type="MSShapeGroup"></path>
        <path d="M13.9318677,9.01946638 C13.9767786,9.33986592 14,9.66722113 14,10 C14,13.8659934 10.8659934,17 7,17 C3.13400656,17 0,13.8659934 0,10 C0,6.13400656 3.13400656,3 7,3 L7,5 C4.23857611,5 2,7.23857611 2,10 C2,12.7614239 4.23857611,15 7,15 C9.76142389,15 12,12.7614239 12,10 C12,9.85735303 11.9940265,9.71610125 11.9823159,9.57648117 L13.9318677,9.01946638 Z M7,0 L7,8 C8.01265168,8 12.4781494,4 13,4 C12.4781494,4 7.95484817,0 7,0 Z" id="Rectangle-45" fill="#FFFFFF" sketch:type="MSShapeGroup"></path>
    </g>
</svg>