<svg width="80" height="80" xmlns="http://www.w3.org/2000/svg"><g fill="none" fill-rule="evenodd"><circle stroke="#74E4D7" stroke-width="2" fill="#F7FEFD" cx="40" cy="40" r="39"/><path d="M58 30.2l4.96.8c1.64.25 2.76 1.8 2.5 3.42L65 37.38l-7-1.1V30.2zM22.96 53h.08l35.54 5.64c1.64.26 3.18-.85 3.44-2.5l2.2-13.82-6.22-.98V48c0 2.76-2.23 5-5 5H22.96z" fill="#74E4D7"/><path d="M45 43h-2v1h2v1h1v-3h-1v1zm-4 2v-3h-1v3h-1v1h3v-1h-1zM14 26c0-1.66 1.35-3 3-3h36c1.66 0 3 1.35 3 3v22c0 1.66-1.35 3-3 3H17c-1.66 0-3-1.35-3-3V26zm25 15h2v1h-2v-1zm-12 0h3v1h-3v-1zm0 4h3v1h-3v-1zm1-2h1v1h-1v-1zm1-1h1v3h-1v-3zm-6 0h1v3h-1v-3zm2 0h1v3h-1v-3zm-2-1h3v1h-3v-1zm0 4h3v1h-3v-1zm12-4h3v1h-3v-1zm0 1h1v2h-1v-2zm1 1h2v1h-2v-1zm1 1h1v2h-1v-2zm-2 1h2v1h-2v-1zm8-4h3v1h-3v-1zm0 4h3v1h-3v-1zm0-3h1v1h-1v-1zm-12-1h1v5h-1v-5zm1 0h2v1h-2v-1zm0 2h2v1h-2v-1zm0 2h2v1h-2v-1zm1-1h1v1h-1v-1zm-14-3h3v1h-3v-1zm0 4h3v1h-3v-1zm0-2h3v1h-3v-1zm0 1h1v1h-1v-1zm2-2h1v1h-1v-1zm3 1h1v1h-1v-1zm-5-13.5c0-.83.67-1.5 1.5-1.5h5c.83 0 1.5.67 1.5 1.5v5c0 .83-.67 1.5-1.5 1.5h-5c-.83 0-1.5-.67-1.5-1.5v-5z" fill="#74E4D7"/></g></svg>