<svg width="80" height="80" xmlns="http://www.w3.org/2000/svg"><g fill="none" fill-rule="evenodd"><circle stroke="#F4B7D3" stroke-width="2" fill="#FFFCFD" cx="40" cy="40" r="39"/><path d="M17.2 49.9c-1.43 1.9-2.77 3.75-3.08 4.4-.55 1.14.96 1.93 1.1 1.64.4-.82 1.55-2.6 2.8-4.4.45.8 1.02 1.63 1.7 2.44.4.47 1.38-1.06 1.24-1.28-.18-.28-.85-1.67-1.56-3.14 1.22-1.74 2.28-3.17 2.48-3.4.5-.48-.68-1.34-.9-1.13-.24.26-1.2 1.47-2.34 2.95-.62-1.28-1.14-2.33-1.24-2.42-.23-.2-1.5.25-1.4.6.16.7.47 2.08 1.2 3.74zM72.26 18.14l-11.1 8.64 1.03 1.04-2.58 2.57-2.18-2.2s-10.92 15.87-11.3 16.25c-1.7.38-10.45-.38-16.24 5.4-.35.36-1 .7-1.7.2l11.6-11.6c.62.44 1.5.4 2.06-.18.63-.63.63-1.65 0-2.28l24.42-24.4 1.7 2.25-9.5 8.94 1.72 1.7 9.65-8.78 2.4 2.42zM28 47.96c5.8-5.8 5.03-14.53 5.4-16.24.4-.38 16.25-11.3 16.25-11.3l-2.18-2.2 2.56-2.55 1.05 1.04L59.6 5.75l6.7 5.82L41.85 36c-.63-.64-1.65-.64-2.28 0-.56.56-.62 1.44-.17 2.07l-11.58 11.6c-.52-.7-.17-1.36.18-1.7zm11.1-3.5c1.34-.77 3.9-.87 4.66-.68 1.14-1.52 5.13-7.22 12.26-15.3-.57-.37-1.7-1.5-1.7-1.5S38.53 44.63 39.1 44.44zm17.96-21.4l2.47 2.48-2.28 2.28-2.47-2.47 2.28-2.28z" fill="#F5B7D4"/><path d="M17 58h5l-1 2h-4v-2zm7 0h5l-1 2h-5l1-2zm7 0h5l-1 2h-5l1-2zm7 0h5l-1 2h-5l1-2zm7 0h5l-1 2h-5l1-2zm7 0h5l-1 2h-5l1-2zm7 0h4v2h-5l1-2z" opacity=".95" fill="#F4B7D3"/></g></svg>