<svg width="80" height="80" xmlns="http://www.w3.org/2000/svg"><g fill="none" fill-rule="evenodd"><circle stroke="#FFCD94" stroke-width="2" fill="#FFFCF9" cx="40" cy="40" r="39"/><path d="M43.4 35.4c-3.4-1.2-5.2-2.2-5.2-3.8 0-1.2 1-2 3-2 3.4 0 7 1.4 9.4 2.6l1.4-8.6c-2-1-6-2.4-11.4-2.4-3.8 0-7.2 1-9.4 3-2.4 2-3.6 4.8-3.6 8.4 0 6.2 3.8 9 10 11.2 4 1.4 5.4 2.4 5.4 4s-1.2 2.4-3.6 2.4c-3 0-7.8-1.4-10.8-3.2l-1.4 8.6c2.6 1.6 7.6 3.2 12.8 3.2 4.2 0 7.6-1 9.8-2.8 2.6-2 4-5 4-9 0-6.6-4-9.4-10.4-11.6z" fill="#FFCD94"/></g></svg>