<svg width="80" height="80" xmlns="http://www.w3.org/2000/svg"><g fill="none" fill-rule="evenodd"><circle stroke="#CEA5F4" stroke-width="2" fill="#FDFBFF" cx="40" cy="40" r="39"/><path d="M56 58c0 1.1-.9 2-2 2H26c-1.1 0-2-.9-2-2V22c0-1.1.9-2 2-2h14c5 0 8 4 10 6s6 5 6 10v22zM27 22c-.55 0-1 .46-1 1v34c0 .55.44 1 1 1h26c.55 0 1-.44 1-1V35c0-5-9-4-9-4s1-9-4-9H27z" fill="#CEA5F4"/><rect fill="#CEA5F4" x="30" y="28" width="6" height="4" rx=".5"/><rect fill="#CEA5F4" x="37" y="28" width="6" height="4" rx=".5"/><rect fill="#CEA5F4" x="30" y="33" width="6" height="4" rx=".5"/><path d="M37 33.5c0-.28.23-.5.5-.5h5c.28 0 .5.22.5.5v3c0 .28-.23.5-.5.5h-5c-.28 0-.5-.22-.5-.5v-3zm1 .5h4v2h-4v-2zM37 38.5c0-.28.23-.5.5-.5h5c.28 0 .5.22.5.5v3c0 .28-.23.5-.5.5h-5c-.28 0-.5-.22-.5-.5v-3zm1 .5h4v2h-4v-2zM37 43.5c0-.28.23-.5.5-.5h5c.28 0 .5.22.5.5v3c0 .28-.23.5-.5.5h-5c-.28 0-.5-.22-.5-.5v-3zm1 .5h4v2h-4v-2zM37 48.5c0-.28.23-.5.5-.5h5c.28 0 .5.22.5.5v3c0 .28-.23.5-.5.5h-5c-.28 0-.5-.22-.5-.5v-3zm1 .5h4v2h-4v-2zM44 48.5c0-.28.23-.5.5-.5h5c.28 0 .5.22.5.5v3c0 .28-.23.5-.5.5h-5c-.28 0-.5-.22-.5-.5v-3zm1 .5h4v2h-4v-2zM44 43.5c0-.28.23-.5.5-.5h5c.28 0 .5.22.5.5v3c0 .28-.23.5-.5.5h-5c-.28 0-.5-.22-.5-.5v-3zm1 .5h4v2h-4v-2zM44 38.5c0-.28.23-.5.5-.5h5c.28 0 .5.22.5.5v3c0 .28-.23.5-.5.5h-5c-.28 0-.5-.22-.5-.5v-3zm1 .5h4v2h-4v-2zM44 33.5c0-.28.23-.5.5-.5h5c.28 0 .5.22.5.5v3c0 .28-.23.5-.5.5h-5c-.28 0-.5-.22-.5-.5v-3zm1 .5h4v2h-4v-2z" fill="#CEA5F4"/><rect fill="#CEA5F4" x="30" y="38" width="6" height="4" rx=".5"/><rect fill="#CEA5F4" x="30" y="43" width="6" height="4" rx=".5"/><rect fill="#CEA5F4" x="30" y="48" width="6" height="4" rx=".5"/></g></svg>