<svg xmlns="http://www.w3.org/2000/svg" preserveAspectRatio="xMidYMid" width="30" height="18" viewBox="0 0 30 18"><path fill="#292e31" d="M29 11.667c-.552 0-1-.448-1-1v-2.211l-5.256 5.256c-.39.39-1.023.39-1.414 0-.39-.391-.39-1.024 0-1.415l5.297-5.297h-2.294c-.552 0-1-.448-1-1s.448-1 1-1h4.667c.414 0 .77.252.921.611.051.119.079.251.079.389v4.667c0 .552-.448 1-1 1zm-17.148 6.323c-.457.09-.619-.197-.619-.444 0-.303.011-1.299.011-2.533 0-.862-.288-1.426-.612-1.711 2.006-.228 4.112-1.009 4.112-4.557 0-1.008-.349-1.832-.926-2.478.093-.233.402-1.172-.089-2.444 0 0-.755-.248-2.474.947-.719-.205-1.49-.307-2.254-.311-.766.004-1.537.106-2.255.311-1.72-1.195-2.476-.947-2.476-.947-.49 1.272-.181 2.211-.088 2.444-.576.646-.927 1.47-.927 2.478 0 3.539 2.102 4.331 4.101 4.565-.257.23-.489.637-.571 1.234-.513.237-1.818.644-2.621-.767 0 0-.475-.887-1.379-.952 0 0-.879-.012-.062.561 0 0 .59.284 1 1.351 0 0 .528 1.796 3.033 1.238l.012 1.571c0 .245-.164.53-.614.445-3.579-1.221-6.159-4.683-6.159-8.762 0-5.101 4.032-9.236 9.004-9.236 4.974 0 9.006 4.135 9.006 9.236 0 4.078-2.578 7.537-6.153 8.761z"/></svg>