<?xml version="1.0" encoding="UTF-8" standalone="no"?>
<svg width="81px" height="19px" viewBox="0 0 81 19" version="1.1" xmlns="http://www.w3.org/2000/svg" xmlns:xlink="http://www.w3.org/1999/xlink" xmlns:sketch="http://www.bohemiancoding.com/sketch/ns">
    <!-- Generator: Sketch 3.3.3 (12072) - http://www.bohemiancoding.com/sketch -->
    <title>logo-spring</title>
    <desc>Created with Sketch.</desc>
    <defs></defs>
    <g id="Design" stroke="none" stroke-width="1" fill="none" fill-rule="evenodd" sketch:type="MSPage">
        <g id="Artboard" sketch:type="MSArtboardGroup" transform="translate(-401.000000, -2964.000000)" fill="#B4BBC2">
            <g id="Logos" sketch:type="MSLayerGroup" transform="translate(305.000000, 2960.000000)">
                <g id="Row" sketch:type="MSShapeGroup">
                    <path d="M160.00435,17.6724099 L158.206418,17.6724099 L158.155629,17.6013052 L150.110645,7.6974422 L150.110645,17.6724099 L148.129872,17.6724099 L148.129872,4.26410301 L149.927804,4.26410301 L158.033735,14.2898597 L158.033735,4.26410301 L160.00435,4.26410301 L160.00435,17.6724099 Z M141.476507,4.26410301 L143.467438,4.26410301 L143.467438,17.6724099 L141.476507,17.6724099 L141.476507,4.26410301 Z M137.586067,17.6724099 L134.995826,17.6724099 L130.932703,13.3959726 L128.037727,13.3959726 L128.037727,17.6724099 L126.046797,17.6724099 L126.046797,4.26410301 L132.15164,4.26410301 C135.168509,4.26410301 136.753127,6.54960987 136.753127,8.81480111 C136.773442,10.6330488 135.85924,12.8068197 133.228367,13.2131321 L137.586067,17.6724099 Z M128.058043,11.5574093 L132.10085,11.5574093 C133.949572,11.5574093 134.782512,10.196263 134.782512,8.84527453 C134.802827,8.10375453 134.477778,7.3317611 133.969887,6.81371288 C133.502628,6.3464537 132.872844,6.0925085 132.171955,6.0925085 L128.058043,6.0925085 L128.058043,11.5574093 Z M171.21857,17.9161973 C166.058403,17.9161973 164.229998,14.2289129 164.229998,11.0901502 C164.209682,9.03827289 164.910571,7.2098674 166.190455,5.92998357 C167.450023,4.67041534 169.176851,4.01015781 171.208412,4.01015781 C173.057133,4.01015781 174.824592,4.73136219 176.134949,6.02140384 L176.256843,6.14329754 L175.068379,7.50444384 L174.92617,7.36223453 C173.991652,6.44803179 172.549243,5.88935233 171.208412,5.88935233 C167.775073,5.88935233 166.231086,8.58117152 166.231086,11.0799923 C166.231086,13.5381819 167.775073,16.0065293 171.249043,16.0065293 C172.488296,16.0065293 173.656444,15.5900592 174.611278,14.7875924 L174.611278,11.9637217 L170.548155,11.9637217 L170.548155,10.145474 L176.449841,10.145474 L176.449841,15.5697436 L176.399052,15.6205326 C174.976959,17.1645195 173.270447,17.9161973 171.21857,17.9161973 Z M101.657899,17.9568285 C99.5349173,17.9568285 97.7979321,17.2762554 96.1422093,15.8033732 L96,15.6713217 L96.0914203,15.4884811 L97.1884636,14.1984395 L97.3306729,14.3203332 C98.7730817,15.6306904 100.022492,16.1385808 101.69853,16.1385808 C103.283149,16.1385808 104.39035,15.3157984 104.39035,14.1476504 C104.39035,13.2537633 104.136404,12.4716121 101.160167,11.8519858 C97.8487211,11.1307814 96.5789951,10.0032647 96.5789951,7.84980932 C96.5993107,5.6049337 98.4988208,4 101.129693,4 C103.019045,4 104.441139,4.50789041 105.893705,5.67603836 L106.035915,5.78777425 L105.944494,5.9706148 L104.918556,7.3317611 L104.756031,7.2098674 C103.567567,6.23471781 102.419735,5.80808987 101.089062,5.80808987 C99.5755485,5.80808987 98.5191364,6.58008329 98.5191364,7.6974422 C98.5191364,8.79448549 99.0371847,9.44458522 101.901687,10.0540537 C105.030292,10.7346269 106.371122,11.9230904 106.371122,13.9851255 C106.371122,15.1939047 105.903863,16.1792121 105.020134,16.9004165 C104.15672,17.5708318 102.988572,17.9568285 101.657899,17.9568285 Z M96,21 L177,21 L177,23 L96,23 L96,21 Z M112.983855,17.6724099 L111.003083,17.6724099 L111.003083,4.26410301 L117.107926,4.26410301 C120.327951,4.26410301 121.800833,6.64103014 121.800833,8.84527453 C121.800833,11.0495189 120.348266,13.4467617 117.107926,13.4670773 L112.973698,13.4670773 L112.983855,17.6724099 Z M112.983855,11.5777249 L117.118083,11.5777249 C117.940866,11.5777249 118.641755,11.2933063 119.129329,10.7346269 C119.555957,10.2470521 119.789587,9.58679453 119.789587,8.86559015 C119.789587,7.55523288 118.946489,6.15345535 117.107926,6.15345535 L112.973698,6.15345535 L112.983855,11.5777249 L112.983855,11.5777249 Z" id="logo-spring"></path>
                </g>
            </g>
        </g>
    </g>
</svg>