<?xml version="1.0" encoding="UTF-8" standalone="no"?>
<svg width="116px" height="13px" viewBox="0 0 116 13" version="1.1" xmlns="http://www.w3.org/2000/svg" xmlns:xlink="http://www.w3.org/1999/xlink" xmlns:sketch="http://www.bohemiancoding.com/sketch/ns">
    <!-- Generator: Sketch 3.3.3 (12072) - http://www.bohemiancoding.com/sketch -->
    <title>logo-pacsun</title>
    <desc>Created with Sketch.</desc>
    <defs></defs>
    <g id="Design" stroke="none" stroke-width="1" fill="none" fill-rule="evenodd" sketch:type="MSPage">
        <g id="Artboard" sketch:type="MSArtboardGroup" transform="translate(-909.000000, -3007.000000)" fill="#B4BBC2">
            <g id="Logos" sketch:type="MSLayerGroup" transform="translate(256.000000, 2940.000000)">
                <g id="Row" transform="translate(0.000000, 58.000000)" sketch:type="MSShapeGroup">
                    <path d="M724.667501,12.6674947 C724.065819,12.4322936 723.502694,12.1881001 722.923577,11.9906923 C721.61591,11.5450191 720.270661,11.3769213 718.893388,11.5331423 C718.414205,11.5875207 717.944651,11.6916963 717.536602,11.9718593 C717.249228,12.1691822 717.056359,12.4245737 717.044991,12.7917335 C717.035999,13.0813129 717.140429,13.3143932 717.363032,13.4973369 C717.7693,13.831157 718.251495,13.9553534 718.760708,13.9781737 C719.918644,14.0300494 721.077217,14.0676731 722.23545,14.112847 C723.095535,14.1464411 723.93403,14.2755578 724.723661,14.6462806 C725.938054,15.2164047 726.546693,16.1961903 726.621049,17.5062754 C726.647941,17.9798165 726.618759,18.4728693 726.51471,18.934364 C726.242649,20.1413764 725.421502,20.8899904 724.325028,21.3763838 C723.513171,21.7365023 722.656436,21.9070179 721.775991,21.9439205 C719.795593,22.0269726 717.849638,21.8492886 716.002683,21.0629236 C715.556034,20.8727691 715.132503,20.6272607 714.70456,20.3957499 C714.655484,20.369197 714.608231,20.2561138 714.624859,20.2037715 C714.864047,19.4506613 715.114264,18.7010717 715.362656,17.9508882 C715.366644,17.938757 715.380853,17.9300616 715.406218,17.9023634 C715.478072,17.9432956 715.555822,17.9852458 715.631324,18.0309287 C717.426149,19.1173501 719.384193,19.5694283 721.465288,19.478826 C721.994395,19.4557937 722.524223,19.3214173 723.040648,19.1877196 C723.298711,19.1208707 723.53756,18.9561663 723.767205,18.8080044 C724.435524,18.3769225 724.517558,17.1706313 723.519788,16.8041078 C723.212563,16.6912367 722.880567,16.6039429 722.555866,16.5879518 C721.257064,16.5239873 719.956056,16.5058329 718.657084,16.4452617 C717.56939,16.3945312 716.580655,16.0597354 715.751364,15.3228285 C714.234751,13.9751621 714.154159,11.0478518 716.404328,9.82001284 C717.205242,9.38295019 718.065794,9.15559617 718.966939,9.0675389 C720.776185,8.8907457 722.534615,9.10630785 724.22713,9.78200739 C724.593145,9.92813325 724.943762,10.1138764 725.295779,10.2925784 C725.345491,10.3177739 725.403093,10.4198712 725.388841,10.4647057 C725.154064,11.2035214 724.908301,11.9388166 724.667501,12.6674947 Z M759.414619,13.4018991 L759.414619,21.5712889 L757.046277,21.5712889 L757.046277,9.41323578 C757.07898,9.40640667 757.111556,9.39368164 757.144132,9.3935968 C757.857965,9.39223946 758.571882,9.3862587 759.285417,9.39953515 C759.375129,9.40118941 759.486345,9.48725308 759.548104,9.56542724 C760.704683,11.0289339 761.855196,12.4972337 763.007024,13.9645154 C763.914532,15.1205004 764.822039,16.2765277 765.729801,17.4323429 C765.772472,17.4866788 765.817646,17.5390212 765.89722,17.6353921 L765.89722,9.40767918 L768.274851,9.40767918 L768.274851,21.5851168 L768.049618,21.5851168 C767.413578,21.5851168 766.777368,21.5781604 766.14154,21.589613 C765.965426,21.5927942 765.861165,21.5317141 765.755548,21.3968286 C763.703762,18.776616 761.647184,16.160136 759.591369,13.5430622 C759.548995,13.4891504 759.503948,13.4373595 759.460174,13.384593 C759.444989,13.3903617 759.429804,13.3961304 759.414619,13.4018991 Z M685.499027,21.5851168 L685.0145,21.5851168 C684.350041,21.5851168 683.685497,21.5800692 683.021123,21.5888919 C682.865241,21.5909279 682.783886,21.546772 682.718182,21.4003917 C682.388816,20.6661994 682.043628,19.9390907 681.712819,19.2055346 C681.655175,19.0777328 681.59015,19.0278082 681.446018,19.0281052 C679.268806,19.0329407 677.091552,19.0326438 674.91434,19.0285717 C674.780558,19.0283172 674.71672,19.073576 674.662342,19.1940397 C674.325468,19.9403632 673.979135,20.6824026 673.637934,21.4267749 C673.594669,21.5211099 673.554797,21.5893161 673.426104,21.5882981 C672.613229,21.5816386 671.800269,21.5847775 670.987351,21.584014 C670.959653,21.584014 670.931997,21.5771 670.874777,21.5694226 C670.908116,21.4906122 670.934627,21.4215576 670.96593,21.3547936 C672.80542,17.4301372 674.646096,13.5060323 676.481895,9.57963686 C676.548702,9.43669227 676.626282,9.38672528 676.783733,9.3880402 C677.702651,9.39571764 678.621653,9.3946148 679.540613,9.38876129 C679.679528,9.38787053 679.752018,9.42748782 679.813734,9.55791946 C681.679267,13.501621 683.549594,17.4430744 685.41869,21.3851216 C685.444818,21.4402634 685.464457,21.4985017 685.499027,21.5851168 Z M675.91983,16.5512188 L680.429711,16.5512188 C679.677195,14.9640672 678.935071,13.3988875 678.174877,11.7956175 C677.414641,13.3988027 676.673153,14.9625402 675.91983,16.5512188 Z M655.368257,17.1901006 L655.368257,21.5692105 L653,21.5692105 L653,9.41264194 C653.045471,9.40585526 653.091832,9.3928333 653.138194,9.39287572 C655.56944,9.39406339 658.000813,9.38405302 660.431889,9.40526142 C661.267415,9.41251469 662.072062,9.61119496 662.786403,10.0738774 C663.769667,10.7107655 664.231925,11.6522063 664.315231,12.7928363 C664.36698,13.501112 664.328041,14.2051459 664.073922,14.8816514 C663.613021,16.1087693 662.674804,16.7663992 661.441621,17.0320132 C660.955652,17.1366979 660.448389,17.1764424 659.949949,17.1832291 C658.522539,17.202656 657.094705,17.1901006 655.667041,17.1901006 L655.368257,17.1901006 Z M655.376868,14.7302658 L655.644687,14.7302658 C657.03634,14.7302658 658.428035,14.7320049 659.819687,14.7288661 C660.109055,14.7281874 660.398889,14.7165228 660.687705,14.6972656 C661.284424,14.6574362 661.748167,14.3430853 661.864856,13.8309874 C661.93514,13.52249 661.939552,13.1854886 661.9032,12.8693986 C661.853106,12.4341599 661.570101,12.1391511 661.159295,12.0006603 C660.935419,11.9252008 660.691437,11.8755307 660.456024,11.8734523 C658.81021,11.8587337 657.164269,11.8593275 655.51837,11.856528 C655.472475,11.8564432 655.426538,11.8731554 655.376868,11.882784 L655.376868,14.7302658 Z M704.262181,13.3717407 C704.066809,13.2170891 703.887429,13.0689697 703.701855,12.9291215 C702.414845,11.9593039 700.991804,11.4147147 699.353116,11.4836844 C697.462345,11.5632159 695.744804,12.8213828 695.24823,14.5263683 C694.791699,16.0937961 695.398725,17.7013927 696.797377,18.6278179 C697.664418,19.2020989 698.62728,19.4638953 699.65822,19.4931205 C701.455716,19.5441055 703.080789,19.0115202 704.570763,18.0284686 C704.634219,17.9866032 704.696741,17.943338 704.780896,17.8863723 C704.85907,18.1210644 704.930712,18.3338695 705.00087,18.5471411 C705.175118,19.0766724 705.338931,19.6099363 705.528153,20.1340383 C705.590887,20.3078199 705.545925,20.3799708 705.401411,20.4654831 C704.169034,21.1945854 702.838037,21.632666 701.426194,21.8454711 C699.7867,22.0925489 698.177916,21.9803141 696.634284,21.3631497 C694.587504,20.5447601 693.247091,19.0747212 692.83709,16.8830878 C692.108073,12.9862993 694.36927,10.3373705 697.347438,9.41196327 C700.107202,8.55438052 702.662389,9.05396553 704.996586,10.7403725 C705.078917,10.7998408 705.124854,10.8487049 705.086085,10.9637393 C704.82467,11.7393304 704.571103,12.5175513 704.314099,13.294627 C704.307949,13.3132056 704.29183,13.3284332 704.262181,13.3717407 Z M735.830329,9.40152874 L738.21568,9.40152874 L738.21568,9.65577501 C738.21568,11.9954006 738.212372,14.3350261 738.219328,16.6746093 C738.220388,17.0193306 738.252752,17.3663424 738.30115,17.7079673 C738.392855,18.3555869 738.743557,18.825777 739.332005,19.1164169 C739.789725,19.3424984 740.280402,19.4328886 740.783805,19.4690277 C741.526184,19.5223881 742.266526,19.5202248 742.999319,19.3678213 C743.130175,19.3406321 743.259546,19.3025842 743.38616,19.2594888 C744.297655,18.9492099 744.781079,18.3152061 744.819424,17.3495453 C744.832318,17.0247599 744.847673,16.6998049 744.848055,16.3748922 C744.850558,14.1483498 744.849327,11.9218499 744.849327,9.69530746 L744.849327,9.40767918 L747.223183,9.40767918 C747.226959,9.49412461 747.233194,9.57022034 747.233194,9.64635848 C747.233703,12.0142336 747.236545,14.3821088 747.231964,16.7500264 C747.230394,17.5526794 747.135211,18.3451099 746.846522,19.0999592 C746.365728,20.3570233 745.423948,21.1564951 744.181517,21.5599636 C742.363788,22.1502782 740.517555,22.1669056 738.716962,21.4865826 C737.060289,20.8606379 736.159568,19.5954722 735.916944,17.8579955 C735.857561,17.4328519 735.835504,16.9995219 735.834062,16.5697974 C735.826215,14.2797146 735.830372,11.9895471 735.830329,9.69942189 L735.830329,9.40152874 Z" id="logo-pacsun"></path>
                </g>
            </g>
        </g>
    </g>
</svg>