<?xml version="1.0" encoding="UTF-8" standalone="no"?>
<svg width="32px" height="26px" viewBox="0 0 32 26" version="1.1" xmlns="http://www.w3.org/2000/svg" xmlns:xlink="http://www.w3.org/1999/xlink" xmlns:sketch="http://www.bohemiancoding.com/sketch/ns">
    <!-- Generator: Sketch 3.3.3 (12072) - http://www.bohemiancoding.com/sketch -->
    <title>logo-twitter</title>
    <desc>Created with Sketch.</desc>
    <defs></defs>
    <g id="Design" stroke="none" stroke-width="1" fill="none" fill-rule="evenodd" sketch:type="MSPage">
        <g id="Artboard" sketch:type="MSArtboardGroup" transform="translate(-305.000000, -2960.000000)" fill="#B4BBC2">
            <g id="Logos" sketch:type="MSLayerGroup" transform="translate(305.000000, 2960.000000)">
                <g id="Row" sketch:type="MSShapeGroup">
                    <path d="M31.9929123,3.07771817 C30.8158931,3.5998425 29.5507334,3.95272432 28.2231875,4.1112492 C29.5780873,3.29894916 30.6189767,2.01267412 31.1091081,0.479893685 C29.8407491,1.23220702 28.4361003,1.77832603 26.9409116,2.07266083 C25.7437368,0.796943446 24.0378747,0 22.1499729,0 C18.525176,0 15.5861471,2.93870896 15.5861471,6.56350593 C15.5861471,7.07795196 15.6442142,7.57896097 15.7561894,8.05933455 C10.3010779,7.78563518 5.46454939,5.1724541 2.22734656,1.20133386 C1.66235173,2.1707191 1.33858345,3.2983093 1.33858345,4.5012428 C1.33858345,6.7784983 2.49736674,8.78749323 4.25857656,9.96451248 C3.18265492,9.93044003 2.17055914,9.63514544 1.28563518,9.14357435 C1.28499532,9.17092829 1.28499532,9.19828223 1.28499532,9.22611606 C1.28499532,12.4062115 3.54753408,15.0590638 6.55022887,15.6621302 C5.99947089,15.812177 5.41959935,15.8924792 4.82101196,15.8924792 C4.39806566,15.8924792 3.98679677,15.8512083 3.58608554,15.7745853 C4.42126052,18.3821676 6.84520352,20.2799872 9.71752719,20.3327755 C7.47114485,22.0933455 4.64105183,23.142713 1.56573313,23.142713 C1.0359305,23.142713 0.513486243,23.1115199 0,23.0508933 C2.90479648,24.9132008 6.35491214,26 10.061611,26 C22.1346163,26 28.7368337,15.9983757 28.7368337,7.32461732 C28.7368337,7.04004036 28.7302751,6.75706305 28.7176379,6.47552542 C30.0002338,5.54997047 31.1129473,4.39406655 31.9929123,3.07771817" id="logo-twitter"></path>
                </g>
            </g>
        </g>
    </g>
</svg>