<?xml version="1.0" encoding="UTF-8" standalone="no"?>
<svg width="82px" height="19px" viewBox="0 0 82 19" version="1.1" xmlns="http://www.w3.org/2000/svg" xmlns:xlink="http://www.w3.org/1999/xlink" xmlns:sketch="http://www.bohemiancoding.com/sketch/ns">
    <!-- Generator: Sketch 3.3.3 (12072) - http://www.bohemiancoding.com/sketch -->
    <title>logo-adidas</title>
    <desc>Created with Sketch.</desc>
    <defs></defs>
    <g id="Design" stroke="none" stroke-width="1" fill="none" fill-rule="evenodd" sketch:type="MSPage">
        <g id="Artboard" sketch:type="MSArtboardGroup" transform="translate(-907.000000, -3064.000000)" fill="#B4BBC2">
            <g id="Logos" sketch:type="MSLayerGroup" transform="translate(256.000000, 2940.000000)">
                <g id="Row" transform="translate(35.000000, 120.000000)" sketch:type="MSShapeGroup">
                    <path d="M697.378403,12.7983741 L695.027993,12.7983741 L693.809947,12.7983741 C693.699057,12.2067643 693.527257,11.7900146 693.292507,11.5554107 C692.910729,11.1737787 692.259376,10.9769154 691.360304,10.9769154 C690.474346,10.9769154 689.859422,11.1240893 689.51553,11.4198942 C689.2563,11.6415293 689.120638,11.9488458 689.120638,12.3306235 C689.120638,12.8712325 689.872536,13.3025539 691.360304,13.6347879 C693.05936,14.0034512 694.277698,14.3238822 695.027993,14.5819465 C695.224856,14.656262 695.396656,14.717463 695.520515,14.778664 C697.034658,15.4926758 697.784953,16.576808 697.784953,18.028292 C697.784953,19.8000614 697.046315,21.0925684 695.581716,21.9043562 C695.396656,22.0034435 695.224856,22.0894164 695.027993,22.1753892 C694.080834,22.5819388 692.973388,22.7903137 691.730424,22.7903137 C689.872536,22.7903137 688.370197,22.4580796 687.226321,21.8052688 C686.506626,21.3870619 685.968786,20.8610246 685.610323,20.227157 C685.25186,19.5931436 685.072628,18.8529028 685.072628,18.0033745 L688.813322,18.0033745 C688.813322,18.6432165 689.04778,19.1487077 689.502416,19.4927448 C689.958509,19.8497507 690.733722,20.034811 691.828054,20.034811 C692.652811,20.034811 693.267735,19.8614081 693.674285,19.5175167 C693.994862,19.2464836 694.142035,18.950533 694.142035,18.6067873 C694.142035,18.028292 693.404709,17.573656 691.938799,17.2530792 C689.748823,16.7853286 688.370343,16.4035509 687.804816,16.1325178 C686.303934,15.4316205 685.565296,14.3490912 685.565296,12.8466063 C685.565296,11.6415293 685.946928,10.6200552 686.733944,9.78364138 C687.718989,8.73724979 689.195099,8.22010123 691.152075,8.22010123 C692.763701,8.22010123 694.056208,8.45470512 695.028139,8.90934121 C695.114112,8.94577038 695.188573,8.98365672 695.262743,9.0332004 C695.96364,9.41352098 696.492446,9.91915791 696.846683,10.5471969 C697.200629,11.1736329 697.378403,11.9253854 697.378403,12.7983741 Z M683.571746,15.6893934 L683.571746,22.5934504 L680.211519,22.5934504 L680.211519,21.8300406 C679.079155,22.5686786 677.725447,23 676.274108,23 L676.236222,23 C672.224641,22.9752282 668.963502,19.700974 668.963502,15.6893934 C668.963502,11.6779584 672.224641,8.40516144 676.236222,8.38024388 L676.274108,8.38024388 C677.725447,8.38024388 679.079155,8.81171102 680.211519,9.5490375 L680.211519,8.74905284 L683.571746,8.74905284 L683.571746,15.6893934 Z M680.211519,16.4529488 L680.211519,14.927295 C679.854513,13.0810645 678.218115,11.6778127 676.274108,11.6778127 L676.236222,11.6778127 C674.034443,11.6909272 672.249413,13.4876141 672.249413,15.6892476 C672.249413,17.8924841 674.034443,19.6891709 676.236222,19.7139428 L676.274108,19.7139428 C678.218115,19.7140885 679.854513,18.2991794 680.211519,16.4529488 Z M667.795,15.6893934 L667.795,22.5934504 L664.43623,22.5934504 L664.43623,21.8300406 C663.290897,22.5686786 661.950157,23 660.497507,23 L660.461078,23 C656.449498,22.9752282 653.188358,19.700974 653.188358,15.6893934 C653.188358,11.6779584 656.449498,8.40516144 660.461078,8.38024388 L660.497507,8.38024388 C661.950303,8.38024388 663.290897,8.81171102 664.43623,9.5490375 L664.43623,4 L667.795,4 L667.795,15.6893934 Z M664.43623,16.4529488 L664.43623,14.927295 C664.079224,13.0810645 662.441368,11.6778127 660.497507,11.6778127 L660.461078,11.6778127 C658.257842,11.6909272 656.474269,13.4876141 656.474269,15.6892476 C656.474269,17.8924841 658.257842,19.6891709 660.461078,19.7139428 L660.497507,19.7139428 C662.441368,19.7140885 664.079224,18.2991794 664.43623,16.4529488 Z M648.216504,8.38009817 L651.871079,8.38009817 L651.871079,22.5933047 L648.216504,22.5933047 L648.216504,8.38009817 Z M648.216504,4.07285835 L651.871079,4.07285835 L651.871079,7.28445433 L648.216504,7.28445433 L648.216504,4.07285835 Z M646.542219,15.6893934 L646.542219,22.5934504 L643.18345,22.5934504 L643.18345,21.8300406 C642.039574,22.5686786 640.685865,23 639.23307,23 L639.196641,23 C635.18506,22.9752282 631.923921,19.700974 631.923921,15.6893934 C631.923921,11.6779584 635.18506,8.40516144 639.196641,8.38024388 L639.23307,8.38024388 C640.685865,8.38024388 642.039574,8.81171102 643.18345,9.5490375 L643.18345,4 L646.542219,4 L646.542219,15.6893934 L646.542219,15.6893934 Z M643.18345,16.4529488 L643.18345,14.927295 C642.826444,13.0810645 641.190045,11.6778127 639.23307,11.6778127 L639.196641,11.6778127 C636.993404,11.6909272 635.209832,13.4876141 635.209832,15.6892476 C635.209832,17.8924841 636.993404,19.6891709 639.196641,19.7139428 L639.23307,19.7139428 C641.190045,19.7140885 642.826444,18.2991794 643.18345,16.4529488 Z M630.606642,15.6893934 L630.606642,22.5934504 L627.247872,22.5934504 L627.247872,21.8300406 C626.102539,22.5686786 624.74883,23 623.297492,23 L623.259606,23 C619.26114,22.9752282 616,19.700974 616,15.6893934 C616,11.6779584 619.26114,8.40516144 623.259606,8.38024388 L623.297492,8.38024388 C624.74883,8.38024388 626.102539,8.81171102 627.247872,9.5490375 L627.247872,8.74905284 L630.606642,8.74905284 L630.606642,15.6893934 Z M627.247872,16.4529488 L627.247872,14.927295 C626.890866,13.0810645 625.254467,11.6778127 623.297492,11.6778127 L623.259606,11.6778127 C621.069484,11.6909272 619.285911,13.4876141 619.285911,15.6892476 C619.285911,17.8924841 621.069484,19.6891709 623.259606,19.7139428 L623.297492,19.7139428 C625.254467,19.7140885 626.890866,18.2991794 627.247872,16.4529488 L627.247872,16.4529488 Z" id="logo-adidas"></path>
                </g>
            </g>
        </g>
    </g>
</svg>