<?xml version="1.0" encoding="UTF-8" standalone="no"?>
<svg width="60px" height="20px" viewBox="0 0 60 20" version="1.1" xmlns="http://www.w3.org/2000/svg" xmlns:xlink="http://www.w3.org/1999/xlink" xmlns:sketch="http://www.bohemiancoding.com/sketch/ns">
    <!-- Generator: Sketch 3.3.3 (12072) - http://www.bohemiancoding.com/sketch -->
    <title>logo-wish</title>
    <desc>Created with Sketch.</desc>
    <defs></defs>
    <g id="Design" stroke="none" stroke-width="1" fill="none" fill-rule="evenodd" sketch:type="MSPage">
        <g id="Artboard" sketch:type="MSArtboardGroup" transform="translate(-512.000000, -3022.000000)" fill="#B4BBC2">
            <g id="Logos" sketch:type="MSLayerGroup" transform="translate(305.000000, 2960.000000)">
                <g id="Row" transform="translate(35.000000, 58.000000)" sketch:type="MSShapeGroup">
                    <path d="M182.859093,23.5453412 C181.639932,23.5292699 180.505927,23.2473951 179.5158,22.5225495 C178.176765,21.542232 177.382068,20.2338085 177.196412,18.5676062 C177.113794,17.8260978 177.218397,17.0998955 177.319383,16.3713624 C177.49989,15.0693397 177.681649,13.7674908 177.863339,12.4656072 C177.892942,12.2534097 177.919762,12.0405861 177.957506,11.8297801 C177.984048,11.6813463 177.943521,11.5975456 177.79467,11.5367041 C176.233349,10.8986855 174.676481,10.2497091 173.114603,9.61304713 C172.432266,9.33492931 172.071217,8.82937755 172.003488,8.10888019 C171.989748,7.96267266 172.018725,7.80752501 172.053302,7.662535 C172.189178,7.09315007 172.321437,6.52219975 172.483611,5.9600504 C172.55628,5.70823115 172.670101,5.45898609 172.811682,5.23833552 C173.062527,4.84740517 173.427577,4.75031613 173.852702,4.9262661 C176.439389,5.99678491 179.025485,7.06883433 181.611476,8.14105768 C182.201837,8.38585006 182.74548,9.11184368 182.589115,10.0615839 C182.37657,11.3525098 182.219822,12.6526541 182.038898,13.9487979 C181.903613,14.9180185 181.785339,15.8900221 181.627756,16.8555901 C181.451737,17.934075 182.008877,18.7103003 182.72927,18.9931143 C183.52501,19.3054968 184.266484,19.1227287 184.934906,18.6128286 C185.536468,18.1538907 185.83838,17.535596 185.932478,16.7912351 C186.058161,15.7974205 186.207152,14.8064931 186.350159,13.8149396 C186.436673,13.2151165 187.027243,12.6257293 187.635971,12.5977958 C188.35212,12.5648878 189.072096,12.5641921 189.78821,12.5974827 C190.408661,12.6263207 190.82029,13.2413455 190.726749,13.9229516 C190.581933,14.9785122 190.433673,16.0335858 190.290318,17.0893204 C190.145919,18.1527427 190.982708,19.0917687 192.049296,19.1377216 C193.30293,19.1917102 194.471825,18.083135 194.605892,16.8944814 C194.762884,15.5024312 194.982804,14.1174775 195.175103,12.7294278 C195.224361,12.3738057 195.276715,12.0185663 195.319989,11.6622137 C195.414608,10.8829968 196.176084,10.2865828 196.874075,10.3207431 C197.481377,10.3504855 198.091288,10.3222389 198.699947,10.329544 C199.049933,10.3337532 199.359116,10.4542535 199.597994,10.7197787 C199.731818,10.8684908 199.789494,11.0397794 199.760517,11.247385 C199.542684,12.8073147 199.331704,14.3682184 199.116097,15.9284611 C198.996397,16.7945746 198.903622,17.6654887 198.595344,18.4945894 C198.257463,19.4033511 197.758103,20.2095971 197.101613,20.9211543 C196.33471,21.752377 195.456804,22.4330091 194.423263,22.9037048 C193.556976,23.2982182 192.648597,23.4967446 191.696109,23.516712 C190.687266,23.5378274 189.722429,23.3717568 188.821285,22.9016524 C188.361373,22.6616954 187.935135,22.3713327 187.572416,21.9989087 C187.455499,21.8788606 187.381578,21.8684595 187.245667,21.9756366 C186.310224,22.7133185 185.263812,23.2182789 184.08302,23.4140571 C183.678906,23.4810559 183.267277,23.5029018 182.859093,23.5453412 Z M222.859289,11.6348715 C223.197796,11.4086899 223.516858,11.17816 223.852443,10.9748331 C224.516099,10.5727363 225.243623,10.3413714 226.009308,10.2368381 C226.805501,10.1281304 227.600372,10.1198164 228.394129,10.2855739 C230.144028,10.6510754 231.512354,12.1001753 231.783897,13.875642 C231.911807,14.7118739 231.838477,15.5371481 231.707819,16.3647182 C231.448521,18.0067091 231.199832,19.650335 230.946204,21.2931609 C230.890546,21.653827 230.840592,22.0155715 230.773802,22.3741852 C230.651771,23.0296666 230.070663,23.5109374 229.404781,23.5143465 C228.836613,23.5172338 228.268446,23.5155292 227.700278,23.5128507 C227.43044,23.5115636 227.184569,23.4253627 226.974041,23.2599878 C226.780872,23.1082493 226.685418,22.9142103 226.723892,22.6523726 C226.977207,20.9276246 227.231392,19.2029115 227.467105,17.4757285 C227.551427,16.8576773 227.61446,16.2334341 227.629801,15.6106171 C227.637558,15.2952778 227.553549,14.9641802 227.447763,14.6623728 C227.227913,14.0349988 226.74205,13.7076581 226.098814,13.6011419 C224.421236,13.3233024 222.688487,14.4441224 222.255779,16.1206563 C222.074124,16.8244562 221.982392,17.5527109 221.871562,18.2732083 C221.662913,19.6298458 221.477188,20.9899968 221.267704,22.3464604 C221.16077,23.0388155 220.550094,23.5415843 219.849216,23.5453412 C219.333228,23.5480894 218.816962,23.555812 218.301427,23.5407494 C218.108153,23.535114 217.908305,23.4945182 217.725954,23.4293979 C217.317109,23.2834339 217.152082,23.005003 217.21341,22.5770599 C217.398335,21.2871428 217.591991,19.9985128 217.780604,18.7091175 C217.973425,17.3911278 218.163568,16.0727206 218.356285,14.7547308 C218.534774,13.5340736 218.715629,12.3137991 218.894432,11.0932114 C219.098419,9.70074382 219.301051,8.30806752 219.504691,6.91556514 C219.586821,6.35393759 219.6645,5.79157953 219.754179,5.23113472 C219.865009,4.53860568 220.388371,4.04540312 221.114956,4.01120802 C221.727024,3.98240482 222.342397,4.01611291 222.955961,4.03416709 C223.079487,4.03778488 223.206806,4.08224199 223.323062,4.13035168 C223.726724,4.29736152 223.870532,4.55262463 223.808299,4.98182009 C223.594675,6.45481835 223.378268,7.92739918 223.164192,9.40032787 C223.058442,10.1281304 222.955369,10.8563156 222.851845,11.5844659 C222.849584,11.6001894 222.856471,11.6172348 222.859289,11.6348715 Z M212.768012,9.84625563 C214.08141,9.86451852 215.289336,10.2112353 216.400276,10.9043557 C217.181302,11.3916445 217.324936,12.1516245 216.766508,12.8830448 C216.569617,13.1409517 216.368864,13.3960757 216.164076,13.647721 C215.699607,14.2185322 215.408862,14.2625719 214.780445,13.8721633 C213.874744,13.3094574 212.892861,13.0220168 211.822168,13.0796928 C211.445605,13.0999733 211.072311,13.1539967 210.724655,13.3179453 C210.512249,13.4181303 210.346039,13.5618332 210.261369,13.7878061 C210.147548,14.0915616 210.223069,14.4200154 210.514441,14.5542564 C210.991224,14.7738982 211.487418,14.9559706 211.98563,15.1234326 C212.786936,15.3927495 213.603444,15.6179571 214.399533,15.9011189 C214.744614,16.0238804 215.067363,16.2250158 215.378354,16.4246901 C216.0218,16.8379186 216.349836,17.4618835 216.432837,18.2037049 C216.57894,19.5096586 216.270245,20.7060696 215.456485,21.7467416 C214.727987,22.6783929 213.766141,23.2840253 212.648938,23.6508834 C211.824882,23.9214526 210.9739,24.0326997 210.112622,23.991756 C208.25259,23.9033636 206.53633,23.3857409 205.035328,22.2365003 C204.642589,21.9357713 204.642067,21.5049757 204.889225,21.1938455 C205.238794,20.7537619 205.568883,20.2981983 205.90906,19.8506007 C206.179142,19.4952222 206.592927,19.3996637 206.993737,19.6093914 C207.414723,19.8296593 207.824194,20.0725384 208.249285,20.2843185 C208.910506,20.6137115 209.615767,20.7823563 210.353171,20.8401367 C210.872985,20.8808716 211.38372,20.8799324 211.879357,20.7002951 C212.123002,20.612007 212.338226,20.4757484 212.487703,20.2566632 C212.718337,19.9186431 212.655061,19.5198858 212.333773,19.2658402 C211.853789,18.8863894 211.282804,18.7088392 210.709175,18.5401597 C209.925262,18.3096297 209.124199,18.1207044 208.407355,17.7132157 C208.006545,17.4853991 207.609109,17.2375455 207.255714,16.9438781 C206.72042,16.4990288 206.472601,15.8811863 206.430718,15.1983627 C206.344204,13.7870408 206.837372,12.5919517 207.864268,11.6275664 C208.804233,10.7448597 209.934272,10.2307853 211.199177,10.0209881 C211.717496,9.9350307 212.244789,9.902888 212.768012,9.84625563 Z M203.342236,10.3271786 C203.626267,10.3271786 203.912212,10.3071763 204.193704,10.3338924 C204.396162,10.3531293 204.605959,10.4070135 204.788866,10.4946754 C205.100692,10.6441877 205.196076,10.8842143 205.147549,11.2277655 C204.921576,12.8274561 204.699082,14.4275989 204.473944,16.0273938 C204.247241,17.6386335 204.018902,19.2495949 203.791294,20.8606955 C203.719217,21.3709782 203.659732,21.8833829 203.571931,22.3909175 C203.460197,23.0366239 202.884863,23.5109026 202.234322,23.5143813 C201.689461,23.5173034 201.144427,23.5205733 200.59974,23.5103808 C200.446332,23.5074936 200.286488,23.4779599 200.142263,23.4257106 C199.689761,23.2618315 199.550093,22.9963064 199.618275,22.5209145 C199.814714,21.1510929 200.004161,19.7802625 200.1974,18.4099887 C200.388273,17.0568646 200.580851,15.7040188 200.771829,14.3509295 C200.904539,13.4106512 201.043129,12.4711383 201.165229,11.5294685 C201.25463,10.8401051 201.915678,10.2830345 202.559819,10.323039 C202.819674,10.3391799 203.081372,10.3256827 203.342236,10.3256827 L203.342236,10.3271786 Z M201.577518,7.1563223 C201.545793,5.90957523 202.595823,4.79828668 203.738976,4.64272158 C204.585957,4.52747401 205.254657,4.6771254 205.785011,5.49857309 C206.078679,5.95340618 206.096524,6.46149736 205.989069,6.97605881 C205.749355,8.12401231 204.712962,9.0030316 203.540171,9.03545259 C202.463425,9.06522981 201.760669,8.38247577 201.60493,7.53702542 C201.582041,7.41266379 201.585971,7.28336248 201.577518,7.1563223 Z" id="logo-wish"></path>
                </g>
            </g>
        </g>
    </g>
</svg>