<?xml version="1.0" encoding="UTF-8" standalone="no"?>
<svg width="129px" height="15px" viewBox="0 0 129 15" version="1.1" xmlns="http://www.w3.org/2000/svg" xmlns:xlink="http://www.w3.org/1999/xlink" xmlns:sketch="http://www.bohemiancoding.com/sketch/ns">
    <!-- Generator: Sketch 3.3.3 (12072) - http://www.bohemiancoding.com/sketch -->
    <title>logo-tuftandneedle</title>
    <desc>Created with Sketch.</desc>
    <defs></defs>
    <g id="Design" stroke="none" stroke-width="1" fill="none" fill-rule="evenodd" sketch:type="MSPage">
        <g id="Artboard" sketch:type="MSArtboardGroup" transform="translate(-790.000000, -3084.000000)" fill="#B4BBC2">
            <g id="Logos" sketch:type="MSLayerGroup" transform="translate(305.000000, 2960.000000)">
                <g id="Row" transform="translate(56.000000, 120.000000)" sketch:type="MSShapeGroup">
                    <path d="M474.83713,15.0274666 C475.052955,16.2904735 475.714125,17.3327919 476.749391,18.0415015 C477.664432,18.6677836 478.821999,18.9942913 480.05967,18.9941521 C480.55828,18.9941521 481.069895,18.9411033 481.583862,18.8330564 C482.714589,18.5957988 483.670443,18.1143218 484.465951,17.533709 C485.449751,17.9163286 486.513794,18.1851927 487.651438,18.2871133 L487.651438,18.2872525 C488.145068,18.323593 488.378186,18.3153781 488.378186,18.3153781 L488.378186,16.8536819 C488.378186,16.8536819 488.147973,16.8540996 487.661261,16.8184552 C486.983074,16.7493943 486.33394,16.6135003 485.716211,16.4244182 C486.459008,15.6355088 487.136226,14.6660107 487.58766,13.6057309 L488.594979,13.6057309 L488.594979,12.1427816 L484.911711,12.1427816 L484.911711,13.6057309 L485.957492,13.6057309 C485.575787,14.3601099 485.065002,15.0237072 484.219551,15.8421346 C481.37039,14.4880675 479.367233,12.0961376 478.472391,10.5269514 C477.424535,8.69001494 477.423152,7.28582302 478.467549,6.23459357 C478.957858,5.74128153 479.609482,5.46712645 480.302473,5.46281015 C481.009575,5.46141779 481.672406,5.73250968 482.171292,6.23459357 C482.637391,6.70367861 482.938438,7.43550139 482.938438,8.09868097 L482.938438,8.12889512 C482.932489,8.584892 482.938438,8.83022528 482.938438,8.83022528 L484.391934,8.83022528 L484.391934,8.09868097 C484.391934,7.05148936 483.934967,5.9409455 483.199365,5.20035087 C482.429314,4.42550427 481.407882,4 480.320043,4 L480.293342,4 C479.215464,4.00682255 478.202195,4.43316223 477.439477,5.20035087 C476.470203,6.17583611 475.634436,7.8518161 476.797814,10.4439669 C475.295481,11.610205 474.547842,13.3377022 474.83713,15.0274666 L474.83713,15.0274666 Z M477.509896,11.7465168 C478.521228,13.3214117 480.371647,15.4011751 482.899147,16.7985445 C482.416032,17.0649024 481.879376,17.2768191 481.287242,17.4011566 C479.882307,17.6963362 478.526486,17.4885966 477.566896,16.8316826 C476.855644,16.3447754 476.418875,15.6541664 476.26932,14.7790701 C476.084071,13.6966518 476.554596,12.5700959 477.509896,11.7465168 Z M529.813187,4.15232384 L527.051462,4.15232384 L527.051462,18.7795899 L529.813187,18.7795899 C533.826971,18.7795899 537.080665,15.505045 537.080665,11.4653999 C537.080665,7.42603336 533.826971,4.15232384 529.813187,4.15232384 Z M529.813187,17.3167798 L528.504819,17.3167798 L528.504819,5.61429858 L529.813187,5.61429858 C533.024269,5.61429858 535.627169,8.23387883 535.627169,11.4653999 C535.627169,14.6971995 533.024269,17.3167798 529.813187,17.3167798 Z M506.486008,4.15232384 L506.486008,18.7795899 L514.116929,18.7795899 L514.116929,17.3167798 L507.93978,17.3167798 L507.93978,12.1916533 L513.390042,12.1916533 L513.390042,10.7349695 L507.93978,10.7287039 L507.93978,5.60900762 L514.116929,5.60900762 L514.116929,4.15232384 L506.486008,4.15232384 Z M547.135877,18.7797291 L547.135877,17.316919 L540.959282,17.316919 L540.959282,4.15232384 L539.505786,4.15232384 L539.505786,18.7797291 L547.135877,18.7797291 Z M453.491525,18.7805646 L454.945021,18.7805646 L454.945021,12.1979189 L460.395283,12.1916533 L460.395283,10.7349695 L454.945021,10.7349695 L454.945021,5.61513399 L461.122169,5.60900762 L461.122169,4.15232384 L453.491525,4.15232384 L453.491525,18.7805646 Z M432.99732,5.61513399 L432.99732,18.7805646 L434.450678,18.7805646 L434.450678,5.61513399 L438.44786,5.61513399 L438.44786,4.15232384 L429,4.15232384 L429,5.61513399 L432.99732,5.61513399 Z M445.870704,19 C448.790976,19 451.157853,16.6176774 451.157853,13.6789689 L451.157853,4.15232384 L449.704495,4.15232384 L449.704495,13.8368622 L449.700345,13.8407608 C449.615952,15.8962973 447.934042,17.5370506 445.870704,17.5370506 C443.807365,17.5370506 442.125732,15.8962973 442.041339,13.8407608 L442.037189,13.8368622 L442.037189,4.15232384 L440.583555,4.15232384 L440.583555,13.6789689 C440.583555,16.6176774 442.950846,19 445.870704,19 Z M503.821542,4.15232384 L502.367908,4.15232384 L502.367908,13.979718 L494.07554,4.15232384 L492.167845,4.15232384 L492.895838,5.01405352 L492.895838,18.7805646 L494.349333,18.7805646 L494.349333,6.73417122 L502.367908,16.2377032 L502.367908,18.7795899 L503.821542,18.7795899 L503.821542,4.15232384 Z M467.362682,5.61513399 L467.362682,18.7805646 L468.816178,18.7805646 L468.816178,5.61513399 L472.81336,5.61513399 L472.81336,4.15232384 L463.3655,4.15232384 L463.3655,5.61513399 L467.362682,5.61513399 Z M516.658955,18.7795899 L524.289876,18.7795899 L524.289876,17.3167798 L518.112727,17.3167798 L518.112727,12.1916533 L523.56299,12.1916533 L523.56299,10.7349695 L518.112727,10.7287039 L518.112727,5.60900762 L524.289876,5.60900762 L524.289876,4.15232384 L516.658955,4.15232384 L516.658955,18.7795899 Z M557.527139,5.60900762 L557.527139,4.15232384 L549.896356,4.15232384 L549.896356,18.7795899 L557.527139,18.7795899 L557.527139,17.3167798 L551.34999,17.3167798 L551.34999,12.1916533 L556.800253,12.1916533 L556.800253,10.7349695 L551.34999,10.7287039 L551.34999,5.60900762 L557.527139,5.60900762 Z" id="logo-tuftandneedle"></path>
                </g>
            </g>
        </g>
    </g>
</svg>