<?xml version="1.0" encoding="UTF-8" standalone="no"?>
<svg width="159px" height="12px" viewBox="0 0 159 12" version="1.1" xmlns="http://www.w3.org/2000/svg" xmlns:xlink="http://www.w3.org/1999/xlink" xmlns:sketch="http://www.bohemiancoding.com/sketch/ns">
    <!-- Generator: Sketch 3.3.3 (12072) - http://www.bohemiancoding.com/sketch -->
    <title>logo-warbyparker</title>
    <desc>Created with Sketch.</desc>
    <defs></defs>
    <g id="Design" stroke="none" stroke-width="1" fill="none" fill-rule="evenodd" sketch:type="MSPage">
        <g id="Artboard" sketch:type="MSArtboardGroup" transform="translate(-631.000000, -3026.000000)" fill="#B4BBC2">
            <g id="Logos" sketch:type="MSLayerGroup" transform="translate(305.000000, 2960.000000)">
                <g id="Row" transform="translate(35.000000, 58.000000)" sketch:type="MSShapeGroup">
                    <path d="M299.134751,12.1395166 C299.001559,12.4518831 298.913822,12.6363431 298.843526,12.8266171 C298.036448,15.0041971 297.232011,17.1823056 296.428104,19.3604142 C296.317639,19.6585101 296.239415,19.9951893 295.830855,19.9999462 C295.413309,20.004703 295.275889,19.6933937 295.145869,19.3646425 C293.816593,16.0084209 292.481504,12.6543134 291.151172,9.29862038 C291.081934,9.12367403 290.998953,8.93709982 291.00001,8.755811 C291.001067,8.61099136 291.081405,8.41173222 291.193455,8.33192285 C291.679182,7.98837261 292.596197,8.29756783 292.822412,8.86944685 C293.590907,10.8128841 294.351475,12.7594927 295.117328,14.703987 C295.31553,15.2076846 295.520603,15.7087394 295.784344,16.363599 C295.929163,16.0126492 296.022186,15.8128615 296.096181,15.6056743 C296.884761,13.3995532 297.669642,11.1918465 298.457164,8.98519685 C298.513718,8.82610666 298.557058,8.65750277 298.64321,8.51532583 C298.884752,8.1189217 299.394264,8.1215644 299.614136,8.53593884 C299.771112,8.83192059 299.866249,9.16120028 299.982528,9.47832359 C300.741509,11.5380394 301.498377,13.5988123 302.257359,15.6590567 C302.328183,15.8509163 302.409578,16.0390761 302.530613,16.3387577 C302.648477,16.0787166 302.729872,15.9222691 302.792768,15.758422 C303.659572,13.4909904 304.554388,11.2336011 305.372038,8.94819913 C305.634193,8.21617285 306.111464,8.14693426 306.845076,8.29545367 C307.294862,8.38636235 307.278478,8.74946853 307.14,9.10358955 C306.741482,10.1263122 306.341907,11.1490348 305.938103,12.1696433 C304.99889,14.5448969 304.05809,16.9201504 303.113592,19.2932898 C302.9841,19.6183411 302.905876,20.0216163 302.423848,19.9951893 C301.963491,19.970348 301.885796,19.5834576 301.763175,19.2488925 C300.998908,17.1680351 300.236226,15.0871777 299.47143,13.0063203 C299.379993,12.7579071 299.280099,12.512665 299.134751,12.1395166 Z M346.460647,13.8128706 C347.162547,14.23993 347.676815,14.8081092 347.909372,15.5919323 C348.472794,17.4925579 347.416774,19.2282795 345.429996,19.6257407 C344.93687,19.7240489 344.425773,19.7668606 343.922075,19.773203 C342.380856,19.7917019 340.839637,19.7837738 339.298946,19.7779599 C338.59916,19.7758457 338.424743,19.6082989 338.424214,18.9275409 C338.419986,15.6136024 338.4258,12.2991353 338.4184,8.98519685 C338.417343,8.57293656 338.506666,8.24629956 338.984994,8.25264203 C340.797353,8.27854043 342.61077,8.30073906 344.422073,8.37526304 C344.826934,8.39164774 345.243951,8.57029387 345.62027,8.74841145 C347.552608,9.66331218 348.031993,11.9360292 346.655149,13.573971 C346.602824,13.6368671 346.552084,13.7008203 346.460647,13.8128706 Z M340.198519,18.2446687 C340.825895,18.2446687 341.390903,18.2578822 341.955382,18.242026 C342.903581,18.2150705 343.856536,18.2177132 344.798392,18.1199335 C345.749234,18.0210968 346.224919,17.5057714 346.2894,16.6807223 C346.354939,15.8429882 345.92048,15.1986994 345.051563,14.9249163 C344.693742,14.8123375 344.308965,14.7436275 343.93476,14.7351708 C342.857598,14.7103295 341.780436,14.723543 340.703274,14.7288284 C340.542069,14.7298855 340.381393,14.7679402 340.198519,14.791196 L340.198519,18.2446687 L340.198519,18.2446687 Z M340.217546,9.90961127 L340.217546,13.1421548 C341.629274,13.1421548 342.997661,13.2024082 344.357591,13.1210132 C345.25135,13.0676308 345.591729,12.5919459 345.658325,11.6960725 C345.728092,10.7642586 345.241308,10.0258898 344.235499,9.93762383 C342.923665,9.82240237 341.59439,9.90961127 340.217546,9.90961127 Z M441.692774,15.5729049 C441.674804,15.8625442 441.652605,16.0681458 441.651548,16.2732189 C441.64732,17.1183524 441.65102,17.963486 441.648906,18.8091482 C441.646263,19.691808 441.018359,20.1093537 440.231365,19.7145352 C440.07016,19.6341973 439.940668,19.3604142 439.917941,19.1622121 C439.869844,18.745195 439.901556,18.3186641 439.901556,17.8958331 C439.901556,15.0010259 439.900499,12.1062187 439.902613,9.21141147 C439.903142,8.38636235 440.043733,8.24524248 440.851341,8.24365687 C442.161588,8.24207125 443.471836,8.22832924 444.781555,8.24841372 C446.017279,8.26744111 447.100784,8.67441602 447.937989,9.62102907 C449.354473,11.2230303 449.016737,13.7076913 447.229219,14.8704768 C447.071186,14.9735419 446.912624,15.0755499 446.712308,15.2050419 C446.802688,15.3599037 446.870869,15.5073661 446.966006,15.6347439 C447.72446,16.6505956 448.500883,17.6527052 449.238723,18.6833559 C449.390414,18.8953 449.535762,19.2821904 449.440625,19.4550226 C449.337032,19.643711 448.959126,19.7192921 448.6864,19.7705603 C448.17636,19.8672829 447.812197,19.6357829 447.510401,19.2108377 C446.74032,18.1257475 445.928485,17.0702554 445.153647,15.9883364 C444.933775,15.6812554 444.688004,15.554406 444.30957,15.5649768 C443.466022,15.5892896 442.621946,15.5729049 441.692774,15.5729049 Z M441.686432,14.0787256 C443.022578,14.0142439 444.329655,14.035914 445.610833,13.8625532 C446.585987,13.7304185 447.097084,13.0010349 447.13091,12.1046331 C447.170551,11.0597118 446.597086,10.2151067 445.538951,9.95665123 C444.278915,9.64798455 442.992451,9.85728593 441.686432,9.81764552 L441.686432,14.0787256 Z M406.091456,15.2383398 C406.948217,16.3831549 407.757938,17.4634883 408.565546,18.5459358 C408.678653,18.698155 408.798631,18.8498457 408.882669,19.017921 C409.031717,19.3154884 408.942394,19.5432886 408.638484,19.6923366 C408.137429,19.9381071 407.387961,19.7837738 407.044411,19.3265877 C406.244732,18.2636961 405.44241,17.201333 404.6755,16.1146572 C404.38956,15.7097965 404.07508,15.5364357 403.574554,15.5618056 C402.776988,15.6019745 401.975195,15.5723764 401.102577,15.5723764 C401.085664,15.8435168 401.060823,16.0660316 401.059766,16.2885465 C401.05448,17.2177177 401.067694,18.1474176 401.052366,19.0765888 C401.042324,19.6595672 400.873192,19.7811311 400.183977,19.780074 C399.486306,19.7784884 399.336729,19.6696094 399.335144,19.0676037 C399.328801,15.7304095 399.328801,12.3926867 399.335144,9.05496398 C399.336729,8.41437491 399.523303,8.24735664 400.184506,8.24471394 C401.515366,8.23995709 402.846227,8.23202901 404.177088,8.24735664 C405.220952,8.25951303 406.173908,8.55285208 406.982572,9.24470942 C408.79546,10.7964994 408.6184,13.587713 406.622637,14.88739 C406.467247,14.9888695 406.312385,15.0924631 406.091456,15.2383398 Z M401.089364,13.9629756 C402.318217,13.9629756 403.494216,13.9687895 404.670215,13.9571617 C404.854675,13.9555761 405.043363,13.8889802 405.222538,13.8287267 C406.146952,13.519003 406.615238,12.8171034 406.553927,11.8477632 C406.496316,10.9392049 405.914395,10.1865656 404.946112,9.95612269 C403.683961,9.6553841 402.398026,9.84565808 401.089364,9.83191607 L401.089364,13.9629756 Z M331.212302,15.2304117 C332.054264,16.3604278 332.861871,17.4175054 333.635124,18.4988959 C333.86451,18.819719 334.384592,19.1479416 333.881423,19.6225695 C333.542101,19.9423354 332.573289,19.8128434 332.257223,19.4359952 C332.02678,19.161155 331.821178,18.8651733 331.606063,18.5776482 C330.962303,17.7134872 330.310086,16.8556686 329.681653,15.9804083 C329.479223,15.6981686 329.26305,15.5554631 328.900473,15.5649768 C328.01887,15.5887611 327.135682,15.5729049 326.164756,15.5729049 L326.164756,17.5972086 C326.164227,18.1040774 326.159999,18.6114747 326.16317,19.1183434 C326.165284,19.5570306 325.971839,19.7948731 325.514124,19.7795455 C325.387275,19.7753172 325.259897,19.7843023 325.133577,19.7779599 C324.592881,19.7531185 324.475546,19.6405398 324.471317,19.0845169 C324.463389,18.0279678 324.468675,16.9714187 324.468675,15.9148695 C324.468675,13.6537804 324.467618,11.3926912 324.469203,9.13160211 C324.47026,8.31712376 324.537385,8.24577102 325.322793,8.24418541 C326.675324,8.24101417 328.028912,8.20665915 329.379858,8.2536991 C331.068539,8.31289545 332.412613,8.99893886 333.100242,10.6305382 C333.783115,12.2510383 333.225506,13.9465909 331.745597,14.8937325 C331.58915,14.9936263 331.431645,15.0924631 331.212302,15.2304117 Z M326.230823,9.87631333 L326.230823,14.0242861 C327.202806,14.0242861 328.109779,14.0295715 329.016223,14.0216434 C329.290006,14.0190007 329.565375,13.9973306 329.835987,13.9566331 C330.665793,13.8308409 331.312195,13.4508215 331.583864,12.6056879 C331.989254,11.3467084 331.18746,10.0539024 329.768862,9.90115465 C328.623518,9.7780051 327.454919,9.87631333 326.230823,9.87631333 Z M418.516875,13.0861297 C419.484101,14.342995 420.410101,15.5470065 421.337158,16.7504894 C421.853012,17.4201481 422.387365,18.0765934 422.875735,18.7652795 C423.015269,18.9624244 423.146875,19.3207738 423.058081,19.480921 C422.961358,19.6558674 422.611465,19.7282772 422.358824,19.7710889 C421.752061,19.8746825 421.329759,19.5929713 420.962953,19.1077726 C419.918031,17.7261721 418.838227,16.37047 417.771107,15.0057827 C417.629458,14.825551 417.48041,14.6511332 417.28168,14.4095909 C416.542782,15.2182553 415.827141,15.9835796 415.138983,16.7721595 C415.032218,16.8947805 415.021648,17.125752 415.016891,17.3080979 C415.001035,17.8995328 415.028519,18.4925534 415.001035,19.0829313 C414.973551,19.6717236 414.780634,19.7959302 414.048079,19.7795455 C413.423346,19.7652749 413.266899,19.6357829 413.26637,19.0565044 C413.261085,15.6960544 413.261085,12.3361331 413.265842,8.97568315 C413.266899,8.35993541 413.406433,8.24947079 414.093533,8.24365687 C414.81816,8.2373144 414.997863,8.35940687 415.004206,8.97462608 C415.020062,10.5385725 415.010548,12.1025189 415.011077,13.6664653 L415.011077,14.3345384 C415.059702,14.3551514 415.1078,14.3757644 415.156425,14.3963774 C415.304945,14.2304163 415.452407,14.0628694 415.601983,13.8979653 C417.134746,12.2071696 418.680194,10.5280017 420.192343,8.8197642 C420.581348,8.38001989 421.007879,8.14799134 421.573415,8.25422764 C421.816543,8.30021052 422.126795,8.40750391 422.237788,8.58932126 C422.317069,8.71934182 422.170664,9.06870599 422.026901,9.23730988 C421.465593,9.89586927 420.865173,10.5216592 420.280081,11.1601342 C419.710316,11.7811673 419.141608,12.403786 418.516875,13.0861297 Z M428.69389,9.81236013 L428.69389,13.0845441 C428.954988,13.1025144 429.198645,13.1336982 429.442301,13.1347552 C431.048002,13.1389836 432.654232,13.1326411 434.259933,13.1400406 C434.893651,13.1426833 435.117751,13.3794687 435.091324,13.9719608 C435.067012,14.5068421 434.86511,14.7018729 434.285303,14.703987 C432.65846,14.709801 431.031618,14.7061012 429.404246,14.7061012 L428.673277,14.7061012 L428.673277,18.1611596 C428.925919,18.1780728 429.172218,18.2081995 429.418517,18.2087281 C431.108784,18.2129564 432.799051,18.2050283 434.489319,18.2150705 C435.166377,18.2187703 435.32071,18.3916025 435.305911,19.0422338 C435.293226,19.5861003 435.132022,19.7510044 434.585513,19.7790169 C434.54323,19.7811311 434.500946,19.7795455 434.458663,19.7795455 C432.219244,19.7795455 429.979297,19.7832453 427.739349,19.7774313 C427.08079,19.7758457 426.947069,19.6468822 426.946012,19.0052361 C426.941255,15.6664563 426.941784,12.3276764 426.945484,8.98942516 C426.946012,8.32769454 427.024765,8.2468281 427.666411,8.24524248 C429.9275,8.24048563 432.188589,8.23995709 434.44915,8.24577102 C435.08921,8.24735664 435.195446,8.36363518 435.20126,8.97726877 C435.207603,9.64639893 435.08921,9.80178935 434.466591,9.8065462 C432.818607,9.81923113 431.170095,9.81183159 429.522111,9.81236013 L428.69389,9.81236013 Z M394.92343,19.780074 C394.459901,19.8577692 394.153349,19.609356 393.94669,19.1452989 C393.714662,18.6252167 393.430308,18.1283902 393.191408,17.6114792 C393.052931,17.3112691 392.873228,17.1606356 392.51805,17.1638068 C390.743745,17.1786059 388.96944,17.1780773 387.195135,17.1638068 C386.844714,17.1611641 386.651797,17.303341 386.512263,17.6040796 C386.289748,18.0824073 386.047149,18.5512212 385.809835,19.0226779 C385.447257,19.7436048 385.263326,19.8456128 384.466289,19.7774313 C383.888068,19.7282772 383.716821,19.4550226 383.962063,18.935469 C384.214176,18.4011162 384.482674,17.874163 384.750643,17.3477383 C386.206767,14.4883432 387.661835,11.6289481 389.127473,8.77430986 C389.292377,8.45348678 389.367958,8.000529 389.858971,8.00000046 C390.35104,7.99947192 390.421865,8.45137263 390.587297,8.7748384 C392.194584,11.9122449 393.794471,15.0533512 395.396472,18.1934004 C395.482624,18.3630614 395.568776,18.5321938 395.651228,18.7034404 C396.043404,19.5121048 395.877971,19.7779599 394.92343,19.780074 Z M392.219425,15.6395008 C391.411818,14.0052587 390.659179,12.4830669 389.8558,10.8583385 C389.038679,12.5036799 388.277583,14.0348569 387.480018,15.6395008 L392.219425,15.6395008 Z M314.826012,17.1701493 C313.959208,17.1706778 313.092405,17.1844198 312.22613,17.1638068 C311.856681,17.1553502 311.645265,17.288542 311.499389,17.6283924 C311.266832,18.1717303 311.002034,18.7013263 310.734593,19.228808 C310.467681,19.7552327 309.582907,19.9920181 309.090837,19.677009 C308.755744,19.4618936 308.851409,19.1933959 308.997286,18.9053423 C310.027408,16.8704677 311.048017,14.8303078 312.07761,12.7949048 C312.792723,11.3815919 313.506251,9.96722201 314.250433,8.56923679 C314.374111,8.3366797 314.641552,8.0480975 314.856667,8.0359411 C315.052227,8.02537033 315.345037,8.31500961 315.461316,8.54122423 C317.222407,11.9576993 318.963414,15.3847451 320.703364,18.8123194 C321.049028,19.493606 320.86404,19.738848 320.076517,19.7880021 C319.517323,19.8223571 319.148931,19.6405398 318.926416,19.1135866 C318.721872,18.6273308 318.449674,18.1701447 318.24513,17.6844175 C318.083926,17.3017554 317.853483,17.1442509 317.424838,17.160107 C316.55962,17.1928764 315.692287,17.1696207 314.826012,17.1701493 Z M314.875166,10.8572814 C314.055403,12.497866 313.292721,14.0242861 312.491456,15.6278729 L317.231392,15.6278729 C316.441227,14.0279859 315.689645,12.5068511 314.875166,10.8572814 Z M375.094767,15.5940464 L375.094767,18.3857886 C375.094767,18.5337794 375.095296,18.6817703 375.094767,18.8297612 C375.091067,19.7023788 374.539273,20.0797555 373.737479,19.7272201 C373.594245,19.664324 373.475853,19.466122 373.420356,19.3049176 C373.360631,19.1326139 373.380716,18.929655 373.380716,18.7399096 C373.378601,15.5702622 373.377544,12.4000863 373.380187,9.22991033 C373.381244,8.32399477 373.462639,8.24471394 374.346885,8.24365687 C375.657132,8.24207125 376.968966,8.20665915 378.277628,8.2536991 C379.844217,8.30972422 381.178249,8.86363292 381.934588,10.3430131 C382.832576,12.0982906 382.164502,14.2008181 380.379098,15.023753 C379.671385,15.3498615 378.849507,15.4957382 378.064627,15.5723764 C377.124356,15.6638136 376.167701,15.5940464 375.094767,15.5940464 Z M375.131765,13.9582188 C376.452055,13.9582188 377.706277,14.0834825 378.923502,13.9249208 C380.277619,13.7483888 380.955206,12.3535748 380.42191,11.1363499 C379.994322,10.1596101 379.133332,9.8541147 378.15395,9.82028821 C377.311987,9.79121858 376.467382,9.81024597 375.624363,9.81711698 C375.463687,9.81817406 375.30354,9.86257132 375.131765,9.88899826 L375.131765,13.9582188 Z M355.901936,13.6817929 C356.655104,12.5295783 357.357004,11.4561159 358.059432,10.3831821 C358.429409,9.81764552 358.793044,9.24788065 359.17412,8.69027218 C359.466402,8.2632128 360.273481,8.05232581 360.691027,8.33086577 C360.835846,8.42758838 360.934155,8.70665689 360.921998,8.89375963 C360.909842,9.08297654 360.743881,9.26796513 360.629716,9.44502564 C359.450017,11.2721844 358.275076,13.1030429 357.077935,14.9191024 C356.833222,15.2906652 356.718,15.6595853 356.7291,16.1014437 C356.75077,16.9671903 356.735971,17.833994 356.734913,18.7002692 C356.734385,19.7023788 356.668846,19.7837738 355.872338,19.7795455 C355.123399,19.7763743 355.039889,19.6717236 355.039361,18.7272247 C355.038832,17.8186664 355.068959,16.9085225 355.02509,16.002607 C355.007649,15.6453147 354.898241,15.2515533 354.709024,14.9513432 C353.538839,13.0924721 352.333242,11.2563282 351.140858,9.41172769 C351.038322,9.2526375 350.924686,9.09407585 350.858619,8.9191295 C350.739169,8.6020062 350.876589,8.38636235 351.186313,8.27906897 C351.80576,8.06501074 352.387153,8.27166942 352.76083,8.84619114 C353.65776,10.2277917 354.549934,11.6125634 355.445279,12.995221 C355.570542,13.1891947 355.700563,13.3799973 355.901936,13.6817929 Z" id="logo-warbyparker"></path>
                </g>
            </g>
        </g>
    </g>
</svg>