<?xml version="1.0" encoding="UTF-8" standalone="no"?>
<svg width="123px" height="24px" viewBox="0 0 123 24" version="1.1" xmlns="http://www.w3.org/2000/svg" xmlns:xlink="http://www.w3.org/1999/xlink" xmlns:sketch="http://www.bohemiancoding.com/sketch/ns">
    <!-- Generator: Sketch 3.3.3 (12072) - http://www.bohemiancoding.com/sketch -->
    <title>logo-saks</title>
    <desc>Created with Sketch.</desc>
    <defs></defs>
    <g id="Design" stroke="none" stroke-width="1" fill="none" fill-rule="evenodd" sketch:type="MSPage">
        <g id="Artboard" sketch:type="MSArtboardGroup" transform="translate(-727.000000, -2961.000000)" fill="#B4BBC2">
            <g id="Logos" sketch:type="MSLayerGroup" transform="translate(305.000000, 2960.000000)">
                <g id="Row" sketch:type="MSShapeGroup">
                    <path d="M478.564892,20.9733305 L478.977898,20.3860467 C479.900585,21.4626241 483.641971,22.69375 484.599513,23.0363871 C487.320223,24.0222085 491.096464,23.8472729 493.221998,23.0008738 C494.613591,22.4346348 495.976905,21.4139578 496.963384,20.3511911 C498.263564,18.9589403 499.529545,16.9037756 500.4667,15.0715552 C501.214451,13.5747376 501.571557,12.6237718 502.585,11.1276119 C503.200562,9.91818857 504.627011,8.4910822 505.746336,7.51249498 C506.445421,6.89693205 507.452287,6.28136912 508.30592,5.74998573 C509.067482,5.33106096 510.221663,4.82729899 511.032549,4.60369707 C510.025682,4.38667167 508.913592,3.98089996 507.599601,3.31667072 C506.836724,2.91813318 505.494455,2.00202297 504.424454,1.77842105 C503.850981,1.6455752 502.794791,1.58244054 502.088472,1.82708735 C501.760303,1.93954596 501.424243,2.00925715 500.774482,2.36570491 C500.193774,2.70110779 499.767615,3.05821321 499.361844,3.59617312 C498.927793,4.14925905 498.557534,4.84110969 498.424689,5.72236432 C498.249753,6.69437501 498.63448,7.59601687 499.123773,8.06492325 C499.669625,8.58973011 500.291765,8.75019737 500.788292,8.84752997 L500.676491,9.44928219 C500.137874,9.34471541 499.557167,9.10664514 499.054062,8.79886367 C498.794947,8.63839641 498.459544,8.2951017 498.180042,7.82685297 C497.935395,7.44936032 497.795315,6.94559835 497.77427,6.43525985 C497.739414,6.0229116 497.85845,4.92528924 498.082051,4.48466193 C498.557534,3.41466098 499.123773,2.62482008 500.012262,2.05792345 C500.711347,1.58967472 501.00466,1.49168447 501.955626,1.19771371 C502.732314,0.953066903 503.850981,0.939256197 504.585579,1.1352367 C505.850903,1.44236052 507.403621,2.51236147 508.340776,2.96022296 C509.767225,3.64549708 511.018738,4.00260249 511.843434,4.14202487 C512.39652,4.21173605 513.557277,4.26106001 514.403676,4.40114003 C514.011715,4.74377709 512.941714,5.8269311 512.326151,6.36554866 C511.388996,7.19090281 510.431454,8.14844514 509.683045,9.33090471 C508.781403,10.7290744 508.081661,12.0575328 507.431242,14.3231464 L510.221663,14.308678 L511.312051,12.0088665 L512.990381,11.8970656 L510.060538,18.6373481 C509.815891,19.2391004 509.927692,19.7356281 510.333464,19.9454194 C510.753046,20.1413999 511.109494,20.1762555 511.5225,20.0151305 C512.10255,19.8053393 512.816103,19.2318662 513.137695,18.8122838 C514.03276,17.7633277 514.515477,16.7216058 514.746313,15.5398039 C514.389208,15.0360419 513.984094,14.2948673 513.865059,13.5333055 C513.801924,13.1900108 513.815735,12.7217621 513.899914,12.4146382 C514.095895,11.6945085 514.564144,11.309124 515.067906,11.3446373 C515.598631,11.3933036 515.864981,11.7148958 515.955737,12.4146382 C516.039916,12.9802196 516.004403,13.5471162 515.801846,14.2738224 C516.011637,14.3856234 516.151717,14.4842713 516.382553,14.5539825 C516.788325,13.966041 517.997748,12.316648 519.018425,11.7990753 C520.144327,11.1973231 521.109761,11.3446373 521.612865,11.7431748 C522.430985,12.3653143 522.165294,13.5260713 521.305084,14.3928576 C520.7737,14.9597542 520.13775,15.4141922 519.529422,15.6022809 C519.004615,15.7495951 518.08127,15.8475854 517.480176,15.7002712 C517.284195,16.0080526 516.983648,16.7354165 516.913937,17.4562039 C516.788325,18.5400155 517.123728,19.5468818 517.857668,19.7001149 C518.766544,19.8540056 520.158795,18.7281042 520.550098,18.1131989 L523.787723,11.7918411 L525.794879,11.7990753 L525.571277,12.2469368 C526.564332,11.5892841 527.577775,11.2953133 528.291328,11.4071143 C529.186394,11.5682392 529.221249,12.2956031 528.990413,12.8197523 L526.074381,19.0924438 C525.585088,20.1900662 527.123337,20.77735 527.843467,19.2811901 L531.486863,11.7642197 L533.270417,11.7642197 L530.074225,18.5045023 C529.766444,19.1549208 530.13736,19.868474 530.77331,19.980275 C531.710465,20.1413999 532.326028,19.7356281 532.68971,18.9872194 L536.053603,11.8615523 L538.165326,11.8615523 L534.696866,19.1549208 C534.416706,19.7356281 534.920468,20.2532008 535.34005,20.2880564 C536.458717,20.3991997 537.032191,19.8053393 537.724041,19.1549208 C537.255793,17.9034077 537.451773,16.7426507 537.969346,15.7147395 C539.151148,13.2669561 540.850522,12.0364879 542.731409,11.5051045 C543.479818,11.2742684 544.095381,11.470249 544.486684,11.812886 C544.871411,12.1482889 545.137103,12.659285 545.004257,13.3721806 C544.934545,13.8338528 544.472873,14.3718127 543.808644,14.8545298 C543.060235,15.3576341 541.564075,15.882441 540.046213,16.2040331 C539.752242,16.7216058 539.395794,17.7567512 539.381984,18.4209804 C539.360939,18.8616077 539.43065,19.2180555 539.626631,19.5396476 C539.976502,20.0920759 540.710442,20.0078964 541.158304,19.7987628 C541.906712,19.4416574 542.346682,18.9734087 542.654464,18.4209804 L543.03919,18.5676369 C542.766265,19.1200652 541.955379,19.9033296 541.500941,20.1900662 C540.074492,21.0430417 538.535585,20.7424944 537.93449,19.6376379 C537.465584,20.1131208 536.724409,20.9522857 535.018458,20.8681061 C534.060258,20.8260163 533.353939,20.3715783 533.02577,19.7356281 C532.375352,20.4695686 531.228405,20.8681061 529.983469,20.6162251 C529.382374,20.5116583 528.892423,20.0289413 528.717487,19.364712 C528.487309,19.8960954 528.116393,20.4485237 527.465974,20.8056291 C527.074013,20.9943754 526.235506,21.0778973 525.542998,20.8404847 C524.794589,20.5609823 524.515087,19.6586828 524.892579,18.8616077 L527.563965,13.0716333 C527.934223,12.267324 527.563965,11.8970656 526.626809,12.2811347 C525.990202,12.5402499 525.081326,13.288001 524.647933,13.8404293 L521.305084,20.6445042 L519.445242,20.6583149 L519.948346,19.6514486 C519.382107,20.1552106 518.794823,20.5327032 518.053649,20.6721256 C517.144773,20.8260163 515.941926,20.6306935 515.438822,19.4488916 C514.885736,18.1131989 515.620334,16.0573766 515.928115,15.2109775 L515.585478,15.0853659 C515.445398,15.5674253 515.263228,16.1270878 515.179707,16.4348692 C514.844304,17.5324916 514.452343,18.3302243 513.466521,19.414036 C512.941714,20.0078964 512.312341,20.5116583 511.585634,20.7707735 C510.997693,20.9799071 510.088817,21.0081861 509.410119,20.5188925 C508.620278,19.9940857 508.242786,18.9240847 508.683413,17.8613179 L509.948737,14.861764 L507.319441,14.861764 C506.865003,16.1829882 506.724923,18.1204331 507.417432,19.9454194 C507.948815,21.3159676 508.991195,22.0288631 509.865215,22.3366446 C510.46631,22.5464358 511.158818,22.5951021 511.759912,22.3715002 C512.445187,22.099232 512.87858,21.5744251 513.039705,20.889151 L513.578322,20.8404847 C513.417197,21.7704056 513.07456,22.504346 512.361007,22.9587841 C511.759912,23.3297002 511.179205,23.5256807 510.046727,23.4697802 C508.291452,23.4204563 506.396755,22.2596992 505.4596,20.3991997 C504.648056,18.7846623 504.452733,16.1902224 504.872316,14.861764 L501.375576,14.861764 C500.543646,16.6584711 499.067873,19.4002253 497.173175,21.3508232 C496.368866,22.0919978 494.795103,23.2455206 493.319331,23.7492826 C490.690693,24.6371138 487.886462,24.5884475 484.599513,23.7492826 C483.823483,23.5533021 479.530326,22.161709 478.564892,20.9733305 L478.564892,20.9733305 Z M501.6268,14.3067051 L505.004504,14.3139393 C505.535887,12.377152 506.298107,10.8178575 507.283928,9.2934185 C508.032337,8.09780589 508.990537,6.83182443 510.136826,5.71315718 C508.668287,6.29386452 506.626933,7.54471996 505.437897,8.69166628 C503.724712,10.3772302 502.36074,12.6500779 501.6268,14.3067051 L501.6268,14.3067051 Z M544.442621,12.990742 C544.498522,12.536304 544.029615,11.6201938 542.910948,12.0608211 C542.036928,12.4172689 541.064917,14.0048425 540.449354,15.3964356 C541.113583,15.2635898 541.742957,15.0393302 542.785336,14.6131712 C543.708023,14.2422551 544.344631,13.7391508 544.442621,12.990742 L544.442621,12.990742 Z M521.528028,12.9414181 C521.549073,12.3192786 521.150535,12.032542 520.611918,12.2074776 C520.143669,12.3541342 519.528106,12.8434278 519.171001,13.2215781 C518.752076,13.6898268 518.171369,14.4382356 517.814921,15.1373204 C518.814553,15.4589126 519.982544,15.0393302 520.794088,14.213976 C521.11568,13.871339 521.506983,13.4030903 521.528028,12.9414181 Z M475.465375,11.2446741 C475.381853,11.5728428 475.549555,11.8806242 475.696211,11.9437589 C476.263108,12.2094506 476.878013,11.9437589 477.158173,11.7056886 C477.836213,11.1111706 477.395586,10.3634195 476.717546,10.3634195 C476.123028,10.3634195 475.612032,10.6567326 475.465375,11.2446741 Z M432.342429,7.03766973 C432.349664,7.4927654 432.573266,7.85644734 432.747544,8.19185022 C434.291054,8.37007411 435.53073,9.19805886 436.286373,10.555454 C437.657579,10.917163 438.874894,11.0131803 440.286217,10.869812 C442.112518,7.09685847 444.807579,3.61984862 448.971178,2.61166702 C449.880712,2.39464163 450.579797,2.24798508 451.132225,2.6537568 C451.523528,2.96153826 451.775409,3.77965823 451.328205,4.76547963 C450.235187,7.14420946 445.94466,9.67683003 443.384418,10.9119018 L442.390705,13.6247192 C440.544674,18.0711092 438.151476,22.9633876 433.25854,24.5266281 C430.906116,25.2625415 428.664836,25.1415334 426.405799,24.155712 C423.185273,22.6595521 421.468142,19.2917126 422.14684,15.8068109 C422.786078,11.0276487 427.067397,7.63021481 431.866947,8.09385997 C431.370419,6.78710405 431.530886,5.4500961 432.321385,4.29657325 C433.789923,1.95664493 437.042673,1.62650327 439.412196,2.40187581 C440.823519,2.9095837 441.858006,3.81648678 442.545254,5.15020646 L442.188148,5.52769912 C442.188148,5.42970886 441.748178,4.82861429 441.475253,4.53464353 C440.274379,3.11608665 438.619067,2.44001967 436.76909,2.61166702 C435.428794,2.62810834 434.290397,3.11214073 433.349296,4.06639481 C432.54959,4.88056886 432.201692,5.90519177 432.342429,7.03766973 Z M437.963387,16.1520786 C438.564482,15.0748434 439.606861,12.5994386 440.012633,11.59323 C439.235945,11.6912203 437.669416,11.6418963 436.627695,11.4321051 C436.74673,12.1311899 436.76054,12.8092299 436.627695,14.0048425 C436.529704,14.9768532 435.935844,16.4171126 434.977644,17.5785273 C434.005633,18.7458608 431.879442,20.36829 431.334248,20.6129369 L431.082367,20.2216335 C431.74002,19.8020511 433.306548,18.4874033 434.313415,17.340457 C435.285425,16.270456 435.865475,15.0465644 436.0266,13.7181059 C436.123933,12.7954192 436.096311,11.8510299 435.963465,11.2499353 C434.117434,10.63503 432.921822,9.92147684 432.159602,8.71205351 C431.152736,8.56473931 429.760485,8.64168467 428.606962,9.0126008 C427.404115,9.37562509 426.033567,10.1174573 425.103646,11.1243236 C424.006024,12.3061255 423.18067,13.9627527 422.90051,15.4944259 C422.690718,16.5571926 422.655863,17.3549254 422.921554,18.7182394 C423.145814,19.8020511 423.614063,20.8371964 424.006024,21.32649 C424.782054,22.3123114 425.627795,22.9975856 426.956911,23.5638245 C427.711897,23.8854167 428.495161,23.9485514 429.515838,23.8854167 C432.012288,23.6966704 433.403881,22.2143212 434.522548,21.0818432 C435.900331,19.6757818 436.970332,17.9908755 437.963387,16.1520786 L437.963387,16.1520786 Z M443.633669,10.0148635 C445.375133,9.1822752 447.088318,8.06360795 448.277355,7.22444309 C449.081006,6.67201482 449.878081,5.9867407 450.312132,5.39222266 C450.836281,4.67932713 451.094739,3.96577394 450.962551,3.39953496 C450.884947,3.05689791 450.479833,2.78397203 449.976071,2.93128624 C449.213852,3.15488816 448.339832,3.79083832 447.689413,4.37154566 C446.976517,5.00026165 446.235343,5.68553577 445.612546,6.48984502 C444.822047,7.51117967 443.88555,9.15465378 443.633669,10.0148635 L443.633669,10.0148635 Z M433.719554,9.11650993 L433.363106,9.01194315 C433.797815,9.45125515 434.234496,9.75574835 434.796789,10.0122329 C434.838879,10.0122329 435.09076,10.1865109 435.195327,10.1937451 C434.795474,9.68011829 434.330514,9.3407695 433.719554,9.11650993 Z M463.71904,12.2896842 C463.382979,13.0696603 463.190945,13.7694028 463.08309,14.6111983 C462.949586,15.7443339 462.740453,17.2404938 462.286015,18.0934693 C461.663218,19.4285043 460.448533,20.245309 458.978022,20.3169931 C458.063884,20.35711 457.273386,19.7652225 457.055045,18.8767337 C456.693994,19.599494 455.900865,20.6497654 454.893998,20.247282 C454.104157,19.9395005 453.908177,19.1845152 453.712196,18.1631805 C453.698386,17.7580665 453.502405,16.3664733 453.376794,16.1639163 C453.270254,15.9830618 453.136093,15.8554772 452.949977,15.7581446 L450.761309,20.1703366 L448.670631,20.1565259 L448.984989,19.5061074 C448.174103,20.0374907 446.92259,20.4781181 446.02029,19.8625551 C445.656608,19.6179083 445.565852,19.1845152 445.593474,18.7300772 C444.876632,19.6948537 443.321284,20.8799439 441.964546,20.3663171 C441.264804,20.0723463 440.929401,19.2825054 441.020157,18.1631805 C441.167471,16.2198168 443.118069,13.6253769 444.082846,12.8631574 L444.951605,12.174595 L445.803265,11.6392657 C447.440163,10.8421906 448.46084,11.2341516 448.628541,12.219973 L449.111258,11.2755838 L450.92901,11.2828179 L447.607864,18.6458976 C447.41846,19.0865249 447.458577,19.4409997 448.061644,19.2476498 C448.699568,19.0608765 449.190834,18.7281042 449.600552,18.2052703 L455.754208,6.12945134 L457.768598,6.15707276 L454.978178,11.8635253 C455.771965,11.309124 458.120443,9.90700848 458.935932,11.5767887 C459.406154,12.6171953 458.523584,13.6694396 457.704806,14.1429495 L456.192205,15.1241674 L454.705252,15.8068109 C455.163636,16.4394728 455.6332,18.1855407 455.614786,19.2825054 C455.614786,19.429162 455.761442,19.4429727 455.985044,19.1845152 C456.666372,18.4328181 457.105684,17.6692833 457.411493,16.7025339 L458.498593,14.6749906 L459.788907,12.7651671 C460.670162,11.6721483 461.713199,10.9763518 463.062045,10.5837331 C461.832234,9.72746929 461.862486,7.63416073 462.208412,6.35305326 C463.228431,3.46069667 465.67753,1.56271096 468.732984,1.29767692 L470.363963,1.23585757 L471.78252,1.31148763 C473.937648,1.68963793 475.686346,2.48802832 477.38309,3.8704143 C477.515936,3.82898218 478.508992,3.26208555 479.215311,3.10819482 C480.126817,2.87407045 481.597986,2.94115103 482.068866,4.00326015 C482.245774,4.37812219 482.190532,4.79310105 481.921552,5.10811669 C481.621004,5.45798793 481.096855,5.59083378 480.551003,5.61187866 L479.93281,5.61450927 L479.348157,5.55597818 C478.969349,5.48297873 478.656964,5.38170022 478.306435,5.21991765 C476.253901,7.49342305 474.822848,9.69458665 473.579227,12.4928989 C473.579227,12.4928989 474.528878,12.4363408 474.649228,12.471854 C474.681453,12.4810612 474.459166,12.9789043 474.418392,12.9887691 C474.267789,13.0262553 473.447696,12.9519405 473.411526,12.9887691 C473.304986,13.0966241 471.60035,16.7512002 471.60035,16.7512002 C470.99531,18.124379 470.325819,19.2173978 469.376169,20.3801278 C470.150226,21.9624402 471.934438,22.7141372 473.607506,22.1636819 C474.412473,21.8065765 474.985946,21.2469141 475.362124,20.4504966 C473.851495,21.1831218 471.421469,20.809575 472.446749,18.4571513 L475.299647,12.4928989 L476.851707,12.4928989 L473.998809,18.4992411 C473.712073,19.114804 473.767973,19.7507542 474.243456,19.9118791 C475.06881,20.1913815 475.942831,19.6179083 476.166433,19.1634703 L479.05024,13.1209572 C479.098249,13.020994 479.091014,13.0104716 478.980529,13.0144175 C478.583306,13.0302012 477.881591,13.0617685 477.788862,13.0236246 C477.757295,13.0111292 478.021671,12.5099979 478.068364,12.4928989 C478.174904,12.4534397 479.246878,12.5323581 479.362625,12.4928989 C479.42839,12.4705387 479.907161,11.4294745 480.405662,10.6376606 C480.823272,9.99579159 481.192215,9.46440821 481.649283,8.84950293 C482.352972,7.90642895 483.14084,7.24811859 484.194399,6.72396939 C486.088439,5.75853522 488.246855,6.53390775 488.390224,8.67456731 L486.886172,8.67456731 C487.130819,7.89130294 486.99863,7.19945229 486.383068,7.08765133 C485.278211,6.95414783 483.949095,8.05966203 482.684429,9.83532433 C482.033353,10.7303897 481.166566,12.4369984 481.166566,12.4928989 C481.166566,12.4928989 484.135211,12.5553759 484.291732,12.5067096 C484.354209,12.4876377 485.32885,10.0155212 485.474191,9.80770292 C485.505101,9.76298253 487.397826,9.76298253 487.403745,9.80770292 C487.41624,9.90174726 486.156177,12.521178 486.200898,12.5415652 C486.291654,12.5829973 487.670752,12.5007907 487.690481,12.5415652 C487.708895,12.5797091 487.479375,13.0387507 487.432024,13.0591379 C487.334691,13.0999124 485.983215,13.0177058 485.92863,13.0591379 C485.84445,13.1222725 483.15202,18.9674898 483.15202,18.9674898 C482.949463,19.3804957 483.305911,19.631719 483.872807,19.631719 C484.733017,19.631719 485.620848,18.8135991 485.963485,18.1283249 L491.487768,6.61151077 L493.494924,6.61151077 L490.550613,12.8421125 C491.880386,12.112118 494.572817,12.0443798 494.466935,14.2685612 C494.326855,16.429608 491.291787,17.9323444 490.648603,19.3594508 C490.194823,20.3492181 490.565081,21.6073077 491.956017,21.2265268 C493.060873,20.9187454 493.592256,19.9888244 493.998028,19.226605 L494.536646,19.5409629 C494.023019,20.5517752 493.300259,21.2679589 492.284843,21.7717209 C491.515389,22.0656917 489.914005,21.8065765 489.508891,20.8207551 C489.112984,19.7691684 489.264902,18.6879874 489.93505,17.7863455 C490.648603,16.6532099 492.117141,15.4082734 492.76756,14.5276764 C493.284475,13.8213574 493.187142,13.1012277 492.58539,12.9401028 C492.005341,12.7934462 491.145131,13.0236246 490.221786,13.5905213 L486.949307,20.5484869 L484.733017,20.5484869 L485.089465,19.8908342 C484.481136,20.1848049 483.138209,20.8838898 481.684139,20.3801278 C481.131053,20.1848049 480.921919,19.6179083 481.243512,18.9188235 L484.018806,13.0236246 L480.949541,13.0236246 L477.431757,20.3452722 C476.023064,23.2876104 470.743429,24.216216 468.971055,20.8838898 C466.721225,23.3119436 463.257368,23.9242182 459.579774,23.6532653 C456.924172,23.3592946 454.740765,22.4122747 452.712564,20.6740986 L453.439928,20.3169931 C455.352382,21.7197664 457.342439,22.4181935 459.711962,22.5201297 C464.433909,22.7601729 467.491994,20.0539321 469.236746,16.0586919 C469.236746,16.0586919 470.715807,13.0939935 470.712519,12.9887691 C470.710546,12.9466793 469.085486,13.0177058 469.040766,12.9749583 C469.015775,12.9506252 469.282124,12.4817188 469.334736,12.4573857 C469.424835,12.4166112 470.738825,12.5119708 470.886797,12.471854 C470.952562,12.4540974 471.42673,11.3617363 472.38756,9.67748768 C472.767026,9.02378089 473.100456,8.4785868 473.509516,7.84263664 C474.327636,6.58388936 476.187478,4.58396749 476.803041,4.19924065 L475.585725,3.41203037 L474.432203,2.77279194 C471.770024,1.52785537 469.016433,1.48971151 466.320714,2.66099098 L464.712096,3.66062309 C463.325764,4.66354346 462.184736,7.08896664 462.810164,8.93302482 C463.033766,9.63934383 463.208702,9.89845899 463.523717,10.1431058 L463.915021,10.4370766 C464.491782,10.337771 464.989625,10.3147532 465.572305,10.3594735 L465.276362,10.5436163 L465.019877,10.7303897 C465.284253,10.7566958 465.511801,10.7376238 465.768286,10.667255 C467.159879,10.3739419 468.194367,9.30394095 468.921731,8.59104541 L469.362358,8.84950293 C468.473211,10.0806288 467.344679,10.8619202 465.880087,11.2624307 C465.38882,11.3827811 464.948193,11.3893577 464.453638,11.2828179 C464.14783,11.5991489 463.926858,11.9023268 463.71904,12.2896842 Z M463.632888,11.0105497 C462.31824,11.4163214 461.178528,12.3600531 460.472209,13.1992179 C460.14404,13.5911789 459.542288,14.3185428 459.269362,14.7098462 C459.381163,14.7585125 459.563333,14.8078364 459.654089,14.9058267 C459.822448,15.0873388 459.86388,15.3602647 459.7238,15.7305232 C459.611999,16.0244939 459.332496,16.3322754 459.136516,16.4440764 C458.731402,16.6538676 458.248685,16.7512002 457.975759,16.8143348 C457.906048,16.9123251 457.744923,17.4298978 457.682446,17.7863455 C457.598266,18.2407835 457.598266,18.5557992 457.731112,18.9260577 C457.871192,19.2831631 458.234874,19.5909446 458.618943,19.6258001 C459.688944,19.7652225 460.05986,18.0658479 460.192706,17.5975992 C460.374218,16.884046 460.745134,15.4575973 460.843125,15.1360051 C461.052916,14.5138657 461.290329,14.0804725 461.569831,13.5556657 C462.108449,12.5843126 462.786488,11.8286697 463.632888,11.0105497 L463.632888,11.0105497 Z M456.843281,12.9295803 C457.025451,12.4192418 456.613103,11.8523452 455.885739,12.1325052 C455.332653,12.377152 454.571091,12.9992915 454.165319,13.5030535 L453.339965,15.1879597 C454.200175,15.0551138 456.451978,14.0344369 456.843281,12.9295803 L456.843281,12.9295803 Z M481.713733,4.418239 C481.706499,4.06179124 481.307962,3.91513468 480.930469,3.90790051 C480.587832,3.90790051 480.231384,3.96380099 479.923603,4.08941265 C479.615821,4.22291615 479.021303,4.52346344 478.706945,4.8312449 C478.923313,4.97066728 479.196239,5.01933358 479.476399,5.05484682 C479.895324,5.11732383 480.350419,5.13179219 480.706209,5.10351312 C481.23825,5.05484682 481.713733,4.8312449 481.713733,4.418239 L481.713733,4.418239 Z M443.485697,16.5821834 C443.127934,17.3601866 442.913539,18.0592714 442.772801,18.9036975 C442.723477,19.4212702 443.143718,19.9250321 443.751389,19.6310614 C445.547438,18.6873297 447.792007,15.4049851 448.192517,13.2182898 C448.475308,11.5827076 447.223137,11.5649509 446.248496,12.5126285 C445.035784,13.7582227 444.195962,14.9959251 443.485697,16.5821834 L443.485697,16.5821834 Z" id="logo-saks"></path>
                </g>
            </g>
        </g>
    </g>
</svg>