<?xml version="1.0" encoding="UTF-8" standalone="no"?>
<svg width="96px" height="14px" viewBox="0 0 96 14" version="1.1" xmlns="http://www.w3.org/2000/svg" xmlns:xlink="http://www.w3.org/1999/xlink" xmlns:sketch="http://www.bohemiancoding.com/sketch/ns">
    <!-- Generator: Sketch 3.3.3 (12072) - http://www.bohemiancoding.com/sketch -->
    <title>logo-inmobi</title>
    <desc>Created with Sketch.</desc>
    <defs></defs>
    <g id="Design" stroke="none" stroke-width="1" fill="none" fill-rule="evenodd" sketch:type="MSPage">
        <g id="Artboard" sketch:type="MSArtboardGroup" transform="translate(-638.000000, -3085.000000)" fill="#B4BBC2">
            <g id="Logos" sketch:type="MSLayerGroup" transform="translate(305.000000, 2960.000000)">
                <g id="Row" transform="translate(56.000000, 120.000000)" sketch:type="MSShapeGroup">
                    <path d="M291.655503,5.02328718 L288.931532,5.02328718 C287.023557,5.02328718 285.505485,5.53686387 284.416966,6.55111491 C283.320266,7.57386261 282.763891,9.06015105 282.763891,10.9678115 L282.763891,18.9691602 L285.923395,18.9691602 L285.923395,10.6886801 C285.923395,9.7965294 286.18396,9.12718036 286.720509,8.6425553 C287.262723,8.15226578 288.006024,7.90397411 288.931532,7.90397411 L291.655503,7.90397411 C292.580067,7.90397411 293.323997,8.15258047 293.866526,8.6425553 C294.395837,9.12025715 294.66364,9.80880237 294.66364,10.6886801 L294.66364,18.9691602 L297.823143,18.9691602 L297.823143,10.9678115 C297.823143,9.05952167 297.266454,7.57323323 296.169439,6.55111491 C295.082809,5.53749326 293.564107,5.02328718 291.655503,5.02328718 Z M321.111266,5.02328718 L318.386981,5.02328718 C316.480264,5.02328718 314.961248,5.53686387 313.873044,6.55111491 C313.846296,6.57597554 313.824582,6.6036684 313.798777,6.62947312 C313.772972,6.6036684 313.750629,6.57597554 313.724195,6.55111491 C312.637565,5.53749326 311.118864,5.02328718 309.209944,5.02328718 L306.486288,5.02328718 C304.578313,5.02328718 303.059612,5.53686387 301.972037,6.55111491 C300.874708,7.57386261 300.318648,9.06015105 300.318648,10.9678115 L300.318648,18.9691602 L303.477522,18.9691602 L303.477522,10.6886801 C303.477522,9.7965294 303.738401,9.12686567 304.275265,8.6425553 C304.817164,8.15226578 305.56078,7.90397411 306.486288,7.90397411 L309.209944,7.90397411 C310.134508,7.90397411 310.878439,8.15258047 311.421282,8.6425553 C311.950279,9.12025715 312.218711,9.80880237 312.218711,10.6886801 L312.218711,18.9691602 L315.378844,18.9691602 L315.378844,10.6886801 C315.378844,9.7965294 315.640038,9.12718036 316.176272,8.6425553 C316.718486,8.15226578 317.462102,7.90397411 318.386981,7.90397411 L321.111266,7.90397411 C322.035515,7.90397411 322.779446,8.15258047 323.322289,8.6425553 C323.851286,9.12025715 324.119403,9.80880237 324.119403,10.6886801 L324.119403,18.9691602 L327.278277,18.9691602 L327.278277,10.9678115 C327.278277,9.05952167 326.722532,7.57291854 325.625202,6.55111491 C324.538258,5.53749326 323.019871,5.02328718 321.111266,5.02328718 Z M365.246134,11.4700593 C365.478061,11.2016274 365.649568,10.8702571 365.757193,10.4794102 C365.86765,10.0677936 365.921777,9.50008991 365.921777,8.74325661 C365.921777,7.33941737 365.434634,6.31792843 364.471363,5.7045945 C363.730264,5.25238266 362.649928,5.02328718 361.257103,5.02328718 L351.215609,5.02328718 L351.215609,18.9691602 L362.090406,18.9691602 C363.602185,18.9691602 364.738536,18.634643 365.468621,17.9756788 C366.212866,17.3025535 366.589552,16.1920068 366.589552,14.6745639 C366.589552,13.1247078 366.13797,12.0494066 365.246134,11.4700593 Z M361.293607,10.2317479 L354.375427,10.2317479 L354.375427,7.9228556 L361.274726,7.9228556 C362.598633,7.9228556 362.782099,8.49496493 362.782099,9.11364862 C362.782099,9.69456932 362.60178,10.2317479 361.293607,10.2317479 Z M354.375427,13.148939 L361.720329,13.148939 C363.243436,13.148939 363.448615,13.8453516 363.448615,14.5260295 C363.448615,15.6098274 362.975319,16.0513397 361.813163,16.0513397 L354.375427,16.0513397 L354.375427,13.148939 Z M369.046035,5.03713361 L372.256519,5.03713361 L372.256519,18.9691602 L369.046035,18.9691602 L369.046035,5.03713361 Z M329.38797,9.82201942 C329.395208,9.81069052 329.402446,9.79967632 329.409684,9.78834742 L329.45374,9.72257687 C329.493706,9.66593239 329.533043,9.6130642 329.575526,9.55893724 C329.593463,9.5343913 329.60196,9.52337709 329.611086,9.5117335 L329.631226,9.48718756 C329.708641,9.39372415 329.798642,9.2980579 329.910987,9.19074807 L329.944974,9.15927891 C329.99973,9.10829887 330.059207,9.05700414 330.121201,9.00508002 C330.15267,8.97927531 330.18351,8.95315591 330.216553,8.92672181 L330.232602,8.91507822 C330.406941,8.78007553 330.59135,8.65923395 330.792753,8.54531559 L330.858838,8.50849667 C331.001394,8.43013846 331.146466,8.35933285 331.298777,8.29356231 L331.315141,8.2863244 C331.388779,8.25485524 331.465249,8.22433016 331.543293,8.19380507 C331.577594,8.18090272 331.611581,8.16862974 331.646197,8.15635677 C331.781514,8.10632081 331.926272,8.05880237 332.073863,8.01506024 C332.119178,8.00121381 332.165438,7.98736738 332.214215,7.97446502 C332.234985,7.96911527 332.255125,7.96313613 332.274951,7.9565276 C332.304846,7.94771624 332.334427,7.93859018 332.367155,7.9304082 C332.618594,7.86180543 332.86185,7.80799317 333.087484,7.76456573 L333.090002,7.76425103 C333.196997,7.74379608 333.300216,7.72585866 333.3984,7.71012408 C333.400288,7.70980939 333.402805,7.7094947 333.404693,7.70918 C333.413819,7.70760655 333.422946,7.70603309 333.432386,7.70477432 C333.446547,7.70288617 333.461338,7.70036864 333.47487,7.6981658 L333.487772,7.69627765 C333.573683,7.68337529 333.654873,7.67236109 333.731029,7.66260565 L333.754945,7.65914404 L333.754945,7.65945873 C333.832359,7.64970329 333.904424,7.64120662 333.970194,7.63459809 C333.984041,7.63333933 333.997258,7.63208056 334.01016,7.63082179 L334.027468,7.62861895 L334.027468,7.62893365 C334.034706,7.62798957 334.041315,7.62736019 334.048238,7.6267308 C334.057364,7.62578673 334.067119,7.62515735 334.076245,7.62452796 L334.078448,7.62421327 C334.125022,7.61980759 334.166562,7.61634598 334.204325,7.61319906 C334.209675,7.61288437 334.215339,7.61225499 334.221003,7.61225499 C334.24492,7.61036684 334.267578,7.60879338 334.287403,7.60721992 L334.312264,7.60627585 C334.380552,7.59872325 334.461742,7.59431757 334.541989,7.59431757 L343.908155,7.59431757 C344.645163,7.59431757 345.301609,7.94331056 345.722037,8.4848948 L345.689939,8.30866751 C345.676092,8.24163819 345.660987,8.17303543 345.643994,8.10348858 L345.625427,8.0279626 C345.607175,7.95778637 345.587979,7.88698076 345.566265,7.81523107 L345.512767,7.64718576 C345.480984,7.55151951 345.445738,7.45553857 345.406716,7.35955763 C345.405458,7.35672541 345.404199,7.35389318 345.40294,7.35074627 C345.005485,6.38149613 344.231343,5.41256069 342.730894,5.10258946 C342.706977,5.09786909 342.683061,5.09251933 342.659459,5.08811365 C342.595891,5.07615537 342.53075,5.06514116 342.464665,5.05507103 C342.456797,5.05412696 342.447671,5.0525535 342.440119,5.05160942 C342.376551,5.04248337 342.31078,5.03556015 342.244381,5.02895163 C342.193086,5.02360187 342.141162,5.01919619 342.088293,5.01604927 C342.053048,5.01353174 342.018747,5.01038482 341.983186,5.00881136 L341.961473,5.0075526 C341.867695,5.00283222 341.772343,5 341.67353,5 L334.718531,5 C331.831235,5 329.472307,7.14965833 329.38797,9.82201942 Z M346.128934,14.6717317 C346.12201,14.7047743 346.113514,14.738761 346.104073,14.7743212 C346.103444,14.7780975 346.102185,14.7821885 346.101555,14.7853354 C346.092115,14.8208955 346.082359,14.8570851 346.071345,14.894848 C346.070401,14.8992537 346.068828,14.9033447 346.067254,14.9080651 C346.056555,14.9455134 346.044596,14.9845352 346.031379,15.024501 C346.03012,15.028592 346.028862,15.032683 346.027603,15.0358299 C346.013757,15.0776839 345.998966,15.1207966 345.983231,15.1645388 C345.982602,15.1661122 345.981973,15.1680004 345.981343,15.1702032 C345.878754,15.4515375 345.727702,15.7731523 345.508047,16.1123899 C345.505844,16.1152221 345.503956,16.1180543 345.502068,16.1208865 C345.467452,16.1740694 345.431262,16.2272523 345.393185,16.2810646 C345.390038,16.2851555 345.38752,16.2886172 345.385003,16.2927081 C345.345037,16.3477792 345.303812,16.4034796 345.261014,16.4594947 C345.26007,16.4604388 345.259126,16.4616975 345.258182,16.4626416 C345.122865,16.6366661 344.968351,16.8132081 344.791494,16.9884913 C344.79055,16.98975 344.788662,16.9913235 344.787403,16.9925823 C344.732647,17.0470239 344.675688,17.1008362 344.61684,17.1546484 C344.606141,17.1644039 344.594497,17.174474 344.583483,17.1842295 C344.532818,17.2301744 344.480894,17.27549 344.426767,17.3208056 C344.411347,17.333708 344.396242,17.3466103 344.380192,17.359198 C344.328268,17.4023107 344.274456,17.4451088 344.2197,17.4872775 C344.202077,17.5008092 344.185084,17.5140263 344.167146,17.527558 C344.109872,17.5706707 344.051025,17.6137835 343.990604,17.6562669 C343.97424,17.6679104 343.958506,17.679554 343.941827,17.6911976 C343.870077,17.7406042 343.796125,17.7896961 343.719969,17.838788 C343.71399,17.8425643 343.708326,17.8460259 343.702661,17.8501169 C343.535245,17.956168 343.356815,18.0597015 343.166112,18.1600881 C343.142196,18.1726758 343.11702,18.1849488 343.093104,18.1975364 C343.022928,18.2330966 342.952122,18.2696008 342.879113,18.3042169 C342.846071,18.3202661 342.812084,18.335686 342.778412,18.3514206 C342.710753,18.3825751 342.642465,18.4137295 342.572604,18.4442546 C342.535156,18.4606186 342.496448,18.4769826 342.457427,18.4933465 C342.388509,18.5222981 342.317389,18.5506204 342.245639,18.5792573 C342.205044,18.5953066 342.164449,18.6110412 342.123224,18.6267758 C342.047698,18.655098 341.969969,18.6831056 341.891611,18.7107984 C341.851645,18.7246448 341.812938,18.7391207 341.772343,18.7526524 C341.679194,18.7838069 341.583528,18.814332 341.486603,18.8445423 C341.45891,18.853039 341.431847,18.8621651 341.403525,18.8709764 C341.28111,18.9074807 341.156806,18.9430408 341.028412,18.9773422 L343.15258,18.9773422 C346.411212,18.9773422 349.062174,16.7474375 349.062174,14.0064737 L349.062174,9.97023917 C349.062174,7.38850926 346.70954,5.26024996 343.713361,5.02171372 C343.715564,5.02297249 343.717452,5.02423125 343.719969,5.02517533 L343.746718,5.03776299 C343.815321,5.06986154 343.87291,5.09818378 343.928295,5.1274501 L343.980849,5.15514296 C344.042528,5.18850027 344.102005,5.22343104 344.160223,5.25930588 L344.197671,5.28353713 C344.258721,5.32255889 344.305925,5.35434274 344.351241,5.38675598 C344.362884,5.39462327 344.377675,5.4046934 344.392465,5.41570761 C344.444075,5.4534706 344.494425,5.49280705 344.544147,5.53277288 L344.59733,5.57745909 C344.642016,5.61490739 344.686073,5.65298507 344.729185,5.69358029 C344.7402,5.70333573 344.754361,5.71749685 344.767892,5.73102859 C344.8066,5.76690343 344.843418,5.80403704 344.879923,5.84211473 C344.892825,5.85501708 344.906986,5.87012228 344.921147,5.88554217 C344.966778,5.93431937 345.006429,5.97900557 345.044192,6.02432117 C345.058038,6.04005575 345.072514,6.05799317 345.08699,6.07593059 C345.113424,6.10897321 345.142061,6.14358928 345.169439,6.18072289 C345.179824,6.19425463 345.193356,6.21187736 345.206573,6.22981478 C345.23993,6.27450099 345.273287,6.32107535 345.303812,6.3676497 L345.342519,6.42555296 C345.367695,6.46426003 345.392555,6.5026524 345.414584,6.54104478 L345.451403,6.60146556 C345.477207,6.64552239 345.499236,6.68548822 345.521579,6.72545406 L345.557139,6.79279806 C345.580741,6.83842834 345.604343,6.88374393 345.626371,6.9296889 L345.701582,7.0945873 C345.713541,7.12165078 345.722037,7.14053228 345.729275,7.15972847 C345.746583,7.19937961 345.766409,7.24784211 345.78529,7.29661931 L345.806689,7.35357849 C345.82148,7.39228556 345.835012,7.43067794 345.847914,7.46969969 C345.853264,7.48165798 345.859872,7.50148355 345.865851,7.52036504 C345.876866,7.55214889 345.888195,7.58739435 345.899523,7.6229545 L345.927216,7.71421507 C345.942007,7.76362165 345.955539,7.81082539 345.968441,7.85739975 L346.009036,8.01915123 C346.012498,8.03205359 346.016903,8.0503057 346.020994,8.0691872 C346.031065,8.1104118 346.041449,8.15950369 346.051205,8.20702212 L346.059387,8.24226758 L346.111626,8.5374483 C346.112884,8.54311275 346.115087,8.55601511 346.116031,8.56954684 C346.130507,8.65923395 346.14278,8.75458551 346.152221,8.84521669 L346.15348,8.86504226 C346.162606,8.93993886 346.169529,9.02742313 346.175823,9.10766948 C346.181487,9.17501349 346.186837,9.26375652 346.190928,9.3506114 L346.202886,9.90918899 L346.202886,14.0952167 C346.202886,14.2874933 346.178655,14.4785111 346.130822,14.6629203 L346.131136,14.6629203 C346.130507,14.6660673 346.129878,14.6688995 346.128934,14.6717317 Z M330.172181,9.4594947 C330.068333,9.55862255 329.987457,9.64421867 329.922631,9.72226218 C329.916966,9.72950009 329.907526,9.74177306 329.896826,9.75310196 L329.869448,9.79055026 C329.831685,9.83869808 329.796125,9.88716058 329.762453,9.93436432 L329.721228,9.99541449 C329.690074,10.0435623 329.658605,10.0945423 329.630282,10.1436342 L329.611716,10.1760475 C329.584023,10.2263981 329.558218,10.2767488 329.535875,10.3239525 C329.508811,10.3821705 329.488671,10.430633 329.471678,10.4753192 C329.451223,10.5272433 329.43895,10.5637475 329.429194,10.5955314 L329.424159,10.6115807 C329.415033,10.6411617 329.408425,10.6647635 329.403075,10.6849038 L329.397725,10.7072469 C329.394893,10.7217227 329.391431,10.7346251 329.389229,10.7453246 L329.385767,10.7635767 L329.385452,14.0045855 C329.385452,16.7464934 331.767982,18.9773422 334.695873,18.9773422 L339.085506,18.9773422 C342.597779,18.5053048 344.282323,17.2021669 345.090137,16.0617245 C344.741773,16.2713091 344.335821,16.3899479 343.908155,16.3899479 L334.541989,16.3899479 C333.276929,16.3899479 332.247572,15.3605916 332.247572,14.0952167 L332.247572,9.88841935 C332.247572,9.20018881 332.549676,8.57930228 333.034301,8.15730085 L332.460619,8.29293293 C332.43324,8.29985614 332.409009,8.30740874 332.385093,8.31496134 C332.360547,8.32219924 332.33663,8.32943715 332.31114,8.33636037 C332.266769,8.34863334 332.223971,8.36090631 332.181172,8.37380867 C332.039876,8.41566265 331.902985,8.46097824 331.773647,8.50818198 C331.74029,8.51982557 331.70882,8.53115447 331.677666,8.54342744 C331.602455,8.57237907 331.527558,8.60227477 331.456752,8.63311455 L331.440703,8.64003776 C331.301295,8.70077324 331.169124,8.7659144 331.036324,8.83860816 L330.98503,8.86661572 C330.79118,8.97612839 330.621561,9.08752922 330.472712,9.20239166 L330.442501,9.22536414 C330.357849,9.29239345 330.275715,9.36288437 330.203021,9.43117245 L330.172181,9.4594947 Z M277,5.02517533 L280.219924,5.02517533 L280.219924,19 L277,19 L277,5.02517533 Z" id="logo-inmobi"></path>
                </g>
            </g>
        </g>
    </g>
</svg>