<?xml version="1.0" encoding="UTF-8" standalone="no"?>
<svg width="115px" height="13px" viewBox="0 0 115 13" version="1.1" xmlns="http://www.w3.org/2000/svg" xmlns:xlink="http://www.w3.org/1999/xlink" xmlns:sketch="http://www.bohemiancoding.com/sketch/ns">
    <!-- Generator: Sketch 3.3.3 (12072) - http://www.bohemiancoding.com/sketch -->
    <title>logo-shopstyle</title>
    <desc>Created with Sketch.</desc>
    <defs></defs>
    <g id="Design" stroke="none" stroke-width="1" fill="none" fill-rule="evenodd" sketch:type="MSPage">
        <g id="Artboard" sketch:type="MSArtboardGroup" transform="translate(-547.000000, -2967.000000)" fill="#B4BBC2">
            <g id="Logos" sketch:type="MSLayerGroup" transform="translate(305.000000, 2960.000000)">
                <g id="Row" sketch:type="MSShapeGroup">
                    <path d="M242,17.7910597 L242.923952,16.6084009 C243.718317,17.5323531 245.048808,18.3823891 246.785838,18.3823891 C248.984611,18.3823891 249.686814,17.1997303 249.686814,16.23882 C249.686814,13.0608924 242.38806,14.8346466 242.38806,10.4368682 C242.38806,8.40440731 244.199006,7 246.638006,7 C248.504155,7 249.964,7.64676652 250.998592,8.73703009 L250.074874,9.86401783 C249.150922,8.82942531 247.857389,8.38592826 246.508419,8.38592826 C245.048808,8.38592826 243.977024,9.18029322 243.977024,10.344473 C243.977024,13.1160956 251.275778,11.5271318 251.275778,16.1279458 C251.275778,17.9019339 250.056395,19.7496044 246.730401,19.7496044 C244.605311,19.7496044 243.016347,18.9367604 242,17.7910597 Z M264.340462,19.5278559 L264.340462,13.8737364 L257.134103,13.8737364 L257.134103,19.5278559 L255.600576,19.5278559 L255.600576,7.20326948 L257.134103,7.20326948 L257.134103,12.5062871 L264.340462,12.5062871 L264.340462,7.20326948 L265.874222,7.20326948 L265.874222,19.5278559 L264.340462,19.5278559 Z M269.921601,13.3748022 C269.921601,9.73466453 272.397793,7 276.037696,7 C279.677834,7 282.172505,9.73466453 282.172505,13.3748022 C282.172505,17.0151738 279.677834,19.7496044 276.037696,19.7496044 C272.397793,19.7496044 269.921601,17.0151738 269.921601,13.3748022 Z M280.583307,13.3748022 C280.583307,10.4923053 278.791074,8.36744922 276.037696,8.36744922 C273.266074,8.36744922 271.510799,10.4923053 271.510799,13.3748022 C271.510799,16.23882 273.266074,18.3823891 276.037696,18.3823891 C278.791074,18.3823891 280.583307,16.23882 280.583307,13.3748022 Z M286.589698,19.5278559 L286.589698,7.20326948 L291.541848,7.20326948 C294.017806,7.20326948 295.403734,8.90334148 295.403734,10.9173233 C295.403734,12.9313051 293.999327,14.6313772 291.541848,14.6313772 L288.123459,14.6313772 L288.123459,19.5278559 L286.589698,19.5278559 Z M293.814536,10.9173233 C293.814536,9.53139505 292.816668,8.5707187 291.356824,8.5707187 L288.123459,8.5707187 L288.123459,13.2639279 L291.356824,13.2639279 C292.816668,13.2639279 293.814536,12.3032516 293.814536,10.9173233 Z M298.730196,17.7910597 L299.654148,16.6084009 C300.448747,17.5323531 301.779238,18.3823891 303.516034,18.3823891 C305.71504,18.3823891 306.417244,17.1997303 306.417244,16.23882 C306.417244,13.0608924 299.118256,14.8346466 299.118256,10.4368682 C299.118256,8.40440731 300.928968,7 303.368202,7 C305.234351,7 306.693962,7.64676652 307.728788,8.73703009 L306.80507,9.86401783 C305.881352,8.82942531 304.587819,8.38592826 303.238849,8.38592826 C301.779238,8.38592826 300.707453,9.18029322 300.707453,10.344473 C300.707453,13.1160956 308.006208,11.5271318 308.006208,16.1279458 C308.006208,17.9019339 306.786825,19.7496044 303.460363,19.7496044 C301.335507,19.7496044 299.746543,18.9367604 298.730196,17.7910597 Z M315.03456,19.5278559 L315.03456,8.5707187 L311.135716,8.5707187 L311.135716,7.20326948 L320.485644,7.20326948 L320.485644,8.5707187 L316.568087,8.5707187 L316.568087,19.5278559 L315.03456,19.5278559 Z M328.135968,19.5278559 L328.135968,14.3172334 L323.276213,7.20326948 L325.068447,7.20326948 L328.893609,12.9313051 L332.718303,7.20326948 L334.511004,7.20326948 L329.669729,14.3172334 L329.669729,19.5278559 L328.135968,19.5278559 Z M337.948574,19.5278559 L337.948574,7.20326948 L339.482101,7.20326948 L339.482101,18.1604066 L345.210136,18.1604066 L345.210136,19.5278559 L337.948574,19.5278559 Z M348.924892,19.5278559 L348.924892,7.20326948 L357,7.20326948 L357,8.5707187 L350.458653,8.5707187 L350.458653,12.5434791 L356.870179,12.5434791 L356.870179,13.9106945 L350.458653,13.9106945 L350.458653,18.1604066 L357,18.1604066 L357,19.5278559 L348.924892,19.5278559 Z" id="logo-shopstyle"></path>
                </g>
            </g>
        </g>
    </g>
</svg>