<?xml version="1.0" encoding="UTF-8" standalone="no"?>
<svg width="84px" height="24px" viewBox="0 0 84 24" version="1.1" xmlns="http://www.w3.org/2000/svg" xmlns:xlink="http://www.w3.org/1999/xlink" xmlns:sketch="http://www.bohemiancoding.com/sketch/ns">
    <!-- Generator: Sketch 3.3.3 (12072) - http://www.bohemiancoding.com/sketch -->
    <title>logo-hello</title>
    <desc>Created with Sketch.</desc>
    <defs></defs>
    <g id="Design" stroke="none" stroke-width="1" fill="none" fill-rule="evenodd" sketch:type="MSPage">
        <g id="Artboard" sketch:type="MSArtboardGroup" transform="translate(-361.000000, -3080.000000)" fill="#B4BBC2">
            <g id="Logos" sketch:type="MSLayerGroup" transform="translate(305.000000, 2960.000000)">
                <g id="Row" transform="translate(56.000000, 120.000000)" sketch:type="MSShapeGroup">
                    <path d="M0.0040704271,5.61777396 C0.0845482866,5.19432111 0.133724539,4.76205682 0.250706954,4.34892595 C0.927132174,1.95938809 2.98141556,0.261842335 5.44962703,0.0341294339 C5.64419212,0.0162128301 5.84005794,0.00286978565 6.03529437,0.00278586713 C10.0207946,0.000981618976 14.0062949,-0.00245904029 17.9917532,0.00278586713 C20.7454974,0.00635240418 23.0851038,1.79784494 23.7945929,4.45978232 C23.9156873,4.91415914 23.9893258,5.3956836 23.9910042,5.86499792 C24.0058997,9.9623196 24.0108929,14.0597252 23.9953679,18.1570049 C23.9846683,20.9887095 21.7430788,23.518643 18.9390674,23.9114656 C18.7531459,23.9374803 18.5678118,23.967691 18.382226,23.9959296 C12.3155885,23.9959296 6.24895092,23.9952163 0.182313361,23.9999996 C0.0310502309,24.0001255 -0.000125498839,23.9689498 3.78939475e-07,23.8176866 C0.00478373451,17.7510491 0.0040704271,11.6844115 0.0040704271,5.61777396 L0.0040704271,5.61777396 Z M20.9804693,11.9939869 C20.9803853,7.05433312 16.9670661,3.04030057 12.0138594,3.02578267 C7.0819681,3.01130672 3.06076051,7.02655609 3.0421306,11.9841685 C3.02362657,16.9229831 7.07605184,20.9774224 12.0145728,20.9609744 C16.9712201,20.9444844 20.9805112,16.9346897 20.9804693,11.9939869 Z M30.0246198,12.2473789 C30.0246198,9.48557849 30.0239065,6.72373612 30.0250813,3.96193571 C30.025417,3.12144978 30.4887731,2.46596223 31.2130738,2.36257462 C31.6593945,2.29888046 32.1190162,2.32367838 32.5727636,2.31742645 C33.0201752,2.3113004 33.0202172,2.31612572 33.0202172,2.76257224 C33.0202172,4.79021149 33.0199235,6.8178927 33.0216018,8.84557391 C33.0216438,8.91061076 33.0419101,8.97564761 33.0527356,9.04068446 C33.0981775,9.00019378 33.1468083,8.96276612 33.1886417,8.91883477 C34.1349488,7.9249458 35.3137942,7.41430161 36.6630362,7.31103987 C38.0228099,7.20698091 39.312176,7.45378527 40.4405444,8.27358528 C41.6252641,9.13433753 42.2541494,10.3384424 42.4965481,11.7536023 C42.5821869,12.2536308 42.6188174,12.7675478 42.6213769,13.2754227 C42.6337549,15.7365431 42.6234748,18.1977474 42.6327059,20.6589097 C42.633587,20.8864547 42.5643962,20.9303861 42.3543062,20.927407 C41.5294291,20.9157003 40.7041744,20.9157423 39.8792973,20.9275329 C39.6783125,20.930428 39.6230521,20.8797832 39.6234717,20.6751059 C39.628339,18.2000132 39.6379896,15.7247525 39.6131078,13.2498276 C39.6035411,12.2959677 39.3410439,11.4060118 38.5971482,10.739447 C37.8491825,10.0691898 36.9337154,9.92724165 35.9851843,10.0470353 C34.3904807,10.2484817 33.4755171,11.1738932 33.1577177,12.8775231 C33.0648199,13.3754956 33.0296161,13.8903357 33.0261754,14.3978329 C33.0119932,16.4813619 33.0156856,18.5650168 33.0264691,20.6485877 C33.0277279,20.8868324 32.9591245,20.9318966 32.7367824,20.9281622 C31.9119473,20.9142318 31.0866926,20.9156164 30.2618155,20.9276587 C30.0616279,20.9305539 30.0206337,20.8653073 30.0209693,20.6796795 C30.0262142,17.8689126 30.0246198,15.0581458 30.0246198,12.2473789 Z M49.1483914,15.7597465 C48.6313694,15.7597465 48.1142216,15.7667957 47.5974094,15.7557185 C47.4298241,15.75211 47.3936972,15.792223 47.4312927,15.9553606 C47.7683094,17.4186898 48.7311486,18.2538469 50.1442945,18.5792409 C51.9877745,19.0037428 53.7807776,18.7182939 55.5283388,18.067338 C55.7200506,17.9959653 55.783535,18.0052383 55.830865,18.2158738 C55.9731069,18.8487033 56.1348599,19.477295 56.296487,20.1055929 C56.3338307,20.250688 56.3115084,20.3221866 56.1595319,20.3868458 C54.5150646,21.0863906 52.7935601,21.3352929 51.020236,21.2688714 C49.4513793,21.2100865 47.9859941,20.8098371 46.7043485,19.8673063 C45.370086,18.886089 44.6117144,17.5428892 44.3302516,15.9311501 C44.0289842,14.2062889 44.1792822,12.5246457 45.0226633,10.9630479 C46.1470037,8.8811134 47.9123975,7.68858929 50.2533466,7.38589519 C51.5624335,7.21663154 52.844163,7.37918171 54.0704643,7.89855342 C55.8015775,8.63170756 56.755731,10.3255189 56.5429137,12.1872093 C56.3621952,13.7677307 55.4332171,14.6735472 54.0098752,15.177352 C52.8854509,15.5753776 51.7129414,15.7030176 50.5317043,15.7619704 C50.0717049,15.7849221 49.6095657,15.7657048 49.1483495,15.7657048 C49.1483914,15.7637327 49.1483914,15.7617186 49.1483914,15.7597465 Z M49.1879171,13.6462167 C49.7388002,13.614957 50.3194324,13.5997678 50.8962883,13.5446753 C51.557818,13.4814427 52.2128859,13.3675233 52.8084557,13.0452762 C53.4276904,12.7102315 53.6970689,12.1853631 53.6416407,11.4854407 C53.5889399,10.819841 53.2092505,10.4056192 52.610408,10.191543 C51.7604393,9.88771603 50.886344,9.84227415 50.0136333,10.0829105 C48.4357973,10.5179441 47.5244003,12.1145359 47.3158627,13.4000837 C47.3091073,13.4417912 47.4082151,13.5419899 47.4629299,13.545976 C48.0273659,13.5870122 48.5927669,13.6137822 49.1879171,13.6462167 Z M83.7389335,14.304054 C83.7371293,18.1594805 80.5870798,21.3036557 76.744325,21.2856971 C72.8753036,21.2675707 69.7795914,18.1675786 69.7756892,14.3073687 C69.771787,10.4444315 72.9053045,7.31469033 76.7620738,7.32941803 C80.6254726,7.34414573 83.7407378,10.4584039 83.7389335,14.304054 Z M80.7667494,14.3552862 C80.7502174,13.3205289 80.4734542,12.415174 79.8962206,11.6023812 C78.4973409,9.63272961 75.7728423,9.39062469 74.0581352,11.0877928 C72.5760082,12.5547724 72.3110775,15.0118227 73.4459076,16.7658457 C74.466189,18.3428425 76.2637656,19.0299253 77.9108344,18.4724127 C79.6137089,17.8959764 80.7639801,16.2201655 80.7667494,14.3552862 Z M60.9734758,10.5007828 C60.9734758,12.8707257 60.973266,15.2406266 60.9736017,17.6105695 C60.9737276,18.350521 61.3119611,18.6738591 62.0479685,18.6338719 C62.1940707,18.6259416 62.3467604,18.6238856 62.4830441,18.5787374 C62.692169,18.5095466 62.759136,18.5828494 62.8039065,18.7808552 C62.9531556,19.4408324 63.1225871,20.096236 63.2747314,20.7556258 C63.2868576,20.8080329 63.2393178,20.919141 63.1970648,20.9326099 C62.2134978,21.2464652 61.2092029,21.4182883 60.1873691,21.1780296 C58.9277101,20.8817973 58.0043127,19.7272882 58.0000329,18.436034 C57.9876969,14.6819391 57.9940327,10.9278022 57.9932355,7.17366526 C57.9929418,5.86638257 57.9963405,4.55905793 57.9894172,3.25177524 C57.9884941,3.07915485 58.0327611,3.0261603 58.2098292,3.02804847 C59.055602,3.03711167 59.9016685,3.03824457 60.7473993,3.02746104 C60.9386077,3.02498544 60.9775458,3.08670751 60.9771682,3.2652022 C60.9716716,5.67706239 60.9734758,8.08892258 60.9734758,10.5007828 Z M67.4699021,10.5219722 C67.4699021,12.8986705 67.4696923,15.2753689 67.4700279,17.6520672 C67.4701538,18.3387724 67.8167373,18.6720129 68.4976102,18.635802 C68.6576428,18.6272843 68.8239274,18.6248926 68.9746031,18.5783598 C69.1821336,18.514246 69.2481774,18.5773108 69.2938291,18.7804775 C69.4390921,19.4269439 69.6108313,20.067368 69.7606678,20.7128273 C69.7761088,20.7793747 69.7302054,20.9177144 69.6838824,20.932568 C68.6938956,21.2494023 67.6828873,21.4192954 66.6541721,21.1736239 C65.44306,20.8843568 64.5477334,19.7572471 64.4954102,18.5143719 C64.4895359,18.3747315 64.4855917,18.2349233 64.4855497,18.0951989 C64.4850462,13.1880216 64.4848364,8.28084423 64.4856756,3.37366689 C64.4857595,2.97547352 64.4485417,3.03438432 64.8367068,3.0329577 C65.6265898,3.03006251 66.4165988,3.03887396 67.206314,3.02746104 C67.4095227,3.02452389 67.4765316,3.06535025 67.4756924,3.28710494 C67.4664194,5.69871337 67.4699021,8.11036376 67.4699021,10.5219722 Z M12.0057194,12.0020431 C13.9286283,12.0020431 15.8515792,12.0049803 17.7744881,11.9973437 C17.9628013,11.9966304 18.004299,12.0459325 17.999096,12.2291686 C17.9195413,15.0468587 15.6853786,17.5403716 12.8993257,17.911753 C9.70421201,18.3376815 6.88639599,16.4015134 6.1641093,13.2719821 C6.08296009,12.9202795 6.07150521,12.5528843 6.01985336,12.1938808 C5.99602051,12.0281837 6.0642043,11.9985185 6.21588702,11.9988962 C8.14580316,12.0036795 10.0757613,12.0020431 12.0057194,12.0020431 Z" id="logo-hello"></path>
                </g>
            </g>
        </g>
    </g>
</svg>