<?xml version="1.0" encoding="UTF-8" standalone="no"?>
<svg width="45px" height="31px" viewBox="0 0 45 31" version="1.1" xmlns="http://www.w3.org/2000/svg" xmlns:xlink="http://www.w3.org/1999/xlink" xmlns:sketch="http://www.bohemiancoding.com/sketch/ns">
    <!-- Generator: Sketch 3.3.3 (12072) - http://www.bohemiancoding.com/sketch -->
    <title>logo-bestbuy</title>
    <desc>Created with Sketch.</desc>
    <defs></defs>
    <g id="Design" stroke="none" stroke-width="1" fill="none" fill-rule="evenodd" sketch:type="MSPage">
        <g id="Artboard" sketch:type="MSArtboardGroup" transform="translate(-400.000000, -3016.000000)" fill="#B4BBC2">
            <g id="Logos" sketch:type="MSLayerGroup" transform="translate(248.000000, 2959.000000)">
                <g id="Row" transform="translate(8.000000, 57.000000)" sketch:type="MSShapeGroup">
                    <path d="M145.048337,7.39418495 C148.198122,4.92186418 151.355065,2.45800357 154.515262,0 C162.251108,0.738637556 169.986953,1.47662433 177.722799,2.21526189 C181.47716,2.56928729 185.229569,2.94153459 188.984581,3.28319513 C188.940979,4.12921171 188.830997,4.97132361 188.761363,5.81603863 C187.971314,14.2104755 187.176709,22.6049124 186.389263,31 C174.873025,29.9294636 163.358739,28.8394038 151.84185,27.7695182 C149.287531,24.7882859 146.74037,21.8011966 144.1854,18.8199643 C144.116417,18.7229978 143.979753,18.6403485 144.00253,18.5056366 C144.350699,14.8020363 144.706026,11.098436 145.048337,7.39418495 Z M145.639898,7.66230713 C145.563105,7.99030125 145.567661,8.33716805 145.521455,8.67297155 C145.202572,11.9047549 144.885641,15.1358875 144.564806,18.3676708 C147.084634,21.2942374 149.607716,24.2182009 152.127543,27.1454183 C163.378913,28.217907 174.628981,29.2975543 185.8797,30.3739477 C186.706194,21.5350268 187.539845,12.6974074 188.368291,3.85913719 C184.764911,3.50641335 181.160229,3.16605437 177.556199,2.81788601 C169.945303,2.09031175 162.335059,1.34842028 154.722862,0.630607746 C151.699329,2.97927994 148.661479,5.31168259 145.639898,7.66230713 Z M150.971755,5.4014905 C152.675502,5.56288443 154.377947,5.73729401 156.081044,5.9038942 C157.020773,5.97808334 157.95855,6.19219062 158.813027,6.59632623 C159.325192,6.84882964 159.852976,7.21717225 160.018926,7.79376509 C160.176415,8.47708618 159.920658,9.25021518 159.358382,9.67908051 C159.093514,9.89839404 158.772027,10.0285504 158.451843,10.1424373 C159.019975,10.3305133 159.557521,10.6650152 159.916102,11.1524509 C160.344317,11.7270914 160.357332,12.5900283 159.908293,13.1568595 C159.480078,13.6852944 158.79871,13.9124173 158.153785,14.038669 C156.883458,14.2905217 155.589704,14.0933347 154.316774,13.976194 C152.946227,13.8395298 151.57568,13.6989608 150.205133,13.555138 C150.460891,10.8374724 150.716648,8.11980686 150.971755,5.4014905 Z M154.525024,8.92157027 C155.009206,8.98729925 155.538943,9.07775795 155.995792,8.85388895 C156.299056,8.71071691 156.364785,8.23174137 156.071282,8.04431615 C155.64502,7.77424163 155.11268,7.80743151 154.628499,7.8113362 C154.584896,8.18032959 154.547802,8.55062454 154.525024,8.92157027 Z M154.353869,10.650698 C154.323933,11.0951821 154.290092,11.5390154 154.265362,11.9841503 C154.812019,12.0694028 155.37885,12.1494489 155.924856,12.0186418 C156.180614,11.9574682 156.449387,11.7674399 156.446783,11.4771911 C156.463704,11.1856408 156.208597,10.9780414 155.962602,10.8810748 C155.454341,10.6760785 154.895319,10.6526504 154.353869,10.650698 Z M161.183175,6.42517057 C163.728383,6.66205521 166.272941,6.91000315 168.817498,7.15144327 C168.747214,7.91415976 168.672374,8.67687625 168.598835,9.43959274 C167.452808,9.32700745 166.307432,9.21572373 165.160754,9.11094783 C165.137326,9.35629264 165.113247,9.60163745 165.092422,9.84763304 C166.137578,9.94264721 167.182083,10.0461215 168.226588,10.1450404 C168.162161,10.8439803 168.091876,11.5422693 168.026798,12.24186 C166.986849,12.1435919 165.946899,12.038816 164.906298,11.9496589 C164.881569,12.2255904 164.854236,12.5008712 164.828855,12.7768028 C166.000914,12.8880865 167.172321,12.9987194 168.343729,13.1139078 C168.277349,13.8369266 168.202509,14.5586439 168.138733,15.2816626 C165.57335,15.0480319 163.010571,14.7883699 160.445188,14.5508345 C160.690533,11.8422798 160.93783,9.1337252 161.183175,6.42517057 Z M172.224993,7.67011651 C173.538271,7.39093104 174.908818,7.54516637 176.193461,7.8946363 C176.856608,8.07815682 177.495025,8.35018369 178.083332,8.70681222 C177.668784,9.3543403 177.211935,9.97648788 176.768753,10.6051433 C176.176541,10.2465624 175.530314,9.94199643 174.834628,9.86325181 C174.457175,9.82290333 174.049135,9.79036423 173.695109,9.95436129 C173.582524,10.0012176 173.447812,10.152199 173.565604,10.2647843 C173.72895,10.4255274 173.95412,10.498415 174.163021,10.5817151 C174.951769,10.859599 175.771104,11.0392149 176.565058,11.2995277 C177.502835,11.6190616 178.145807,12.6459956 177.98181,13.6293272 C177.872479,14.379028 177.31606,14.9842553 176.665278,15.3291697 C175.599948,15.8999055 174.354351,16.0105385 173.166023,15.9487142 C171.55729,15.8432875 169.964827,15.435898 168.512932,14.7330534 C168.989955,14.0204472 169.47609,13.3143487 169.955065,12.603044 C170.430136,13.0195445 171.028855,13.2570799 171.622369,13.4516637 C172.154057,13.6085022 172.71373,13.743214 173.27145,13.6703264 C173.465383,13.6241209 173.732855,13.5889787 173.807695,13.3703159 C173.805091,13.2076204 173.658015,13.1028445 173.534366,13.0240999 C173.194007,12.8197544 172.789221,12.7852629 172.415021,12.67463 C171.580719,12.4370946 170.689147,12.2464155 170.012334,11.6672195 C169.554183,11.2936706 169.284109,10.7040621 169.322505,10.1111997 C169.321203,9.60619293 169.596484,9.14869319 169.948557,8.80573108 C170.568102,8.20440852 171.39069,7.85428781 172.224993,7.67011651 Z M178.44777,8.10093419 C181.335941,8.35213603 184.222159,8.64694028 187.109028,8.91831636 C187.028981,9.80012596 186.941777,10.6819356 186.859127,11.5637451 C186.109426,11.489556 185.359075,11.4140653 184.608072,11.3515902 C184.437568,13.1828907 184.259253,15.0141912 184.085494,16.8454918 C182.718202,16.7120815 181.350909,16.5825758 179.983616,16.4550226 C180.136549,14.6204681 180.296642,12.7865645 180.450226,10.9520101 C179.705081,10.8791225 178.959936,10.8010287 178.212838,10.7424583 C178.269456,9.86064868 178.385946,8.98274378 178.44777,8.10093419 Z M147.200473,11.9769917 C147.724352,11.8761205 148.294437,12.0713551 148.63805,12.4813477 C148.998584,12.8900388 149.106613,13.4965676 148.915934,14.0061299 C148.716795,14.5723103 148.156472,14.9862076 147.556451,15.0096358 C147.027365,15.0408733 146.497628,14.7694972 146.206729,14.3269655 C145.917782,13.9026556 145.869624,13.3299675 146.080477,12.8620552 C146.278315,12.4071586 146.711736,12.0641965 147.200473,11.9769917 Z M147.192664,12.5568385 C146.769004,12.6824394 146.467692,13.1256219 146.516501,13.5668521 C146.549691,14.0555894 147.003937,14.4701375 147.495277,14.4480109 C148.051696,14.4584234 148.527417,13.9091634 148.440863,13.3599034 C148.385547,12.7813582 147.743876,12.3655086 147.192664,12.5568385 Z M151.792391,14.7506245 C153.654278,14.9198279 155.513562,15.1150625 157.374148,15.2998845 C158.243592,15.42093 159.116291,15.6434974 159.886817,16.0756167 C160.331952,16.3281201 160.761468,16.7094783 160.864292,17.2340086 C160.946941,17.7715545 160.805721,18.3507505 160.449093,18.767251 C160.145177,19.1199748 159.721518,19.3536055 159.275733,19.4733494 C159.845167,19.6952661 160.406792,20.0161016 160.761468,20.5289178 C161.159096,21.0905427 161.174064,21.9085756 160.760817,22.465645 C160.424363,22.9120815 159.890071,23.1502677 159.36489,23.2960428 C158.272878,23.5823869 157.129454,23.5309751 156.017918,23.406025 C154.353869,23.2524404 152.692422,23.0689199 151.029023,22.9029705 C151.279574,20.1853049 151.545744,17.4689409 151.792391,14.7506245 Z M155.305963,18.2394668 C155.736129,18.3123544 156.187121,18.3696232 156.614685,18.2498793 C156.825539,18.1919597 157.025329,18.0266611 157.045503,17.7962842 C157.083899,17.5886848 156.945282,17.3947518 156.763714,17.3088485 C156.347214,17.1058046 155.868238,17.1311851 155.417246,17.134439 C155.369088,17.50148 155.343708,17.8711242 155.305963,18.2394668 Z M155.140664,19.9738008 C155.110728,20.4176341 155.077538,20.8608166 155.052158,21.3046499 C155.59491,21.3931563 156.159138,21.4705993 156.702541,21.3430461 C156.948536,21.2857773 157.208849,21.1185263 157.230976,20.8432455 C157.274578,20.5490921 157.031186,20.3167629 156.779984,20.2158917 C156.263914,19.9998321 155.692527,19.9751023 155.140664,19.9738008 Z M161.821592,15.7137819 C163.145933,15.8296211 164.469624,15.949365 165.793314,16.0743151 C165.65665,17.558098 165.521287,19.0425318 165.385274,20.5269655 C165.352735,20.7957384 165.264229,21.0749239 165.366401,21.3410937 C165.467923,21.6573738 165.791362,21.8350373 166.101785,21.8890522 C166.475334,21.9606382 166.909405,21.9541304 167.215924,21.6996746 C167.461919,21.4946783 167.560187,21.1686365 167.569949,20.8588643 C167.707264,19.3399391 167.857595,17.8223155 168.001418,16.3040411 C169.324457,16.4133725 170.644894,16.576068 171.968585,16.662622 C171.993965,16.8643644 171.944506,17.0641545 171.934093,17.2652461 C171.777255,18.868773 171.634733,20.4742521 171.469435,22.0764774 C171.253375,22.9765089 170.535563,23.686512 169.712323,24.0672195 C168.599486,24.5793849 167.336969,24.6236381 166.135626,24.5136559 C164.953806,24.393912 163.7427,24.1160281 162.759369,23.4177391 C161.969319,22.8574158 161.364092,21.9658444 161.323744,20.9792589 C161.480582,19.2234491 161.656293,17.4689409 161.821592,15.7137819 Z M172.001124,16.8220636 C172.033012,16.7823659 172.066853,16.743319 172.102646,16.7055736 C173.585127,16.8493965 175.06891,16.9828068 176.552693,17.1155663 C176.949019,17.8561562 177.314759,18.6136664 177.702625,19.3594626 C178.19787,18.6995696 178.678798,18.0292642 179.175344,17.370022 C180.717047,17.5157972 182.2594,17.65962 183.800452,17.8112522 C182.429905,19.1661803 181.062612,20.5243623 179.691414,21.8786397 C179.601607,21.976257 179.461038,22.0589063 179.469498,22.2098877 C179.366674,23.3337882 179.253438,24.4570379 179.149964,25.5815892 C177.795687,25.4553375 176.442711,25.3199748 175.087783,25.1982786 C175.189305,24.0561562 175.312953,22.9146846 175.406666,21.7719114 C175.090386,21.250635 174.71944,20.7605962 174.382986,20.2510339 C173.626777,19.143403 172.864711,18.0403275 172.113709,16.9294426 C172.085075,16.9027606 172.029107,16.8493965 172.001124,16.8220636 Z" id="logo-bestbuy"></path>
                </g>
            </g>
        </g>
    </g>
</svg>