<?xml version="1.0" encoding="UTF-8" standalone="no"?>
<svg width="88px" height="19px" viewBox="0 0 88 19" version="1.1" xmlns="http://www.w3.org/2000/svg" xmlns:xlink="http://www.w3.org/1999/xlink" xmlns:sketch="http://www.bohemiancoding.com/sketch/ns">
    <!-- Generator: Sketch 3.3.3 (12072) - http://www.bohemiancoding.com/sketch -->
    <title>logo-glossier</title>
    <desc>Created with Sketch.</desc>
    <defs></defs>
    <g id="Design" stroke="none" stroke-width="1" fill="none" fill-rule="evenodd" sketch:type="MSPage">
        <g id="Artboard" sketch:type="MSArtboardGroup" transform="translate(-852.000000, -3023.000000)" fill="#B4BBC2">
            <g id="Logos" sketch:type="MSLayerGroup" transform="translate(305.000000, 2960.000000)">
                <g id="Row" transform="translate(35.000000, 58.000000)" sketch:type="MSShapeGroup">
                    <path d="M528.421289,10.167629 C527.832994,7.17312057 525.846659,5.03466645 522.247298,5.00077611 C522.218582,5.00051741 522.190125,5 522.16115,5 C522.137607,5 522.114841,5.00077611 522.091299,5.00077611 C517.984101,5.02405955 514.939663,7.08723056 513.320429,10.167629 C512.458425,11.8070415 512,13.733875 512,15.7947177 C512,19.7510907 514.196404,22.2429356 517.000247,22.9414386 C517.536283,23.0746716 518.094568,23.1429697 518.664236,23.1429697 C519.33661,23.1429697 519.943273,23.0744129 520.491469,22.9414386 C521.678148,22.6524653 522.5906,22.0584791 523.301262,21.1918179 L523.301262,22.7611214 C523.301779,22.7854396 523.306436,22.8087231 523.315491,22.8296781 C523.341878,22.892026 523.401898,22.9357471 523.472783,22.9404038 L525.899176,22.9404038 C525.929703,22.9383342 525.95816,22.9292795 525.982996,22.9140159 C526.023871,22.8889216 526.05414,22.8480462 526.065523,22.8001858 L526.065523,22.7999271 L527.741154,14.2269665 C527.741413,14.226449 527.741154,14.2259316 527.741154,14.2256729 C527.745293,14.210668 527.747622,14.1946283 527.747622,14.1780712 C527.747622,14.0771764 527.665871,13.9954256 527.564717,13.9954256 L521.448418,13.9954256 C521.360717,13.995943 521.287503,14.0585496 521.270688,14.1415939 L521.270429,14.1415939 L520.810452,16.4642458 C520.808123,16.4753701 520.80683,16.4870118 520.80683,16.499171 C520.80683,16.524524 520.812004,16.5483249 520.821317,16.5703148 C520.84874,16.634991 520.912381,16.6802643 520.98663,16.6815579 L524.061595,16.6815579 C523.402674,18.5059443 521.856913,20.1024118 519.42457,20.1024118 C516.966615,20.1024118 515.420854,18.3287315 515.420854,15.3130093 C515.420854,13.3390915 516.050024,11.5017698 517.147191,10.167629 C518.218747,8.86427404 519.737344,8.04081657 521.552935,8.04081657 C523.260645,8.04081657 524.252261,8.81900069 524.918684,10.167629 C525.08141,10.4964428 525.224473,10.8601818 525.354085,11.254448 C525.354861,11.2567763 525.355378,11.2588459 525.356413,11.2611743 C525.384094,11.3266266 525.449029,11.3726761 525.52483,11.3726761 C525.542163,11.3726761 525.559238,11.3703477 525.575019,11.365691 C525.575536,11.3654323 525.575795,11.365691 525.576053,11.365691 L528.333329,10.6428697 L528.333329,10.642611 C528.351956,10.6379544 528.369548,10.6307106 528.385329,10.6211385 C528.437587,10.5890591 528.472513,10.5311093 528.472513,10.4651395 C528.472513,10.4553087 528.471478,10.445478 528.469926,10.4361646 C528.454921,10.3453592 528.438622,10.256106 528.421289,10.167629 Z M535.173485,5.18342172 C535.173485,5.08252684 535.092252,5.00155223 534.991874,5.00077611 L534.990839,5.00077611 C534.990063,5.00077611 534.989546,5 534.988511,5 L532.200449,5 C532.19838,5.0002587 532.19631,5.00077611 532.19424,5.00077611 L532.193205,5.00077611 C532.103694,5.00155223 532.029445,5.06622844 532.014699,5.15160103 L532.01444,5.15160103 L528.615059,22.7192112 C528.612213,22.731629 528.610661,22.7445643 528.610661,22.7577582 C528.610661,22.7828526 528.615835,22.8069121 528.62489,22.828902 C528.65283,22.8943544 528.717506,22.9404038 528.793307,22.9404038 L531.588871,22.9404038 C531.623796,22.9404038 531.656652,22.930573 531.684333,22.9134985 C531.723915,22.8891803 531.753149,22.8506332 531.765308,22.8048425 C531.765308,22.8045838 531.765825,22.8045838 531.766084,22.8043251 L535.170122,5.21239667 C535.171674,5.20282459 535.173485,5.19325251 535.173485,5.18342172 Z M543.522925,19.0888063 C542.864262,19.9502934 541.95181,20.4570962 540.710286,20.4570962 C539.215231,20.4570962 538.226978,19.2409248 538.226978,17.2641611 C538.226978,15.8958713 538.530956,14.8315596 539.164525,14.0207787 C539.823446,13.1592916 540.735639,12.6524889 541.977163,12.6524889 C543.472219,12.6524889 544.46073,13.8686603 544.46073,15.8451652 C544.46073,17.213455 544.156493,18.2777667 543.522925,19.0888063 Z M543.916415,10.167629 C543.405473,10.0364656 542.85081,9.96635661 542.256047,9.96635661 C541.524689,9.96635661 540.869648,10.0281871 540.261692,10.167629 C539.078376,10.4387516 538.073825,11.00635 537.035901,11.9935677 C535.515493,13.4635285 534.85683,15.3383624 534.85683,17.7458695 C534.85683,20.243406 536.299886,22.3068357 538.768189,22.9414386 C539.279648,23.0728607 539.835605,23.1429697 540.431661,23.1429697 C541.164054,23.1429697 541.820388,23.0813979 542.429379,22.9414386 C543.611143,22.6695399 544.614659,22.1022002 545.651548,21.1157587 C547.171956,19.6460565 547.830619,17.7709639 547.830619,15.3639742 C547.830619,12.8651442 546.386529,10.8014558 543.916415,10.167629 Z M558.333,12.0036571 L558.333,12.0013288 C557.906137,11.1680405 556.942462,10.4889404 555.824081,10.167629 C555.373934,10.0382766 554.898694,9.96635661 554.423194,9.96635661 C553.83076,9.96635661 553.287739,10.0356895 552.799563,10.167629 C551.011136,10.6503722 549.96364,11.9777867 549.96364,13.8686603 C549.96364,15.5665401 551.078399,16.5547925 552.573455,17.2641611 C554.017804,17.9486941 554.752784,18.404532 554.752784,19.1392538 C554.752784,20.0517057 553.992192,20.4570962 553.130963,20.4570962 C551.923588,20.4570962 551.061842,19.7200461 550.698103,18.4668799 C550.673785,18.39496 550.606004,18.343219 550.525547,18.343219 C550.50097,18.343219 550.477169,18.3486518 550.455438,18.3577065 L548.102,19.3345759 C548.101742,19.3348346 548.102,19.335352 548.101224,19.3356107 C548.035772,19.3635508 547.99024,19.428227 547.99024,19.5037689 C547.99024,19.5130822 547.992051,19.5218782 547.993086,19.5309329 C548.303014,20.7954821 549.30058,22.3867755 551.25794,22.9414386 C551.711191,23.0697562 552.215924,23.1429697 552.776279,23.1429697 C553.415021,23.1429697 554.016769,23.077 554.566517,22.9414386 C556.502146,22.4630934 557.793083,21.1162761 557.793083,18.7085102 C557.793083,16.9348299 556.475758,16.0733428 555.158174,15.4651278 C554.296429,15.059996 552.953751,14.6794412 552.953751,13.7928597 C552.953751,13.058138 553.511001,12.6524889 554.195275,12.6524889 C554.856007,12.6524889 555.603664,12.9606063 556.051482,13.6164231 C556.084855,13.6604029 556.137114,13.6891191 556.196357,13.6891191 C556.231282,13.6891191 556.264138,13.6792883 556.291819,13.6619551 C556.292336,13.6614377 556.292854,13.6614377 556.29363,13.6614377 L558.265478,12.2432178 L558.265996,12.2427004 C558.271428,12.239596 558.275826,12.2362328 558.280483,12.2326109 L558.284881,12.2292478 C558.326791,12.1956161 558.353438,12.1443926 558.353438,12.0872188 C558.353438,12.0569503 558.345935,12.0287515 558.333,12.0036571 Z M566.261268,10.167629 C565.810605,10.0382766 565.33614,9.96635661 564.86064,9.96635661 C564.268206,9.96635661 563.724926,10.0356895 563.236491,10.167629 C561.448324,10.6503722 560.40031,11.9777867 560.40031,13.8686603 C560.40031,15.5665401 561.515587,16.5547925 563.010642,17.2641611 C564.454733,17.9486941 565.189713,18.404532 565.189713,19.1392538 C565.189713,20.0517057 564.429897,20.4570962 563.568151,20.4570962 C562.35793,20.4570962 561.494373,19.7164242 561.132445,18.4573078 C561.105281,18.390562 561.040605,18.343219 560.96377,18.343219 C560.938158,18.343219 560.912546,18.3489105 560.890556,18.3587413 L558.539964,19.3340585 C558.539447,19.3345759 558.539964,19.335352 558.539447,19.335352 C558.473736,19.3635508 558.427686,19.428227 558.427686,19.5037689 C558.427686,19.5156693 558.429756,19.5270523 558.432084,19.5384353 C558.743823,20.8014323 559.741648,22.388069 561.694869,22.9414386 C562.148638,23.0697562 562.653112,23.1429697 563.213208,23.1429697 C563.85195,23.1429697 564.453698,23.077 565.003963,22.9414386 C566.939334,22.4630934 568.23053,21.1162761 568.23053,18.7085102 C568.23053,16.9348299 566.912946,16.0733428 565.595103,15.4651278 C564.733616,15.0597373 563.39068,14.6794412 563.39068,13.7928597 C563.39068,13.058138 563.94793,12.6524889 564.632463,12.6524889 C565.291384,12.6524889 566.037747,12.9593128 566.485565,13.6120251 C566.51868,13.6585919 566.573008,13.6891191 566.634062,13.6891191 C566.669505,13.6891191 566.702101,13.6792883 566.729524,13.6619551 C566.730042,13.6619551 566.730042,13.6619551 566.730042,13.6616964 L568.726467,12.226402 C568.766049,12.1930291 568.791143,12.1428403 568.791143,12.0872188 C568.791143,12.0569503 568.784158,12.0287515 568.771481,12.0036571 C568.344618,11.1690754 567.380167,10.4891991 566.261268,10.167629 Z M574.449794,10.1691812 L571.650349,10.1691812 C571.568339,10.1691812 571.499006,10.2237679 571.47624,10.2985336 L569.062266,22.7153306 C569.062007,22.7161067 569.062266,22.7161067 569.062266,22.7166241 C569.058902,22.7298181 569.05735,22.7437881 569.05735,22.7577582 C569.05735,22.7828526 569.063042,22.8069121 569.071838,22.828902 C569.099778,22.8946131 569.164454,22.9404038 569.239996,22.9404038 L572.03556,22.9404038 C572.070744,22.9404038 572.103341,22.930573 572.131022,22.9134985 C572.170345,22.889439 572.200096,22.8511506 572.211997,22.8053599 L574.630628,10.3657969 C574.631146,10.3611402 574.632181,10.3567422 574.632181,10.3520855 C574.632181,10.2509319 574.550947,10.1691812 574.449794,10.1691812 Z M578.890462,15.0848317 C579.422618,13.7675067 580.689237,12.6524889 582.285446,12.6524889 C583.882172,12.6524889 584.616893,13.4888816 584.718306,15.0848317 L578.890462,15.0848317 Z M584.310587,10.167629 C583.820083,10.0367243 583.280166,9.96635661 582.691095,9.96635661 C582.044591,9.96635661 581.431202,10.0367243 580.854549,10.167629 C577.291925,10.9763403 575.114665,14.1123602 575.114665,17.4923388 C575.114665,20.4172556 576.677242,22.3399499 578.967815,22.9414386 C579.475135,23.0741542 580.018156,23.142711 580.588601,23.142711 C581.279084,23.142711 581.905667,23.0754477 582.482061,22.9414386 C584.261174,22.5264761 585.558838,21.4665624 586.761815,19.7311704 C586.778372,19.7037477 586.787944,19.6714096 586.787944,19.6370018 C586.787944,19.5718082 586.753795,19.5146345 586.702054,19.4822964 L584.49582,18.345806 C584.473312,18.3357166 584.448218,18.3282141 584.423382,18.3282141 C584.366208,18.3282141 584.316278,18.3548607 584.282647,18.3959948 C583.364762,19.7156481 582.318818,20.4570962 580.866708,20.4570962 C579.194181,20.4570962 578.282247,19.2913722 578.282247,17.9735298 L578.282247,17.568398 L587.316737,17.568398 C587.316996,17.568398 587.317513,17.5681393 587.318031,17.5681393 C587.352956,17.5681393 587.385811,17.5583085 587.413493,17.5414927 C587.450746,17.5187267 587.478686,17.4830254 587.492656,17.4403391 C587.492656,17.4400804 587.492915,17.4403391 587.492915,17.4400804 C587.584497,17.1148885 587.809828,16.2003669 587.809828,15.0848317 C587.809828,12.725961 586.605299,10.7799833 584.310587,10.167629 Z M598.036948,13.0219194 C598.039017,13.0221781 598.041346,13.0226955 598.04445,13.0242477 C598.070321,13.0384765 598.100589,13.046755 598.13241,13.046755 C598.167594,13.046755 598.200191,13.0369242 598.227872,13.0198497 C598.26021,13.0001881 598.285822,12.9701784 598.300568,12.9347358 L599.223886,10.4723833 C599.224403,10.4718658 599.223886,10.4716071 599.223886,10.4710897 C599.233458,10.4490998 599.238632,10.4250403 599.238632,10.3994285 C599.238632,10.3238867 599.192582,10.2589518 599.127389,10.2312704 C599.126871,10.2312704 599.126871,10.2310117 599.126612,10.2307529 C599.068145,10.2082456 599.011489,10.1872905 598.956126,10.167629 C598.564706,10.0294806 598.221404,9.96635661 597.642682,9.96635661 C597.183998,9.96635661 596.727125,10.0302567 596.279048,10.167629 C595.343313,10.4534978 594.444831,11.0586084 593.639483,12.0696269 L593.974506,10.3942544 C593.977352,10.3808017 593.979421,10.3668317 593.979421,10.3520855 C593.979421,10.2514493 593.898188,10.1694399 593.797034,10.1694399 C593.795999,10.1694399 593.795482,10.1691812 593.794447,10.1691812 L591.007938,10.1691812 C591.006385,10.1691812 591.004833,10.1699573 591.002763,10.1699573 C590.914028,10.1699573 590.840297,10.2335987 590.823998,10.3181952 C590.823998,10.3184539 590.822964,10.3184539 590.822964,10.3187126 L588.410282,22.727231 C588.408213,22.7373205 588.407178,22.74741 588.407178,22.7577582 C588.407178,22.7825939 588.412352,22.8069121 588.421665,22.828902 C588.449088,22.8943544 588.514282,22.9404038 588.589823,22.9404038 L591.386423,22.9404038 C591.421348,22.9404038 591.454203,22.930573 591.481885,22.9134985 C591.522243,22.8884041 591.551994,22.8483049 591.563636,22.8009619 L592.423053,18.404532 C593.183128,14.375463 595.362457,12.7789955 596.93383,12.7789955 C597.369748,12.7789955 597.73685,12.8654029 598.036948,13.0219194 Z M573.61754,5.19868531 C572.583238,5.19868531 571.818248,5.98592411 571.818248,6.9982361 C571.818248,8.0102894 572.583238,8.79752819 573.61754,8.79752819 C574.65236,8.79752819 575.41735,8.0102894 575.41735,6.9982361 C575.41735,5.98592411 574.65236,5.19868531 573.61754,5.19868531 Z M598.200708,19.586037 C597.165889,19.586037 596.400898,20.3735345 596.400898,21.3855878 C596.400898,22.0587378 596.739284,22.6325451 597.270923,22.9414386 C597.537647,23.0964028 597.854043,23.1851386 598.200708,23.1851386 C598.546855,23.1851386 598.862475,23.0964028 599.129717,22.9414386 C599.660838,22.6325451 600,22.0587378 600,21.3855878 C600,20.3735345 599.23501,19.586037 598.200708,19.586037 Z" id="logo-glossier"></path>
                </g>
            </g>
        </g>
    </g>
</svg>