<?xml version="1.0" encoding="UTF-8" standalone="no"?>
<svg width="86px" height="28px" viewBox="0 0 86 28" version="1.1" xmlns="http://www.w3.org/2000/svg" xmlns:xlink="http://www.w3.org/1999/xlink" xmlns:sketch="http://www.bohemiancoding.com/sketch/ns">
    <!-- Generator: Sketch 3.3.3 (12072) - http://www.bohemiancoding.com/sketch -->
    <title>logo-fabfitfun</title>
    <desc>Created with Sketch.</desc>
    <defs></defs>
    <g id="Design" stroke="none" stroke-width="1" fill="none" fill-rule="evenodd" sketch:type="MSPage">
        <g id="Artboard" sketch:type="MSArtboardGroup" transform="translate(-498.000000, -3080.000000)" fill="#B4BBC2">
            <g id="Logos" sketch:type="MSLayerGroup" transform="translate(305.000000, 2960.000000)">
                <g id="Row" transform="translate(56.000000, 120.000000)" sketch:type="MSShapeGroup">
                    <path d="M180.735549,0 C181.144594,0.25987507 181.597374,0.471133392 181.952432,0.79085197 C182.506936,1.2901987 182.623109,2.09422991 182.333556,2.76744496 C182.015595,3.50645859 180.952177,3.79298501 180.372388,3.23769974 C180.183583,3.0569001 180.103141,2.65107716 180.143752,2.37314165 C180.187683,2.0730455 180.433208,1.80321278 180.587258,1.51824834 C180.846059,1.03959791 180.693571,0.620107606 180.16767,0.508718629 C179.128072,0.2884789 178.252288,0.667650491 177.488868,1.34945646 C175.97267,2.703306 175.227896,4.49997797 174.639321,6.37933747 C174.435287,7.03078238 174.269717,7.69452791 174.094091,8.35475898 C173.933988,8.95670852 173.938478,8.96002773 174.542381,8.96041823 C176.413442,8.96158972 178.284406,8.95934437 180.15537,8.96198021 C180.730277,8.96285883 180.761224,9.00151793 180.571248,9.54713843 C179.5337,12.5272085 178.489904,15.5051307 177.452259,18.4852008 C177.367033,18.7298465 177.245882,18.9885501 177.259354,19.234172 C177.276829,19.5511571 177.319685,19.9578587 177.52001,20.1523257 C177.826452,20.4496884 178.300123,20.3460117 178.594948,20.0712002 C179.123582,19.5782966 179.591493,19.0194969 180.07522,18.4796362 C180.182021,18.3605349 180.231907,18.1898882 180.340465,18.0730323 C180.401773,18.0071361 180.550649,17.9541262 180.620646,17.9848778 C180.686054,18.0135793 180.745311,18.1698753 180.728715,18.2545153 C180.461714,19.6146127 178.554239,20.9561617 177.162218,20.776143 C175.567042,20.5699611 175.192068,19.8564274 175.539805,18.3276356 C175.780253,17.2703678 176.197107,16.2518567 176.555583,15.223095 C177.197753,13.3800517 177.851053,11.540718 178.510698,9.70382494 C178.617792,9.40548602 178.57142,9.2882396 178.235399,9.29058258 C176.901367,9.29985686 175.56714,9.30229745 174.233108,9.29009446 C173.878244,9.28687286 173.760022,9.47069884 173.680556,9.77401659 C172.9556,12.543414 172.228301,15.3122257 171.487921,18.077523 C170.814511,20.592317 169.956103,23.0376028 168.242997,25.0547098 C167.654324,25.7478401 166.903986,26.3314364 166.146327,26.8453291 C165.389545,27.3587336 164.473051,27.3651768 163.594728,27.1903323 C162.597987,26.9918627 162.083606,26.2419152 162.173421,25.2373643 C162.249079,24.3914524 163.232836,23.852275 163.959354,24.2854327 C164.106766,24.3732943 164.237973,24.6215521 164.237485,24.7955181 C164.236606,25.1297826 164.136151,25.4636567 164.076893,25.797726 C163.941001,26.5635862 164.377087,26.9615016 165.126351,26.7520005 C166.026737,26.5002282 166.553809,25.8126625 167.012251,25.0751132 C167.933822,23.5925952 168.413644,21.9296681 168.867693,20.2666434 C169.801467,16.8459963 170.703317,13.4166607 171.614539,9.98996086 C171.793972,9.3150862 171.774252,9.29663526 171.092251,9.29390179 C170.620434,9.29194931 170.148227,9.30112597 169.677191,9.28199166 C169.57947,9.27798908 169.486043,9.17089556 169.390665,9.11134492 C169.483505,9.06272818 169.575272,8.97457371 169.669284,8.97203549 C170.222128,8.95719664 170.776633,8.93894095 171.328111,8.96832577 C171.759511,8.99126741 171.964521,8.8447338 172.072103,8.40962366 C172.40832,7.05060005 172.8077,5.71285847 173.528946,4.49089894 C174.786343,2.36064578 176.427012,0.698987792 178.880693,0 L180.735549,0 Z M137,8.98140739 C137.536444,8.97437846 138.073766,8.94626275 138.609039,8.96725191 C139.021988,8.98335987 139.128886,8.81183451 139.142163,8.42143616 C139.180139,7.30315332 139.180725,6.17452233 139.342488,5.07146883 C139.672359,2.82191915 142.312405,0.52414322 144.752614,0.754828717 C146.195106,0.891111811 147.420971,1.75254593 147.684751,2.98680608 C147.807757,3.56249477 147.548956,4.2722212 147.116189,4.54644699 C146.731062,4.79031173 145.756384,4.75624096 145.382289,4.46805493 C145.013075,4.18367624 145.048317,3.78292974 145.143598,3.39653398 C145.192996,3.19650241 145.319321,3.01501941 145.413529,2.8266051 C145.81779,2.01827844 145.488504,1.40344253 144.590168,1.29068682 C143.422487,1.14425083 142.432678,1.60855054 141.939091,2.68368358 C141.660667,3.29022145 141.47235,3.98003259 141.430274,4.64416861 C141.350223,5.90781358 141.412507,7.18004946 141.397278,8.44847801 C141.392787,8.82286602 141.522627,8.97418321 141.907265,8.9659828 C142.752591,8.94801998 143.598699,8.95534178 144.44422,8.9684234 C144.569569,8.97037588 144.693454,9.05960421 144.818022,9.1084162 C144.690135,9.16991932 144.563224,9.28199166 144.434165,9.28462751 C143.605044,9.30112597 142.775045,9.3073739 141.94612,9.28804435 C141.554159,9.2788677 141.394642,9.40470502 141.396106,9.81658065 C141.407528,13.0042969 141.407528,16.1921108 141.396204,19.3799247 C141.394642,19.7961934 141.564117,19.919102 141.951098,19.9043608 C142.487054,19.884055 143.025939,19.8777094 143.560137,19.9143184 C143.72151,19.9253499 143.871753,20.099023 144.027073,20.1981114 C143.880149,20.3050096 143.73381,20.5039673 143.586203,20.5048459 C141.390834,20.5190014 139.195466,20.506896 137,20.5010386 L137,19.9152946 C137.551283,19.9097301 138.102761,19.8949889 138.653848,19.902213 C138.96849,19.9063132 139.136013,19.811618 139.13533,19.4614407 C139.129179,16.2175906 139.12996,12.973643 139.134451,9.72979292 C139.134939,9.42257021 139.015057,9.28882534 138.70227,9.29175406 C138.134977,9.29722101 137.567391,9.2813083 137,9.27427937 L137,8.98140739 Z M207.006361,14.4326336 C207.006849,16.0594398 207.018369,17.6863436 206.999332,19.3129546 C206.994256,19.7532388 207.13132,19.9251547 207.585662,19.908461 C208.365384,19.8796619 209.147157,19.8921578 209.927857,19.9035798 C210.255873,19.9082657 210.396354,19.7883835 210.395671,19.4481638 C210.388935,16.2108546 210.388739,12.9734477 210.395671,9.73623611 C210.396452,9.38771845 210.240937,9.28023443 209.919949,9.29126594 C209.530039,9.30454281 209.138469,9.30688578 208.749144,9.28589662 C208.606223,9.27828195 208.467694,9.19051798 208.327116,9.13936301 C208.458908,9.08020287 208.590115,8.97125449 208.722591,8.96979013 C209.877483,8.95631802 211.03257,8.96764241 212.187559,8.958661 C212.52075,8.95602515 212.662109,9.09787281 212.658204,9.4241322 C212.652249,9.91205692 212.654788,10.4001769 212.662597,10.8881016 C212.663964,10.9752798 212.708383,11.0616771 212.732984,11.1483672 C212.797709,11.0819829 212.879908,11.0256538 212.92462,10.9477499 C213.462528,10.0122191 214.221653,9.31293847 215.221127,8.91746367 C216.773641,8.30321351 218.316589,8.37086693 219.781827,9.18505104 C220.794286,9.74765811 221.157349,10.7110117 221.1635,11.8166034 C221.177069,14.2242063 221.169259,16.6319069 221.170138,19.0395098 C221.170431,19.9002605 221.170431,19.9002605 222.00824,19.9007487 C222.138373,19.9008463 222.270067,19.8885457 222.398345,19.9036774 C222.633912,19.9315979 222.987994,19.7974625 222.999709,20.2019187 C223.011619,20.6157468 222.654999,20.5126559 222.419042,20.5155846 C221.492004,20.5270066 220.564576,20.5204658 219.637344,20.5204658 C218.889056,20.5204658 218.140573,20.5283733 217.392382,20.5156822 C217.156132,20.511582 216.802636,20.6248258 216.789652,20.2221269 C216.77657,19.8122037 217.129676,19.9154899 217.369441,19.9046536 C217.694138,19.8899124 218.021471,19.8811262 218.344997,19.905337 C218.773859,19.93726 218.911216,19.7567533 218.908873,19.3374582 C218.895597,16.9461585 218.902723,14.5546635 218.902625,12.1632662 C218.902625,11.8379831 218.90653,11.5125047 218.899501,11.1872215 C218.865235,9.6182087 217.823099,8.79640992 216.274392,9.0746383 C214.185044,9.45000256 212.810693,11.3255547 212.699206,13.2467949 C212.579617,15.3060754 212.667479,17.3772661 212.657423,19.443185 C212.655764,19.7782306 212.799954,19.9116826 213.128459,19.9027988 C213.53477,19.8917673 213.94401,19.88015 214.347002,19.9194925 C214.476354,19.932086 214.590086,20.1055638 214.710944,20.2054332 C214.594283,20.3086217 214.488752,20.4305541 214.356862,20.5075794 C214.283351,20.5504363 214.166105,20.5200753 214.068481,20.5201729 C211.091437,20.5204658 208.114491,20.5210515 205.137447,20.51988 C204.476142,20.5195872 204.45486,20.4961574 204.451443,19.8335834 C204.449296,19.4106762 204.453298,18.9875738 204.447831,18.5647643 C204.446855,18.4907653 204.412882,18.4171568 204.394138,18.3433531 C204.340542,18.3960701 204.270546,18.439708 204.235792,18.5027731 C203.833483,19.2325124 203.260821,19.797072 202.564664,20.2434089 C201.098157,21.1838208 198.543239,20.9661193 197.252357,19.8002936 C196.346211,18.9819116 196.187182,17.8787605 196.165997,16.7686781 C196.123043,14.5081945 196.153697,12.2463442 196.152525,9.98517729 C196.152232,9.29897824 196.148327,9.29526853 195.483118,9.29419466 C194.490867,9.29263268 193.498129,9.30825252 192.506269,9.28726336 C192.096541,9.27857482 191.97334,9.43487084 191.974707,9.83073613 C191.985738,13.0030278 191.987105,16.1753195 191.973437,19.3475135 C191.97168,19.7772543 192.11919,19.9291573 192.541414,19.9068014 C193.027972,19.8810286 193.51902,19.8795643 194.003919,19.9190044 C194.141081,19.9301335 194.263794,20.121086 194.393048,20.2295463 C194.267894,20.3253154 194.143326,20.5036745 194.017293,20.5047483 C191.935169,20.5221254 189.852751,20.5231016 187.770724,20.5039673 C187.637663,20.5026982 187.506456,20.3074502 187.374469,20.2025044 C187.512704,20.1028303 187.642154,19.9364791 187.790835,19.9170519 C188.126759,19.8730235 188.47225,19.9019202 188.813934,19.900651 C189.498181,19.8983081 189.500524,19.8981128 189.500719,19.2313409 C189.501598,16.1404677 189.50111,13.0495944 189.501012,9.95862356 C189.501012,9.87730278 189.495936,9.79578674 189.500231,9.7146612 C189.51507,9.43496846 189.402314,9.29136357 189.104561,9.29370654 C188.22614,9.3004426 187.346158,9.26988629 186.470373,9.31801492 C186.284887,9.32826544 186.024426,9.57681612 185.951013,9.77274748 C185.305816,11.4933704 184.69264,13.226001 184.075168,14.956972 C183.659778,16.1210405 183.238433,17.2834494 182.850963,18.4568898 C182.741429,18.788909 182.703844,19.1569515 182.700525,19.5090812 C182.695058,20.0978515 182.97397,20.3637793 183.559128,20.2734771 C183.894564,20.2217364 184.276371,20.0820364 184.512133,19.8531082 C184.996348,19.3827558 185.39729,18.8264942 185.830057,18.3036201 C185.902006,18.2166372 185.943594,18.0876759 186.032627,18.037009 C186.112581,17.9916139 186.251012,17.9995214 186.338776,18.0391567 C186.380852,18.0581934 186.402915,18.2222017 186.370699,18.2907338 C185.61997,19.8873742 184.141357,21.1984644 182.130889,20.6591895 C181.320414,20.4417808 180.779675,19.7543127 180.909124,18.9045934 C181.040136,18.0446237 181.270724,17.189047 181.555395,16.3652958 C182.298997,14.2136629 183.097366,12.0809692 183.870744,9.93948926 C184.095474,9.3171363 184.07673,9.29644002 183.395315,9.29380417 C182.956104,9.29214456 182.516601,9.29956398 182.077879,9.28365127 C181.987089,9.28033206 181.899325,9.19159185 181.810194,9.14229173 C181.896298,9.08459595 181.980841,8.98013828 182.068898,8.97701431 C182.588843,8.95856337 183.111815,8.93327876 183.629515,8.96988776 C184.085223,9.00210368 184.311809,8.82540425 184.443308,8.40015413 C184.625572,7.81040759 184.867973,7.23950248 185.063709,6.65356327 C185.161138,6.36186278 185.33276,6.23114425 185.63764,6.24002803 C185.995139,6.25037617 186.353517,6.25027855 186.711114,6.23934466 C187.068027,6.22841078 187.18664,6.35581009 187.054262,6.70959944 C186.820843,7.33410012 186.617102,7.96972995 186.380071,8.5928639 C186.26712,8.89003133 186.360936,8.96715429 186.650196,8.96363982 C187.430895,8.95407267 188.21218,8.94704374 188.992586,8.96608042 C189.370977,8.9753547 189.504527,8.83926685 189.508432,8.45716654 C189.518194,7.49937755 189.4892,6.53143565 189.616111,5.5864354 C189.93046,3.24590016 191.321407,1.70119571 193.501936,0.956324639 C194.95546,0.459809009 196.376963,0.704161864 197.503251,1.8769189 C198.145714,2.54593612 198.261887,3.46448028 197.842787,4.16493243 C197.503934,4.73134684 196.505046,4.90433655 195.82734,4.51403583 C195.400332,4.26802337 195.335608,3.65211359 195.67202,3.02644142 C195.718196,2.9405323 195.773939,2.85940677 195.815137,2.77134992 C196.167462,2.01915705 195.867561,1.44229688 195.052693,1.30103496 C193.965162,1.1124254 192.91463,1.58219206 192.487037,2.63584782 C192.194556,3.35631289 192.056418,4.16825164 192.002627,4.94982934 C191.923552,6.09944948 191.996672,7.2587344 191.972949,8.41333337 C191.963968,8.8492245 192.12739,8.97193786 192.544147,8.96783765 C194.300891,8.95085108 196.057928,8.9607111 197.814867,8.96090635 C198.708321,8.96100397 198.708517,8.96119922 198.708614,9.87876714 C198.70881,12.3514853 198.703147,14.8242034 198.714667,17.2969215 C198.716619,17.7166071 198.750983,18.1450788 198.840504,18.5541233 C199.240177,20.381254 200.906911,20.7211807 202.154937,19.9577611 C203.568434,19.0931054 204.342983,17.7402321 204.418837,16.1149878 C204.51734,14.00465 204.442852,11.8865022 204.454372,9.77167362 C204.456325,9.41026959 204.309986,9.27701284 203.95854,9.29038733 C203.536218,9.30639766 203.112237,9.30278557 202.690209,9.28267503 C202.588485,9.27779383 202.491446,9.17450765 202.392163,9.11642137 C202.482465,9.06614502 202.572474,8.97262123 202.663167,8.97193786 C203.9807,8.96227309 205.298429,8.96549468 206.61606,8.96451844 C206.997282,8.96422557 207.00597,9.22956758 207.00597,9.50350051 C207.005873,11.1465123 207.005873,12.7896217 207.006361,14.4326336 Z M156.804394,10.4659755 C156.804491,7.73338226 156.805077,5.00069144 156.804101,2.26809824 C156.803906,1.57457739 156.801758,1.57487026 156.089493,1.57213679 C155.829325,1.57106293 155.562128,1.6023026 155.311723,1.55163575 C155.178564,1.52478915 155.074399,1.35443528 154.957153,1.24880612 C155.075375,1.12775237 155.191353,0.903998178 155.312113,0.901459955 C156.531339,0.875784844 157.751639,0.873929989 158.97067,0.904681546 C159.101584,0.908000762 159.272231,1.14093161 159.340275,1.30269457 C159.404511,1.45537849 159.359409,1.65482431 159.359507,1.83376909 C159.359897,4.64768308 159.359116,7.46159706 159.361947,10.2756087 C159.362045,10.3994935 159.39387,10.523476 159.410954,10.6473608 C159.486125,10.5517869 159.572522,10.4630467 159.634611,10.3596629 C160.693929,8.59657361 162.949141,7.97021807 165.004614,8.87128752 C168.832939,10.549444 169.976799,15.3259907 167.317131,18.5604689 C166.141738,19.9898794 164.668397,20.830422 162.766486,20.814314 C161.36978,20.8024039 160.354197,20.1579879 159.627582,18.9995816 C159.56891,18.9061554 159.501452,18.8182938 159.438094,18.727894 C159.412028,18.8451404 159.367219,18.9618011 159.363314,19.0798285 C159.35199,19.421122 159.35609,19.7629036 159.35609,20.1043923 C159.355992,20.3837922 159.22625,20.5219301 158.938942,20.519099 C158.353491,20.5134369 157.767845,20.522223 157.182492,20.5110939 C157.079303,20.5091414 156.899968,20.4570102 156.886788,20.398631 C156.763294,19.8481293 156.539638,20.1901062 156.312662,20.308817 C155.1894,20.8962205 154.007662,20.9817391 152.815575,20.5932933 C152.126154,20.3687581 151.69739,19.8343644 151.490817,19.1331312 C151.468559,19.057375 151.425897,18.9876715 151.392705,18.9152345 C151.341062,18.9715635 151.272237,19.0195945 151.240412,19.0854907 C150.738722,20.1238195 149.854542,20.6176993 148.763984,20.753299 C147.776713,20.87611 146.787879,20.8863605 145.834679,20.4924477 C144.899245,20.1059543 144.383986,19.4313725 144.313794,18.4191093 C144.239893,17.3525672 144.512947,16.3923376 145.48909,15.8694635 C146.310888,15.4292769 147.229335,15.168328 148.108048,14.8358206 C148.882597,14.5426558 149.666323,14.2730183 150.436381,13.968822 C150.969505,13.758247 151.278681,13.3070289 151.315094,12.7683397 C151.369373,11.9645038 151.38099,11.1463171 151.292641,10.3473623 C151.200191,9.51140805 150.599218,9.01869975 149.748815,9.00766824 C149.237363,9.00112744 148.714782,9.07180721 148.214556,9.18495341 C147.695392,9.30229745 147.425071,9.68156667 147.455042,10.2302135 C147.480717,10.7000778 147.53851,11.1683801 147.556375,11.638342 C147.580196,12.2661619 147.294352,12.6137033 146.722569,12.6946336 C145.844441,12.8189089 145.349194,12.5910545 145.169469,11.9802212 C144.906079,11.0845211 145.414993,9.92494328 146.369756,9.24518742 C147.850028,8.19143403 150.928699,8.22013549 152.407604,9.29897824 C153.327222,9.96985032 153.692043,10.9152411 153.700244,12.0081417 C153.717133,14.2526149 153.704734,16.497381 153.707565,18.7420495 C153.709323,20.0870152 154.304439,20.5180252 155.574527,20.0550922 C155.933002,19.9244713 156.284644,19.7111629 156.564629,19.4542165 C156.723073,19.3088544 156.793362,18.9981172 156.794631,18.761379 C156.809861,15.9962771 156.804394,13.2310774 156.804394,10.4659755 Z M165.999891,14.7706078 C165.945221,13.2010093 165.941414,11.929652 165.502789,10.7151119 C165.159934,9.76562093 164.509856,9.15693533 163.492906,9.01450192 C161.514654,8.73744503 159.957258,9.74472939 159.640371,11.7152697 C159.407635,13.1622525 159.408416,14.6569735 159.423548,16.1292409 C159.431065,16.8596637 159.612743,17.622888 159.876523,18.3095752 C160.608996,20.216367 162.29877,20.7031203 164.124436,20.0900416 C165.244281,19.7140916 165.623452,18.6914803 165.766374,17.6247429 C165.906269,16.5808495 165.941707,15.5229959 165.999891,14.7706078 L165.999891,14.7706078 Z M151.437417,15.5344179 C151.437417,15.112487 151.440053,14.6904585 151.434977,14.2685276 C151.434098,14.1939429 151.401296,14.119651 151.383138,14.0452615 C151.317828,14.0850921 151.253884,14.127461 151.186914,14.1644604 C150.918546,14.3129465 150.658866,14.4825194 150.378197,14.6025969 C149.736807,14.8769203 149.078431,15.1119013 148.438506,15.3893487 C146.697089,16.144275 146.425499,17.6580327 147.022177,19.2409081 C147.142938,19.5612124 147.509516,19.8689232 147.837435,20.0164331 C148.953472,20.5186109 150.305662,19.9880245 150.878617,18.9038124 C151.440541,17.8406872 151.451573,16.6906765 151.437417,15.5344179 Z M179.991459,7.71668855 C179.245612,7.71288122 178.678709,7.15515535 178.684469,6.43098056 C178.690131,5.7125656 179.267577,5.14605356 179.995852,5.14429633 C180.705383,5.1425391 181.293568,5.69899586 181.306649,6.38441392 C181.321195,7.14422146 180.752145,7.72059351 179.991459,7.71668855 Z" id="logo-fabfitfun"></path>
                </g>
            </g>
        </g>
    </g>
</svg>