<svg xmlns="http://www.w3.org/2000/svg" width="112" height="29" viewBox="0 0 112 29"><g fill="#B4BBC2"><path d="M26.8 2.1s-.1 0 0 0h-.1c-.1-.1-.3-.1-.4-.1h-.2c-1.1-.3-2.3-.5-3.4-.6-1.2-.2-2.4-.2-3.6-.3h-.7c-.8 0-1.5 0-2.3.1.1 1-.2 2-.9 2.7-.6.6-1.4 1.1-2.3 1.1h-.3c-.9 0-1.7-.3-2.3-.9-.5-.5-.9-1.1-1-1.8-1.2.3-2.3.7-3.5 1.1-1 .5-2.1.9-3.1 1.5-.5.3-1 .5-1.5.8-.3.2-.5.3-.8.5-.1 0-.1.1-.2.1-.2.1-.2.1-.2.2l2.9 6.4c1-.6 2.1-1.2 3.3-1.7.1 0 .1-.1.2-.1l2.3 9.6v.1h.1c.6-.3 1.1-.6 1.6-.8.6-.2 1.2-.4 1.7-.6 1-.3 2.1-.4 3.1-.4h.5c.5 0 1.2.1 1.8.3.3.1.5.2.7.4.2.2.3.4.3.7 0 .6-.4 1-.8 1.3-.2.2-.5.3-.7.4-.2.1-.5.3-.8.4-.5.2-1.1.4-1.7.5-.6.1-1.2.2-1.8.2h-1c-.2 0-.3 0-.4-.1-.1 0-.2-.1-.2-.1.1-.1.2-.2.3-.2.1-.1.2-.1.4-.2s.5-.2.8-.3c.5-.2 1.1-.3 1.8-.3H15.9c.3-.1 1.4-.5 1.7-1.2h-.1c-.1 0-.3-.1-.4-.1-.3-.1-.6-.1-.9-.2-.3 0-.7-.1-1-.1h-.8c-.7.1-1.3.2-1.8.3-.6.2-1.2.4-1.7.6-.6.3-1 .7-1.2 1.1-.3.5-.3 1 0 1.5.2.4.7.7 1.3.9.4.1.9.2 1.5.2h.3c.6 0 1.2-.1 1.8-.2.6-.1 1.2-.3 1.8-.5.6-.2 1.1-.5 1.6-.7.1 0 .1-.1.2-.1l.1-.1V23.7c0 .2-.1.5-.3.7-.3.4-.7.7-1.2 1-.5.2-1 .4-1.6.6-.6.2-1.2.3-1.8.4h-.5-.1-.1l.1 1.5h.2c.3 0 .6-.1.9-.1 1.4-.2 2.5-.6 3.4-1 1.2-.6 2-1.4 2.4-2.3.2-.6.3-1.2.1-1.8 0-.1-.1-.3-.1-.4v-.1-.1s0-.1.1-.1c.2-.2.3-.5.3-.8.1-.6.1-1.2-.1-1.7s-.6-.9-1.1-1.3c-.5-.3-1-.5-1.7-.6-.6-.1-1.1-.2-1.8-.2-1.3 0-2.5.2-3.6.5-.6.2-1.2.4-2 .7L7.5 9.2v-.1c-1.1.4-2.3.9-3.4 1.5-.2.1-.3.2-.5.2L1.9 7s.1 0 .2-.1c.5-.3 1-.6 1.5-.8 1-.5 2.1-1 3.2-1.4.5-.2 1.1-.4 1.6-.6.2.4.5.7.8 1 .7.6 1.5 1.1 2.4 1.3.3.1.6.1 1 .1.6 0 1.2-.1 1.7-.3.8-.3 1.5-.8 2.1-1.5.3-.3.5-.7.7-1.1.1-.2.2-.4.2-.6 0-.1.1-.2.1-.3v-.2H18.2c1 0 2 0 2.9.1 1.2.1 2.4.3 3.6.5h.2l-.8 4.2c-.1 0-.3 0-.5-.1h-.3c-.3 0-.6-.1-.9-.1-.6-.1-1.2-.1-1.9-.1h-.9-.1l-.4 9.2s0 .1.1.1c.1.1.3.1.4.2.3.2.5.3.7.5l.1.1s0 .1.1.1l.1.1v-.2l.4-8.7c1.2.1 2.4.2 3.6.4.2 0 .3.1.5.1H25.4l1.4-6.8c.1 0 .1 0 0 0zM29.1 18.9v-5.7h-1.6v-1.9h1.6V8.7h2.1v2.7h2v1.9h-2v5.2c0 .7.3 1.2.9 1.2.4 0 .8-.2.9-.4l.5 1.6c-.4.3-1 .6-2 .6-1.5 0-2.4-.9-2.4-2.6zM34.6 16.3c0-2.9 2.1-5.2 5-5.2 3 0 4.8 2.2 4.8 5.3v.6h-7.6c.2 1.5 1.3 2.7 3.1 2.7 1 0 2.1-.4 2.8-1.1l1 1.4c-1 .9-2.4 1.4-4 1.4-2.9.1-5.1-2-5.1-5.1zm5-3.4c-1.8 0-2.7 1.4-2.8 2.6h5.5c0-1.2-.8-2.6-2.7-2.6zM45.9 16.3c0-2.9 2.1-5.2 5-5.2 3 0 4.8 2.2 4.8 5.3v.6h-7.6c.2 1.5 1.3 2.7 3.1 2.7 1 0 2.1-.4 2.8-1.1l1 1.4c-1 .9-2.4 1.4-4 1.4-2.9.1-5.1-2-5.1-5.1zm5-3.4c-1.8 0-2.7 1.4-2.8 2.6h5.5c.1-1.2-.7-2.6-2.7-2.6zM57.1 19.9l1-1.5c.7.7 2.1 1.4 3.3 1.4 1.3 0 2-.5 2-1.3 0-1.9-6-.6-6-4.3 0-1.6 1.4-3 3.9-3 1.7 0 2.9.6 3.8 1.4l-.9 1.4c-.6-.7-1.7-1.2-2.9-1.2-1.1 0-1.8.5-1.8 1.2 0 1.7 6 .4 6 4.3 0 1.8-1.4 3.1-4.1 3.1-1.8.1-3.3-.5-4.3-1.5zM69.7 19.8V25h-2.1V11.4h2.1v1.3c.7-1 1.9-1.6 3.2-1.6 2.6 0 4.4 1.9 4.4 5.2s-1.8 5.2-4.4 5.2c-1.3 0-2.4-.6-3.2-1.7zm5.3-3.5c0-1.9-1.1-3.3-2.8-3.3-1 0-2 .6-2.5 1.3v3.9c.5.7 1.5 1.3 2.5 1.3 1.7.1 2.8-1.3 2.8-3.2zM79.3 21.2v-9.9h2.1v1.4c.8-.9 1.9-1.7 3.2-1.7v2.1c-.2 0-.4-.1-.7-.1-.9 0-2.1.6-2.6 1.3V21h-2zM86.2 8.8c0-.7.6-1.3 1.3-1.3.7 0 1.3.6 1.3 1.3 0 .7-.6 1.3-1.3 1.3-.7.1-1.3-.5-1.3-1.3zm.2 12.4v-9.9h2.1v9.9h-2.1zM98 21.2V15c0-1.6-.8-2-2-2-1.1 0-2 .7-2.5 1.3v6.9h-2.1v-9.9h2.1v1.3c.7-.8 1.9-1.6 3.5-1.6 2.1 0 3.2 1.1 3.2 3.2v6.9H98zM102.8 23.7l1-1.6c.8.9 1.8 1.3 3.1 1.3 1.4 0 2.9-.7 2.9-2.8v-1.1c-.8 1-1.9 1.7-3.2 1.7-2.5 0-4.4-1.8-4.4-5.1 0-3.2 1.8-5.1 4.4-5.1 1.2 0 2.4.6 3.2 1.6v-1.4h2.1v9.3c0 3.5-2.7 4.5-5.1 4.5-1.5.2-2.8-.2-4-1.3zm7.1-5.7v-3.7c-.5-.7-1.5-1.3-2.5-1.3-1.7 0-2.8 1.3-2.8 3.2s1.1 3.1 2.8 3.1c.9 0 2-.6 2.5-1.3z"/></g></svg>