<?xml version="1.0" encoding="UTF-8" standalone="no"?>
<svg width="55px" height="27px" viewBox="0 0 55 27" version="1.1" xmlns="http://www.w3.org/2000/svg" xmlns:xlink="http://www.w3.org/1999/xlink" xmlns:sketch="http://www.bohemiancoding.com/sketch/ns">
    <!-- Generator: Sketch 3.3.3 (12072) - http://www.bohemiancoding.com/sketch -->
    <title>logo-sap</title>
    <desc>Created with Sketch.</desc>
    <defs></defs>
    <g id="Design" stroke="none" stroke-width="1" fill="none" fill-rule="evenodd" sketch:type="MSPage">
        <g id="Artboard" sketch:type="MSArtboardGroup" transform="translate(-920.000000, -2960.000000)" fill="#B4BBC2">
            <g id="Logos" sketch:type="MSLayerGroup" transform="translate(305.000000, 2960.000000)">
                <g id="Row" sketch:type="MSShapeGroup">
                    <path d="M615,0 L615,27 L642.583249,27 L669.581604,0 L615,0 Z M648.25882,16.612715 L646.523055,16.612715 L646.523055,21.7721455 L638.564985,21.7721455 L637.776136,19.3039481 C636.93383,19.5799468 635.981651,19.7342297 634.974865,19.7342297 C633.939294,19.7342297 632.964417,19.5702424 632.106979,19.2809208 L631.287208,21.7721455 L626.408546,21.7721455 L626.945904,20.3316235 C626.881921,20.3883694 626.817116,20.4472535 626.750337,20.5007097 C625.532521,21.4785475 624.011568,22.0183731 622.125139,22.0519272 L621.846016,22.0540654 C619.682108,22.0540654 617.558826,21.4566715 615.764506,20.4360688 L617.424281,17.140698 C619.221233,18.2025854 620.349406,18.4407534 621.873319,18.4103245 C622.662004,18.3951923 623.232094,18.2506138 623.604972,17.8658934 C623.829488,17.6305215 623.949724,17.3407065 623.956138,17.0283577 C623.971106,16.1719067 622.75362,15.7704093 621.262767,15.3100278 C620.053669,14.9335315 618.681571,14.422819 617.611131,13.6377526 C616.339531,12.7035022 615.735229,11.5351958 615.764506,9.8856189 C615.784244,8.68622566 616.228177,7.60542299 617.050745,6.75226161 C618.231059,5.53247275 620.137555,4.78967792 622.423672,4.78967792 L622.43683,4.78967792 C624.396947,4.79296754 626.789647,5.34808989 628.52311,6.22987091 L626.652635,9.48116087 C624.758146,8.56533234 623.8035,8.4796379 622.723027,8.42124725 C621.116215,8.33407248 620.301542,8.91057733 620.291673,9.52984715 C620.278021,10.2854715 621.809994,10.9702046 623.259892,11.4342047 C625.452748,12.1314384 628.239216,13.0637149 628.663576,15.7552771 L632.671806,5.07439401 L637.32513,5.07439401 L642.01908,17.8473071 L642.01908,5.07439401 L647.391513,5.07570986 C652.5266,5.07570986 654.938874,6.90605106 654.938874,10.8948725 C654.938874,14.4767686 652.454722,16.612715 648.25882,16.612715 Z M647.70748,8.58934652 L646.523055,8.58934652 L646.523055,12.9201233 L647.70748,12.9201233 C649.28633,12.9201233 650.542634,12.3959233 650.542634,10.7297338 C650.542634,9.11321755 649.28633,8.58934652 647.70748,8.58934652 Z M634.956937,10.3326774 L633.252916,15.7041236 C633.76001,15.8970595 634.349016,16.0082484 634.974865,16.0082484 C635.58624,16.0082484 636.15929,15.9013359 636.660463,15.7195848 L634.991806,10.3326774 L634.956937,10.3326774" id="logo-sap"></path>
                </g>
            </g>
        </g>
    </g>
</svg>