<svg width="14" height="19" xmlns="http://www.w3.org/2000/svg"><defs><linearGradient x1="50%" y1="0%" x2="50%" y2="100%" id="a"><stop stop-color="#FFF" offset="0%"/><stop stop-color="#FFF" stop-opacity=".85" offset="100%"/></linearGradient></defs><g fill="none" fill-rule="evenodd"><path d="M8 4.657V12H6V4.657L4.2 6.2 2.7 4.7 7 1l4.3 3.7-1.5 1.5L8 4.657zM3.375 7H2.006C.897 7 0 7.8992 0 9.0085v7.983C0 18.098.898 19 2.006 19h9.988C13.103 19 14 18.1008 14 16.9915v-7.983C14 7.902 13.102 7 11.994 7h-1.369l-.75 2h1.1296c.5497 0 .9954.453.9954.997v6.5026c0 .2763-.2277.5004-.5096.5004H2.5096C2.2282 17 2 16.7692 2 16.4996V9.997C2 9.4464 2.4557 9 2.9954 9H4.125l-.75-2z" fill-opacity=".1486" fill="#054A80"/><path d="M522 383.657V391h-2v-7.343l-1.8 1.543-1.5-1.5 4.3-3.7 4.3 3.7-1.5 1.5-1.8-1.543zM517.375 386h-1.369c-1.109 0-2.006.8992-2.006 2.0085v7.983c0 1.1066.898 2.0085 2.006 2.0085h9.988c1.109 0 2.006-.8992 2.006-2.0085v-7.983c0-1.1066-.898-2.0085-2.006-2.0085h-1.369l-.75 2h1.1296c.5497 0 .9954.453.9954.997v6.5026c0 .2763-.2277.5004-.5096.5004h-8.9808c-.2814 0-.5096-.2308-.5096-.5004v-6.5026c0-.5506.4557-.997.9954-.997h1.1296l-.75-2z" fill="url(#a)" transform="translate(-514 -380)"/></g></svg>