<svg width="15" height="16" xmlns="http://www.w3.org/2000/svg"><defs><linearGradient x1="50%" y1="0%" x2="50%" y2="100%" id="a"><stop stop-color="#FFF" offset="0%"/><stop stop-color="#FFF" stop-opacity=".85" offset="100%"/></linearGradient></defs><g fill="none" fill-rule="evenodd"><path d="M8 2H2.006C.897 2 0 2.898 0 4.006v9.988C0 15.103.898 16 2.006 16h9.988C13.103 16 14 15.102 14 13.994V8h-2v5.4903c0 .2815-.2277.5097-.5097.5097H2.5097C2.2282 14 2 13.7723 2 13.4903v-8.495C2 4.4458 2.4557 4 2.9954 4H8V2zm4 5c1.657 0 3-1.343 3-3s-1.343-3-3-3-3 1.343-3 3 1.343 3 3 3z" fill-opacity=".1486" fill="#054A80"/><path d="M345 384h-5.994c-1.109 0-2.006.898-2.006 2.006v9.988c0 1.109.898 2.006 2.006 2.006h9.988c1.109 0 2.006-.898 2.006-2.006V390h-2v5.4903c0 .2815-.2277.5097-.5097.5097h-8.9806c-.2815 0-.5097-.2277-.5097-.5097v-8.495c0-.5496.4557-.9953.9954-.9953H345v-2zm4 5c1.657 0 3-1.343 3-3s-1.343-3-3-3-3 1.343-3 3 1.343 3 3 3z" fill="url(#a)" transform="translate(-337 -383)"/></g></svg>