<svg width="16" height="13" xmlns="http://www.w3.org/2000/svg"><defs><linearGradient x1="50%" y1="0%" x2="50%" y2="100%" id="a"><stop stop-color="#FFF" offset="0%"/><stop stop-color="#FFF" stop-opacity=".85" offset="100%"/></linearGradient></defs><g fill="none" fill-rule="evenodd"><path d="M14 4v-.003C14 3.453 13.5512 3 12.9975 3h-9.995C2.4558 3 2 3.4464 2 3.997V4h12zm0 2v4.4996c0 .2763-.229.5004-.5003.5004H2.5003C2.224 11 2 10.7692 2 10.4996V6h12zM0 3.0085C0 1.8992.8945 1 1.994 1h12.012C15.107 1 16 1.902 16 3.0085v7.983C16 12.1008 15.1055 13 14.006 13H1.994C.893 13 0 12.098 0 10.9915v-7.983z" fill-opacity=".1486" fill="#054A80"/><path d="M174 388v-.003c0-.544-.4488-.997-1.0025-.997h-9.995c-.5467 0-1.0025.4464-1.0025.997V388h12zm0 2v4.4996c0 .2763-.229.5004-.5003.5004h-10.9994c-.2763 0-.5003-.2308-.5003-.5004V390h12zm-14-2.9915c0-1.1093.8945-2.0085 1.994-2.0085h12.012c1.1012 0 1.994.902 1.994 2.0085v7.983c0 1.1093-.8945 2.0085-1.994 2.0085h-12.012c-1.1012 0-1.994-.902-1.994-2.0085v-7.983z" fill="url(#a)" transform="translate(-160 -385)"/></g></svg>