<svg width="26" height="26" xmlns="http://www.w3.org/2000/svg">
  <g fill="none" fill-rule="evenodd">
    <circle stroke="#CEA5F4" stroke-width="2" fill="#FDFCFF" cx="13" cy="13" r="12"/>
    <path d="M15.23 13.24c1.2-.75 1.77-1.72 1.77-2.88C17 9.2 16.15 7 13.1 7 10.07 7 9 9.17 9 11h2.36c0-1.45.82-2.06 1.67-2.06.84 0 1.37.37 1.37 1.3 0 .96-.15 1.14-1.03 1.82-.8.6-1.53 1.3-1.57 2.94H14c.1-.53.35-1.2 1.23-1.76zM13 19.5c.83 0 1.5-.67 1.5-1.5s-.67-1.5-1.5-1.5-1.5.67-1.5 1.5.67 1.5 1.5 1.5z" fill="#CEA5F4"/>
  </g>
</svg>
