<svg width="63" height="27" xmlns="http://www.w3.org/2000/svg"><path d="M54.54 13c.12-2.18.67-3.2 1.7-3.2 1.02 0 1.55 1.04 1.62 3.2h-3.32zm6.1-4.36c-.98-1.26-2.45-1.9-4.32-1.9-3.84 0-6.22 2.8-6.22 7.3 0 2.53.64 4.42 1.9 5.62 1.12 1.08 2.74 1.62 4.83 1.62 1.92 0 3.7-.45 4.83-1.18l-.5-3.07c-1.1.6-2.4.92-3.84.92-.88 0-1.48-.18-1.9-.56-.48-.4-.76-1.05-.85-1.8h7.48c0-.38.05-1.4.05-1.72 0-2.23-.5-4-1.45-5.24zM44.07 16.9c-.36.7-.93 1.05-1.58 1.05-.46 0-.86-.1-1.22-.27v-6.66c.76-.8 1.46-.88 1.7-.88 1.16 0 1.72 1.22 1.72 3.62 0 1.37-.2 2.43-.62 3.15zm.42-10.17c-1.3 0-2.46.54-3.53 1.68L40.72 7H37v19.2l4.26-.74v-4.5c.7.22 1.4.32 2.04.32 1.13 0 2.76-.28 4.03-1.65 1.22-1.32 1.84-3.35 1.84-6.04 0-2.38-.45-4.18-1.36-5.34-.8-1.02-1.9-1.53-3.32-1.53zM30.45 7h4.53v14h-4.53V7zm2.27-1.38c1.3 0 2.37-1.06 2.37-2.36C35.1 1.94 34.02.9 32.7.9c-1.33 0-2.38 1.04-2.38 2.36 0 1.3 1.05 2.36 2.38 2.36zm-6.9 3.04L25.53 7H21.6v14h4.5v-9.08c.57-.68 1.37-.93 2.46-.93.23 0 .5 0 .64.04V6.92c-.15-.07-.42-.1-.7-.1-1.27 0-2.3.65-2.7 1.84zm-5.97 1.66L20.4 7h-2.88V2.98l-3.87.63L13.1 7l-1.37.22-.5 3.1h1.85v6.5c0 1.7.44 2.86 1.33 3.58.76.6 1.83.88 3.34.88 1.16 0 1.87-.2 2.36-.32v-3.5c-.27.06-.9.2-1.3.2-.9 0-1.28-.46-1.28-1.5v-5.84h2.33zm-12.9 1.96c-1.34-.5-2.07-.86-2.07-1.46 0-.5.42-.8 1.17-.8 1.36 0 2.76.53 3.72 1l.55-3.33c-.76-.37-2.33-.97-4.5-.97-1.52 0-2.8.4-3.7 1.14-.95.77-1.44 1.9-1.44 3.24 0 2.46 1.5 3.5 3.97 4.4 1.58.54 2.1.94 2.1 1.55 0 .6-.5.94-1.43.94-1.15 0-3.04-.57-4.27-1.3L.5 20.1c1.05.6 3.02 1.2 5.06 1.2 1.6 0 2.96-.37 3.87-1.1 1.02-.8 1.54-1.96 1.54-3.47 0-2.5-1.54-3.54-4.03-4.42z" fill="#264367"/></svg>
