<?xml version="1.0" encoding="UTF-8" standalone="no"?>
<svg width="50px" height="52px" viewBox="0 0 50 52" version="1.1" xmlns="http://www.w3.org/2000/svg" xmlns:xlink="http://www.w3.org/1999/xlink" xmlns:sketch="http://www.bohemiancoding.com/sketch/ns">
    <title>tick</title>
    <description>Created with Sketch (http://www.bohemiancoding.com/sketch)</description>
    <defs></defs>
    <g id="Page-1" stroke="none" stroke-width="1" fill="none" fill-rule="evenodd" sketch:type="MSPage">
        <path d="M23.9907115,26.2639075 C23.9907115,26.2639075 41.4898281,5.21124413 43.969421,4.23993589 C46.4490138,3.26862748 48.5409816,5.38777367 46.7970599,8.05286814 C45.0531381,10.7179626 27.3270932,36.8593735 25.9000802,38.1721303 C24.4730672,39.4848872 22.9806144,38.5515765 22.019597,37.7446597 C21.0585797,36.9377429 13.8018705,25.0780722 13.2129109,23.8988341 C12.6239513,22.7195959 13.3635811,20.4249757 14.1340837,19.8864155 C14.9045863,19.3478553 16.7049762,19.4605618 17.8343431,20.4371138 C18.96371,21.4136658 23.9907115,26.2639075 23.9907115,26.2639075 Z" id="Path-10" fill-opacity="0.501034007" fill="#37990F" sketch:type="MSShapeGroup"></path>
        <path d="M47.7330746,16.5831524 C49.1885387,19.7542688 50,23.2823709 50,27 C50,40.8071194 38.8071194,52 25,52 C11.1928806,52 0,40.8071194 0,27 C0,13.1928806 11.1928806,2 25,2 C29.547186,2 33.8108253,3.21400686 37.4844836,5.33558625 L34.6160714,8.32606807 C31.7349365,6.83943664 28.4654988,6 25,6 C13.4020197,6 4,15.4020197 4,27 C4,38.5979803 13.4020197,48 25,48 C36.5979803,48 46,38.5979803 46,27 C46,24.6826883 45.6246596,22.453042 44.931457,20.3685396 L47.7330746,16.5831524 Z" id="Oval-21" fill-opacity="0.501034007" fill="#37990F" sketch:type="MSShapeGroup"></path>
        <path d="M23.9907115,24.2639075 C23.9907115,24.2639075 41.4898281,3.21124413 43.969421,2.23993589 C46.4490138,1.26862748 48.5409816,3.38777367 46.7970599,6.05286814 C45.0531381,8.71796258 27.3270932,34.8593735 25.9000802,36.1721303 C24.4730672,37.4848872 22.9806144,36.5515765 22.019597,35.7446597 C21.0585797,34.9377429 13.8018705,23.0780722 13.2129109,21.8988341 C12.6239513,20.7195959 13.3635811,18.4249757 14.1340837,17.8864155 C14.9045863,17.3478553 16.7049762,17.4605618 17.8343431,18.4371138 C18.96371,19.4136658 23.9907115,24.2639075 23.9907115,24.2639075 Z" id="Path-10" fill="#FFFFFF" sketch:type="MSShapeGroup"></path>
        <path d="M47.7330746,14.5831524 C49.1885387,17.7542688 50,21.2823709 50,25 C50,38.8071194 38.8071194,50 25,50 C11.1928806,50 0,38.8071194 0,25 C0,11.1928806 11.1928806,0 25,0 C29.547186,0 33.8108253,1.21400686 37.4844836,3.33558625 L34.6160714,6.32606807 C31.7349365,4.83943664 28.4654988,4 25,4 C13.4020197,4 4,13.4020197 4,25 C4,36.5979803 13.4020197,46 25,46 C36.5979803,46 46,36.5979803 46,25 C46,22.6826883 45.6246596,20.453042 44.931457,18.3685396 L47.7330746,14.5831524 Z" id="Oval-21" fill="#FFFFFF" sketch:type="MSShapeGroup"></path>
    </g>
</svg>