<svg xmlns="http://www.w3.org/2000/svg" width="28" height="28" viewBox="0 0 28 28"><path d="M20 7h2.7l.5.24a1.426 1.426 0 0 1 .8 1.29v10.944a1.427 1.427 0 0 1-.8 1.292l-8.628 4.13a1.335 1.335 0 0 1-.575.13V16h-8V8l10.68-3.884 3.32 1.59V7z" fill="#b7d2f0" opacity=".6"/><path d="M24 19.477zM14 12.6v12.37h.23a1.3 1.3 0 0 1-.805-.077l-8.628-4.13a1.427 1.427 0 0 1-.8-1.292V8.53a1.426 1.426 0 0 1 .8-1.29l8.628-4.13a1.325 1.325 0 0 1 1.15 0l2.63 1.257-9.842 4.768a.7.7 0 0 0-.385.63l.01 3.046L10 14.358v-3.143a.7.7 0 0 1 .383-.628l9.83-4.777L23.2 7.24a1.383 1.383 0 0 1 .64.655z" fill="#fff"/></svg>