<?xml version="1.0" encoding="UTF-8" standalone="no"?>
<svg width="11px" height="15px" viewBox="0 0 11 15" version="1.1" xmlns="http://www.w3.org/2000/svg" xmlns:xlink="http://www.w3.org/1999/xlink">
    <g id="Page-1" stroke="none" stroke-width="1" fill="none" fill-rule="evenodd">
        <g id="Group" fill="#389DE0">
            <path d="M4,14 L10,14 L10,5 L6,5 L6,1 L1,1 L1,14 L3,14 L3,15 L4,15 L4,14 Z M0,15 L0,1.46362305 C0,0.365136191 0.618479856,0 1.72631836,0 L5.4978838,0 C6.61724801,0 7,0.363535787 7,1.46362305 L7,4 L9.70605469,4 C10.8254189,4 11,4.50921438 11,5.609375 L11,15 L0,15 Z M0,15" id="Rectangle-44"></path>
            <path d="M3,13.91156 C2.86885668,13.8210908 2.78051758,13.6698115 2.78051758,13.4984627 L2.78051758,11.2916985 C2.78051758,11.0210048 3.00445847,10.7901611 3.28070356,10.7901611 L3.75774855,10.7901611 C4.02708813,10.7901611 4.25793453,11.014707 4.25793453,11.2916985 L4.25793456,13.4984627 C4.25793456,13.6830355 4.15381969,13.8490812 4,13.9360535 L4,15 L3,15 L3,13.91156 Z M2.99895656,10 C2.44724809,10 2,10.4437166 2,10.9998075 L2,14.0001925 C2,14.5523709 2.44266033,15 2.99895656,15 L4.00104344,15 C4.55275191,15 5,14.5562834 5,14.0001925 L5,10.9998075 C5,10.4476291 4.55733967,10 4.00104344,10 L2.99895656,10 Z M2.99895656,10" id="Path"></path>
            <path d="M3.17920303,2.16619873 C2.62941062,2.16619873 2.18371582,2.60668896 2.18371582,3.15949273 L2.18371582,3.84044624 C2.18371582,4.38902736 2.63555512,4.83374023 3.17920303,4.83374023 L3.78222275,4.83374023 C4.33201516,4.83374023 4.77770996,4.39325001 4.77770996,3.84044624 L4.77770996,3.15949273 C4.77770996,2.6109116 4.32587066,2.16619873 3.78222275,2.16619873 L3.17920303,2.16619873 Z M3.29527703,2.75848599 C3.01968242,2.75848599 2.79626885,2.98689428 2.79626885,3.25338922 L2.79626885,3.72539585 C2.79626885,3.99872336 3.01223859,4.22029908 3.29527705,4.22029908 L3.67946697,4.22029908 C3.95506159,4.22029908 4.17847516,3.99189078 4.17847515,3.72539585 L4.17847514,3.25338922 C4.17847513,2.98006171 3.96250539,2.75848599 3.67946694,2.75848599 L3.29527703,2.75848599 Z M3.29527703,2.75848599" id="Rectangle-46"></path>
            <path d="M3.19849014,6.16622925 C2.64869773,6.16622925 2.20300293,6.60671947 2.20300293,7.15952325 L2.20300293,7.84047675 C2.20300293,8.38905788 2.65484223,8.83377075 3.19849014,8.83377075 L3.80150986,8.83377075 C4.35130227,8.83377075 4.79699707,8.39328053 4.79699707,7.84047675 L4.79699707,7.15952325 C4.79699707,6.61094212 4.34515777,6.16622925 3.80150986,6.16622925 L3.19849014,6.16622925 Z M3.31456414,6.75851651 C3.03896953,6.75851651 2.81555596,6.9869248 2.81555596,7.25341973 L2.81555596,7.72542637 C2.81555596,7.99875387 3.0315257,8.2203296 3.31456416,8.2203296 L3.69875408,8.2203296 C3.9743487,8.2203296 4.19776227,7.9919213 4.19776226,7.72542637 L4.19776225,7.25341974 C4.19776224,6.98009223 3.9817925,6.75851651 3.69875405,6.75851651 L3.31456414,6.75851651 Z M3.31456414,6.75851651" id="Rectangle-46-copy"></path>
            <path d="M7.19849014,6.16622925 C6.64869773,6.16622925 6.20300293,6.60671947 6.20300293,7.15952325 L6.20300293,7.84047675 C6.20300293,8.38905788 6.65484223,8.83377075 7.19849014,8.83377075 L7.80150986,8.83377075 C8.35130227,8.83377075 8.79699707,8.39328053 8.79699707,7.84047675 L8.79699707,7.15952325 C8.79699707,6.61094212 8.34515777,6.16622925 7.80150986,6.16622925 L7.19849014,6.16622925 Z M7.31456414,6.75851651 C7.03896953,6.75851651 6.81555596,6.9869248 6.81555596,7.25341973 L6.81555596,7.72542637 C6.81555596,7.99875387 7.0315257,8.2203296 7.31456416,8.2203296 L7.69875408,8.2203296 C7.9743487,8.2203296 8.19776227,7.9919213 8.19776226,7.72542637 L8.19776225,7.25341974 C8.19776224,6.98009223 7.9817925,6.75851651 7.69875405,6.75851651 L7.31456414,6.75851651 Z M7.31456414,6.75851651" id="Rectangle-46-copy-2"></path>
            <path d="M7.19849014,10.3324585 C6.64869773,10.3324585 6.20300293,10.7729487 6.20300293,11.3257525 L6.20300293,12.006706 C6.20300293,12.5552871 6.65484223,13 7.19849014,13 L7.80150986,13 C8.35130227,13 8.79699707,12.5595098 8.79699707,12.006706 L8.79699707,11.3257525 C8.79699707,10.7771714 8.34515777,10.3324585 7.80150986,10.3324585 L7.19849014,10.3324585 Z M7.31456414,10.9247458 C7.03896953,10.9247458 6.81555596,11.153154 6.81555596,11.419649 L6.81555596,11.8916556 C6.81555596,12.1649831 7.0315257,12.3865588 7.31456416,12.3865588 L7.69875408,12.3865588 C7.9743487,12.3865588 8.19776227,12.1581506 8.19776226,11.8916556 L8.19776225,11.419649 C8.19776224,11.1463215 7.9817925,10.9247458 7.69875405,10.9247458 L7.31456414,10.9247458 Z M7.31456414,10.9247458" id="Rectangle-46-copy-3"></path>
        </g>
    </g>
</svg>