<?xml version="1.0" encoding="UTF-8" standalone="no"?>
<svg width="12px" height="15px" viewBox="0 0 12 15" version="1.1" xmlns="http://www.w3.org/2000/svg" xmlns:xlink="http://www.w3.org/1999/xlink">
    <g fill="none" fill-rule="evenodd">
        <path d="M6.96835335,14.4141594 C7.14378184,14.2130951 7.33880908,13.9850182 7.54859821,13.7339676 C8.14789969,13.0167952 8.74728299,12.2571079 9.30845088,11.4862878 C10.9985122,9.16482011 12,7.25762947 12,5.80510753 C12,2.58994421 9.3050091,0 6,0 C2.6949909,0 0,2.58994421 0,5.80510753 C0,7.25762947 1.00148783,9.16482011 2.69154912,11.4862878 C3.25271701,12.2571079 3.85210031,13.0167952 4.45140179,13.7339676 C4.66119092,13.9850182 4.85621816,14.2130951 5.03164665,14.4141594 C5.13795558,14.5360035 5.2148819,14.6226158 5.25757295,14.6699269 L6,15.4927001 L6.74242705,14.6699269 C6.7851181,14.6226158 6.86204442,14.5360035 6.96835335,14.4141594 Z M5.25757295,13.3300731 C5.27604949,13.309597 5.30380421,13.278504 5.34014057,13.2373842 C3.98193439,11.6258984 1,7.854524 1,5.80510753 C1,3.15131979 3.23857611,1 6,1 C8.76142389,1 11,3.15131979 11,5.80510753 C11,7.854524 8.01806561,11.6258984 6.65985943,13.2373842 C6.69619579,13.278504 6.72395051,13.309597 6.74242705,13.3300731 L6.58151981,13.3300731 C6.22583758,13.7497221 6,14 6,14 C6,14 5.77416242,13.7497221 5.41848019,13.3300731 L5.25757295,13.3300731 Z M6,8 C7.10456955,8 8,7.10456955 8,6 C8,4.89543045 7.10456955,4 6,4 C4.89543045,4 4,4.89543045 4,6 C4,7.10456955 4.89543045,8 6,8 Z M6,7 C6.55228478,7 7,6.55228478 7,6 C7,5.44771522 6.55228478,5 6,5 C5.44771522,5 5,5.44771522 5,6 C5,6.55228478 5.44771522,7 6,7 Z M6,7" fill="#359CE0"></path>
    </g>
</svg>