<?xml version="1.0" encoding="UTF-8" standalone="no"?>
<svg width="14px" height="14px" viewBox="0 0 14 14" version="1.1" xmlns="http://www.w3.org/2000/svg" xmlns:xlink="http://www.w3.org/1999/xlink">
    <g id="Page-1" stroke="none" stroke-width="1" fill="none" fill-rule="evenodd">
        <path d="M5.45395328,0 C4.71023186,2.05707021e-07 2.62829523,0.342924475 2.62829506,2.49139439 C2.62829497,4.63986432 3.06896889,4.47249079 3.6519767,5.49995661 C3.99690657,6.10784495 2.24846818,6.33127661 1.09528017,7.08166027 C0.299325294,7.59959108 -7.24061522e-09,8.42655928 0,9.56789153 C-1.76647905e-08,9.97229326 0.274576371,10.1987077 0.274576371,10.1987077 C0.593220567,10.653442 1.31525359,10.9999132 1.86721932,10.9999132 L3.28970189,10.9999132 C3.46488748,10.6272792 3.72689335,10.3213709 4.09528017,10.0816603 C4.13825685,10.0536952 4.18206026,10.026462 4.22655124,9.99991348 L1.98019706,9.99991344 C1.42880528,9.99991343 0.989929894,9.56162042 0.99751203,8.99434084 C0.99751203,8.99434084 0.999086557,9.15913175 0.998068903,8.82825917 C0.994777229,7.7580095 4.45376573,7.22067655 4.65224738,6.22151854 C4.85072903,5.22236055 3.63135357,4.68209002 3.63135364,2.92425099 C3.63135378,1.16641197 4.85189497,0.999984453 5.46039431,0.999984285 C6.06889365,0.999984117 7.29321452,0.956331884 7.29321418,3.03839784 C7.29321417,3.09410829 7.29229652,3.14842249 7.29051625,3.20139325 C7.66477902,3.07222438 8.02962343,3.01927126 8.29625632,3.00456166 C8.30381538,2.84853254 8.30659974,2.67799757 8.30383193,2.49139439 C8.30383183,0.165248268 6.19767469,-2.05707021e-07 5.45395328,0 Z M10.3546132,8.49995661 C10.1798536,7.96968138 10.3795792,7.92390866 10.6402384,7.73252964 C10.8566602,8.06319643 10.9684702,8.49184645 10.9867046,9.11711063 C10.6699858,8.93271832 10.4320492,8.7349218 10.3546132,8.49995661 Z M3,12.5678915 C2.99999999,11.4265593 3.29932529,10.5995911 4.09528017,10.0816603 C5.24846818,9.33127661 6.99690657,9.10784495 6.6519767,8.49995661 C6.06896889,7.47249079 5.62829497,7.63986432 5.62829506,5.49139439 C5.62829523,3.34292447 7.71023186,3.00000021 8.45395328,3 C9.19767469,2.99999979 11.3038318,3.16524827 11.3038319,5.49139439 C11.3480215,8.47061669 9.97697107,7.35407228 10.3546132,8.49995661 C10.5666128,9.14322986 11.9815983,9.50791598 12.9227123,10.0816603 C13.6580364,10.529946 13.98879,11.0488444 13.989379,12.3033316 C13.9893792,13.435607 13.7999056,13.2166768 13.7999056,13.2166768 C13.4722674,13.6492463 12.7562311,13.9999132 12.2072417,13.9999132 L4.86721932,13.9999132 C4.31525359,13.9999132 3.59322057,13.653442 3.27457637,13.1987077 C3.27457637,13.1987077 2.99999998,12.9722933 3,12.5678915 Z M3.9980689,11.8282592 C3.99477723,10.7580095 7.45376573,10.2206765 7.65224738,9.22151854 C7.85072903,8.22236055 6.63135357,7.68209002 6.63135364,5.92425099 C6.63135378,4.16641197 7.85189497,3.99998445 8.46039431,3.99998428 C9.06889365,3.99998412 10.2932145,3.95633188 10.2932142,6.03839784 C10.2932138,8.12046379 9.01150589,8.25234882 9.3204858,9.18989054 C9.6294657,10.1274323 12.9893792,10.6360398 12.989379,11.611801 L12.9893789,11.9904454 C12.9893789,12.5479593 12.5426924,12.9999136 11.9909958,12.9999136 L4.98019706,12.9999134 C4.42880528,12.9999134 3.98992989,12.5616204 3.99751203,11.9943408 C3.99751203,11.9943408 3.99908656,12.1591317 3.9980689,11.8282592 Z" id="Path-291-copy-3" fill="#359CE0"></path>
    </g>
</svg>