<?xml version="1.0" encoding="UTF-8" standalone="no"?>
<svg width="102px" height="43px" viewBox="0 0 102 43" version="1.1" xmlns="http://www.w3.org/2000/svg" xmlns:xlink="http://www.w3.org/1999/xlink" xmlns:sketch="http://www.bohemiancoding.com/sketch/ns">
    <!-- Generator: Sketch 3.0.4 (8053) - http://www.bohemiancoding.com/sketch -->
    <title>logo</title>
    <desc>Created with Sketch.</desc>
    <defs></defs>
    <g id="Page-1" stroke="none" stroke-width="1" fill="none" fill-rule="evenodd" sketch:type="MSPage">
        <path d="M101.883028,22.0226519 C101.883028,18.2453039 101.06422,15.2519337 99.4733945,13.1375691 C97.8591743,10.9994475 95.4027523,9.90662983 92.3146789,9.90662983 C85.9747706,9.90662983 82.0211009,14.681768 82.0211009,22.3077348 C82.0211009,26.5839779 83.0738532,29.7911602 85.1559633,31.8342541 C87.0275229,33.6635359 89.6944954,34.5900552 93.1568807,34.5900552 C96.3385321,34.5900552 99.2862385,33.8298343 101.157798,32.5707182 L100.338991,27.3917127 C98.5142202,28.3895028 96.3619266,28.9596685 93.9756881,28.9596685 C92.5252294,28.9596685 91.5426606,28.6508287 90.8174312,28.0093923 C90.0454128,27.3441989 89.5775229,26.2276243 89.437156,24.6834254 L101.78945,24.6834254 C101.812844,24.279558 101.883028,22.5690608 101.883028,22.0226519 L101.883028,22.0226519 Z M89.3669725,20.0033149 C89.5775229,16.6060773 90.4899083,15.0143646 92.1977064,15.0143646 C93.8821101,15.0143646 94.7477064,16.6298343 94.8646789,20.0033149 L89.3669725,20.0033149 L89.3669725,20.0033149 Z M72.7568807,9.90662983 C70.5811927,9.90662983 68.6862385,10.8331492 66.9316514,12.7574586 L66.533945,10.381768 L59.9834862,10.381768 L59.9834862,42.9287293 L67.4463303,41.6696133 L67.4463303,34.0436464 C68.5926606,34.4 69.7623853,34.5900552 70.8151376,34.5900552 C72.6866972,34.5900552 75.3770642,34.0911602 77.4825688,31.7867403 C79.4944954,29.5535912 80.5238532,26.1088398 80.5238532,21.5475138 C80.5238532,17.5088398 79.7752294,14.4679558 78.2779817,12.5198895 C76.9211009,10.7618785 75.0963303,9.90662983 72.7568807,9.90662983 L72.7568807,9.90662983 Z M72.0550459,27.1541436 C71.446789,28.318232 70.5110092,28.9359116 69.4348624,28.9359116 C68.6862385,28.9359116 68.0311927,28.7933702 67.4229358,28.4845304 L67.4229358,17.1762431 C68.6862385,15.8220994 69.8325688,15.679558 70.2536697,15.679558 C72.1486239,15.679558 73.0844037,17.7464088 73.0844037,21.8088398 C73.0844037,24.1370166 72.7568807,25.9187845 72.0550459,27.1541436 L72.0550459,27.1541436 Z M53.2926606,-3.55271368e-15 C51.093578,-3.55271368e-15 49.3623853,1.78176796 49.3623853,3.99116022 C49.3623853,6.20055249 51.1169725,7.98232044 53.2926606,7.98232044 C55.4683486,7.98232044 57.1995413,6.17679558 57.1995413,3.99116022 C57.2229358,1.78176796 55.4683486,-3.55271368e-15 53.2926606,-3.55271368e-15 L53.2926606,-3.55271368e-15 Z M49.5495413,34.1149171 L57.0357798,34.1149171 L57.0357798,10.358011 L49.5495413,10.358011 L49.5495413,34.1149171 L49.5495413,34.1149171 Z M41.8761468,13.161326 L41.4316514,10.358011 L34.9045872,10.358011 L34.9045872,34.1149171 L42.3674312,34.1149171 L42.3674312,18.6966851 C43.303211,17.5325967 44.6133028,17.1049724 46.4380734,17.1049724 C46.8357798,17.1049724 47.2568807,17.1049724 47.7715596,17.2 L47.7715596,10.2154696 C47.2568807,10.0966851 46.8123853,10.0254144 46.3678899,10.0254144 C44.2155963,10.0254144 42.5311927,11.141989 41.8761468,13.161326 L41.8761468,13.161326 Z M32.0270642,15.9646409 L32.9394495,10.358011 L28.1669725,10.358011 L28.1669725,3.53977901 L21.7568807,4.60883978 L20.8211009,10.358011 L18.5752294,10.7381215 L17.7330275,15.9883978 L20.8211009,15.9883978 L20.8211009,26.9878453 C20.8211009,29.8624309 21.5463303,31.8342541 23.0201835,33.0696133 C24.2600917,34.0674033 26.0380734,34.5662983 28.5178899,34.5662983 C30.4362385,34.5662983 31.6059633,34.2337017 32.4247706,34.0198895 L32.4247706,28.0569061 C31.9802752,28.1756906 30.9509174,28.3895028 30.2490826,28.3895028 C28.7752294,28.3895028 28.143578,27.6292818 28.143578,25.8950276 L28.143578,15.9646409 L32.0270642,15.9646409 L32.0270642,15.9646409 Z M10.6678899,19.3143646 C8.46880734,18.4828729 7.27568807,17.8414365 7.27568807,16.8436464 C7.27568807,15.9883978 7.97752294,15.4895028 9.1940367,15.4895028 C11.4399083,15.4895028 13.7559633,16.3685083 15.346789,17.1762431 L16.2591743,11.5220994 C14.9958716,10.9044199 12.3990826,9.90662983 8.84311927,9.90662983 C6.31651376,9.90662983 4.21100917,10.5718232 2.71376147,11.8309392 C1.14633028,13.1375691 0.327522936,15.0381215 0.327522936,17.3187845 C0.327522936,21.4762431 2.83073394,23.2342541 6.87798165,24.7309392 C9.49816514,25.6812155 10.3637615,26.3464088 10.3637615,27.3917127 C10.3637615,28.3895028 9.52155963,28.9834254 7.97752294,28.9834254 C6.08256881,28.9834254 2.94770642,28.0331492 0.912385321,26.821547 L0,32.5232044 C1.75458716,33.5209945 4.98302752,34.5662983 8.35183486,34.5662983 C11.0188073,34.5662983 13.2646789,33.9248619 14.7619266,32.7132597 C16.4463303,31.359116 17.3119266,29.3872928 17.3119266,26.821547 C17.3353211,22.5690608 14.7853211,20.8110497 10.6678899,19.3143646 L10.6678899,19.3143646 Z" id="logo" fill="#FFFFFF" sketch:type="MSShapeGroup"></path>
    </g>
</svg>