<?xml version="1.0" encoding="utf-8"?>
<!-- Generator: Adobe Illustrator 18.1.1, SVG Export Plug-In . SVG Version: 6.00 Build 0)  -->
<!DOCTYPE svg PUBLIC "-//W3C//DTD SVG 1.1//EN" "http://www.w3.org/Graphics/SVG/1.1/DTD/svg11.dtd">
<svg version="1.1" xmlns="http://www.w3.org/2000/svg" xmlns:xlink="http://www.w3.org/1999/xlink" x="0px" y="0px" width="48px"
	 height="48px" viewBox="0 0 48 48" enable-background="new 0 0 48 48" xml:space="preserve">
<g id="Image_xA0_9_1_" display="none">
	<g id="Shape_2" display="inline">
	</g>
	<g id="Shape_2_1_" display="inline">
	</g>
	<g id="Shape_2_2_" display="inline">
	</g>
	<g id="Shape_2_3_" display="inline">
	</g>
	<g id="Shape_2_4_" display="inline">
	</g>
	<g id="Shape_2_5_" display="inline">
	</g>
	<g id="Shape_2_6_" display="inline">
	</g>
	<g id="Shape_2_7_" display="inline">
	</g>
</g>
<g id="Group_2_1_">
	<g id="Ellipse_1">
		<g>
			<path fill-rule="evenodd" clip-rule="evenodd" fill="#C9CED1" d="M24,0C10.7,0,0,10.7,0,24s10.7,24,24,24s24-10.7,24-24
				S37.3,0,24,0z M24,46.5C11.6,46.5,1.5,36.4,1.5,24S11.6,1.5,24,1.5S46.5,11.6,46.5,24S36.4,46.5,24,46.5z"/>
		</g>
	</g>
	<g id="B">
		<g>
			<path fill-rule="evenodd" clip-rule="evenodd" fill="#C9CED1" d="M31,23.1c0.8-0.6,1.3-1.5,1.5-2.7c0.3-1.7-0.1-3-1.2-4
				c-0.7-0.7-1.8-1.2-3.3-1.6l0.5-3l-2-0.4l-0.5,2.9c-0.2,0-0.3-0.1-0.4-0.1l-1.8-0.3l0.5-2.8l-2-0.4l-0.5,2.8l-4.6-0.8l-0.4,2
				l2.6,0.5l-2.8,15.7l-2.6-0.5l-0.4,2l4.6,0.8L17.8,36l2,0.4l0.5-2.8l2.2,0.4l-0.5,2.8l2,0.4l0.5-2.9c1.7,0.2,3.2-0.1,4.4-0.7
				c1.4-0.8,2.3-2,2.6-3.8c0.5-2.6-0.8-4.5-3.9-5.5l0-0.1C29.1,24,30.2,23.7,31,23.1z M28.2,26.2c0.8,0.7,1,1.7,0.8,2.9
				c-0.2,1.3-0.8,2.2-1.8,2.7c-1,0.5-2.3,0.6-3.9,0.3L20,31.4l0-0.1l-0.9-0.2l1.3-7.3l4.1,0.7C26.2,24.9,27.5,25.5,28.2,26.2z
				 M24.6,22.7l-4-0.7l1.1-6.4l0.9,0.2l0,0l2.6,0.5c1.8,0.3,3.1,0.8,3.8,1.4c0.7,0.6,1,1.5,0.8,2.6c-0.2,1.2-0.7,2-1.6,2.4
				C27.6,22.9,26.3,23,24.6,22.7z"/>
		</g>
	</g>
</g>
</svg>
