<svg id="Plan-star.svg" xmlns="http://www.w3.org/2000/svg" width="26" height="26" viewBox="0 0 26 26">
  <defs>
    <style>
      .cls-1 {
        fill: #d4f1d0;
      }

      .cls-2 {
        fill: #0abd6b;
        fill-rule: evenodd;
      }
    </style>
  </defs>
  <circle id="circle" class="cls-1" cx="13" cy="13" r="13"/>
  <path id="star" class="cls-2" d="M327.192,582.961l0,0.02-3.609.721,2.271,3.784-0.015.008A0.971,0.971,0,0,1,326,588a1,1,0,0,1-1,1,0.985,0.985,0,0,1-.843-0.494l-0.014.009L322,584.944l-2.143,3.571-0.014-.009A0.985,0.985,0,0,1,319,589a1,1,0,0,1-1-1,0.971,0.971,0,0,1,.157-0.506l-0.014-.008,2.269-3.784-3.608-.721,0-.02A0.986,0.986,0,0,1,316,582a1,1,0,0,1,1-1,0.948,0.948,0,0,1,.192.039l0-.02,3.8,0.761V578a1,1,0,0,1,2,0v3.78l3.8-.761,0,0.02A0.948,0.948,0,0,1,327,581a1,1,0,0,1,1,1A0.986,0.986,0,0,1,327.192,582.961Z" transform="translate(-309 -570)"/>
</svg>
