<svg id="transfers.svg" xmlns="http://www.w3.org/2000/svg" width="48" height="53" viewBox="0 0 48 53">
  <defs>
    <style>
      .cls-1 {
        fill: #d4f1d0;
      }

      .cls-1, .cls-2, .cls-3 {
        fill-rule: evenodd;
      }

      .cls-2, .cls-3 {
        fill: #0abd6b;
      }

      .cls-2 {
        opacity: 0.3;
      }
    </style>
  </defs>
  <path id="base" class="cls-1" d="M403,939a24,24,0,1,1-36.844-20.246l-1.022-1.771-0.866.5a1,1,0,1,1-1-1.732l3.464-2a1,1,0,0,1,1,1.732l-0.866.5,1.025,1.776A23.853,23.853,0,0,1,377,915.1V913h-1.5a1.5,1.5,0,0,1,0-3h7a1.5,1.5,0,0,1,0,3H381v2.1A23.989,23.989,0,0,1,403,939Z" transform="translate(-355 -910)"/>
  <path class="cls-2" d="M379,917a1,1,0,0,1,1,1v2a1,1,0,0,1-2,0v-2A1,1,0,0,1,379,917Zm0,40a1,1,0,0,1,1,1v2a1,1,0,0,1-2,0v-2A1,1,0,0,1,379,957Zm-21-19h2a1,1,0,0,1,0,2h-2A1,1,0,0,1,358,938Zm40,0h2a1,1,0,0,1,0,2h-2A1,1,0,0,1,398,938Zm-39.543,5.469,1.932-.517a1,1,0,0,1,.517,1.932l-1.932.517A1,1,0,0,1,358.457,943.469Zm38.637-10.353,1.932-.517a1,1,0,0,1,.517,1.932l-1.932.517A1,1,0,0,1,397.094,933.116Zm-36.781,15.518,1.732-1a1,1,0,0,1,1,1.732l-1.732,1A1,1,0,1,1,360.313,948.634Zm34.642-20,1.732-1a1,1,0,0,1,1,1.732l-1.732,1A1,1,0,1,1,394.955,928.634Zm-31.511,24.508,1.414-1.414a1,1,0,1,1,1.414,1.414l-1.414,1.414A1,1,0,0,1,363.444,953.142Zm28.284-28.284,1.414-1.414a1,1,0,0,1,1.414,1.414l-1.414,1.414A1,1,0,1,1,391.728,924.858Zm-24.094,31.828,1-1.731a1,1,0,1,1,1.732,1l-1,1.733A1,1,0,1,1,367.634,956.686Zm20-34.641,1-1.731a1,1,0,1,1,1.732,1l-1,1.733A1,1,0,1,1,387.634,922.045ZM372.6,959.026l0.518-1.932a1,1,0,1,1,1.931.518l-0.517,1.931A1,1,0,0,1,372.6,959.026Zm10.353-38.637,0.517-1.932a1,1,0,0,1,1.932.517l-0.517,1.932A1,1,0,0,1,382.952,920.389Zm16.591,23.08-1.932-.517a1,1,0,0,0-.517,1.932l1.932,0.517A1,1,0,0,0,399.543,943.469Zm-38.637-10.353-1.932-.517a1,1,0,0,0-.517,1.932l1.932,0.517A1,1,0,0,0,360.906,933.116Zm36.781,15.518-1.732-1a1,1,0,1,0-1,1.732l1.732,1A1,1,0,0,0,397.687,948.634Zm-34.642-20-1.732-1a1,1,0,1,0-1,1.732l1.732,1A1,1,0,0,0,363.045,928.634Zm31.511,24.508-1.414-1.414a1,1,0,1,0-1.414,1.414l1.414,1.414A1,1,0,0,0,394.556,953.142Zm-28.284-28.284-1.414-1.414a1,1,0,0,0-1.414,1.414l1.414,1.414A1,1,0,1,0,366.272,924.858Zm24.094,31.828-1-1.731a1,1,0,1,0-1.732,1l1,1.733A1,1,0,1,0,390.366,956.686Zm-20-34.641-1-1.731a1,1,0,1,0-1.732,1l1,1.733A1,1,0,1,0,370.366,922.045ZM385.4,959.026l-0.517-1.932a1,1,0,0,0-1.932.518l0.517,1.931A1,1,0,0,0,385.4,959.026Zm-10.353-38.637-0.517-1.932a1,1,0,0,0-1.932.517l0.518,1.932A1,1,0,1,0,375.048,920.389Z" transform="translate(-355 -910)"/>
  <path id="_1" data-name="1" class="cls-3" d="M394,924s-11.754,16.006-12.926,17.178a3,3,0,0,1-4.242-4.243C378,935.764,394,924,394,924Z" transform="translate(-355 -910)"/>
</svg>
