<svg width="878" height="346" viewBox="0 0 878 346" xmlns="http://www.w3.org/2000/svg"><defs><linearGradient x1="50%" y1="0%" x2="50%" y2="100%" id="a"><stop stop-color="#F6F8F9" offset="0%"/><stop stop-color="#ECF0F3" offset="51.529%"/><stop stop-color="#ECF0F3" offset="100%"/></linearGradient></defs><g fill="none" fill-rule="evenodd"><path d="M878 286.227V0H0v345.11C212.736 301.76 432.96 279 658.5 279c73.76 0 146.953 2.434 219.5 7.227z" fill="url(#a)"/><g transform="translate(131 42)" fill="#CED9E1"><circle cx="9.847" cy="54.568" r="2.724"/><circle cx="17.389" cy="54.568" r="2.724"/><circle cx="25.35" cy="54.568" r="2.724"/><circle cx="17.389" cy="61.677" r="2.724"/><circle cx="25.35" cy="61.677" r="2.724"/><circle cx="17.389" cy="69.621" r="2.724"/><circle cx="9.847" cy="77.148" r="2.724"/><circle cx="2.724" cy="84.256" r="2.724"/><circle cx="25.35" cy="69.621" r="2.724"/><circle cx="33.311" cy="54.568" r="2.724"/><circle cx="41.272" cy="54.568" r="2.724"/><circle cx="47.976" cy="54.568" r="2.724"/><circle cx="55.518" cy="54.568" r="2.724"/><circle cx="63.06" cy="54.568" r="2.724"/><circle cx="17.389" cy="47.041" r="2.724"/><circle cx="25.35" cy="47.041" r="2.724"/><circle cx="33.311" cy="47.041" r="2.724"/><circle cx="41.272" cy="47.041" r="2.724"/><circle cx="47.976" cy="47.041" r="2.724"/><circle cx="55.518" cy="47.041" r="2.724"/><circle cx="63.06" cy="47.041" r="2.724"/><circle cx="70.602" cy="47.041" r="2.724"/><circle cx="78.144" cy="47.041" r="2.724"/><circle cx="25.35" cy="39.515" r="2.724"/><circle cx="33.311" cy="39.515" r="2.724"/><circle cx="41.272" cy="39.515" r="2.724"/><circle cx="47.976" cy="39.515" r="2.724"/><circle cx="55.518" cy="39.515" r="2.724"/><circle cx="63.06" cy="39.515" r="2.724"/><circle cx="70.602" cy="39.515" r="2.724"/><circle cx="78.144" cy="39.515" r="2.724"/><circle cx="85.267" cy="39.515" r="2.724"/><circle cx="33.311" cy="31.57" r="2.724"/><circle cx="41.272" cy="31.57" r="2.724"/><circle cx="47.976" cy="31.57" r="2.724"/><circle cx="55.518" cy="31.57" r="2.724"/><circle cx="63.06" cy="31.57" r="2.724"/><circle cx="70.602" cy="31.57" r="2.724"/><circle cx="78.144" cy="31.57" r="2.724"/><circle cx="85.267" cy="31.57" r="2.724"/><circle cx="92.809" cy="31.57" r="2.724"/><circle cx="100.77" cy="31.57" r="2.724"/><circle cx="92.809" cy="84.256" r="2.724"/><circle cx="100.351" cy="84.256" r="2.724"/><circle cx="47.976" cy="24.462" r="2.724"/><circle cx="55.518" cy="24.462" r="2.724"/><circle cx="63.06" cy="24.462" r="2.724"/><circle cx="70.602" cy="24.462" r="2.724"/><circle cx="78.144" cy="24.462" r="2.724"/><circle cx="85.267" cy="24.462" r="2.724"/><circle cx="92.809" cy="24.462" r="2.724"/><circle cx="100.77" cy="24.462" r="2.724"/><circle cx="107.893" cy="24.462" r="2.724"/><circle cx="107.893" cy="84.256" r="2.724"/><circle cx="107.893" cy="91.365" r="2.724"/><circle cx="115.435" cy="24.462" r="2.724"/><circle cx="70.602" cy="17.353" r="2.724"/><circle cx="78.144" cy="17.353" r="2.724"/><circle cx="85.686" cy="17.353" r="2.724"/><circle cx="93.228" cy="17.353" r="2.724"/><circle cx="100.77" cy="17.353" r="2.724"/><circle cx="107.893" cy="17.353" r="2.724"/><circle cx="115.435" cy="17.353" r="2.724"/><circle cx="123.396" cy="17.353" r="2.724"/><circle cx="130.519" cy="17.353" r="2.724"/><circle cx="138.061" cy="17.353" r="2.724"/><circle cx="146.022" cy="17.353" r="2.724"/><circle cx="153.564" cy="17.353" r="2.724"/><circle cx="161.106" cy="17.353" r="2.724"/><circle cx="168.648" cy="17.353" r="2.724"/><circle cx="176.19" cy="17.353" r="2.724"/><circle cx="183.313" cy="17.353" r="2.724"/><circle cx="190.855" cy="17.353" r="2.724"/><circle cx="198.816" cy="17.353" r="2.724"/><circle cx="100.77" cy="10.245" r="2.724"/><circle cx="107.893" cy="10.245" r="2.724"/><circle cx="115.435" cy="10.245" r="2.724"/><circle cx="123.396" cy="10.245" r="2.724"/><circle cx="130.519" cy="10.245" r="2.724"/><circle cx="138.061" cy="10.245" r="2.724"/><circle cx="146.022" cy="10.245" r="2.724"/><circle cx="153.564" cy="10.245" r="2.724"/><circle cx="130.519" cy="2.718" r="2.724"/><circle cx="138.061" cy="2.718" r="2.724"/><circle cx="146.022" cy="2.718" r="2.724"/><circle cx="153.564" cy="2.718" r="2.724"/><circle cx="161.106" cy="10.245" r="2.724"/><circle cx="168.648" cy="10.245" r="2.724"/><circle cx="176.19" cy="10.245" r="2.724"/><circle cx="176.19" cy="2.718" r="2.724"/><circle cx="183.313" cy="10.245" r="2.724"/><circle cx="190.855" cy="10.245" r="2.724"/><circle cx="198.816" cy="10.245" r="2.724"/><circle cx="205.94" cy="17.353" r="2.724"/><circle cx="213.482" cy="17.353" r="2.724"/><circle cx="221.024" cy="17.353" r="2.724"/><circle cx="228.566" cy="17.353" r="2.724"/><circle cx="236.527" cy="17.353" r="2.724"/><circle cx="213.482" cy="10.245" r="2.724"/><circle cx="221.024" cy="10.245" r="2.724"/><circle cx="228.566" cy="10.245" r="2.724"/><circle cx="236.527" cy="10.245" r="2.724"/><circle cx="243.65" cy="17.353" r="2.724"/><circle cx="251.192" cy="17.353" r="2.724"/><circle cx="123.396" cy="24.462" r="2.724"/><circle cx="130.519" cy="24.462" r="2.724"/><circle cx="138.061" cy="24.462" r="2.724"/><circle cx="146.022" cy="24.462" r="2.724"/><circle cx="153.564" cy="24.462" r="2.724"/><circle cx="161.106" cy="24.462" r="2.724"/><circle cx="161.106" cy="54.568" r="2.724"/><circle cx="168.648" cy="24.462" r="2.724"/><circle cx="176.19" cy="24.462" r="2.724"/><circle cx="183.313" cy="24.462" r="2.724"/><circle cx="190.855" cy="24.462" r="2.724"/><circle cx="198.816" cy="24.462" r="2.724"/><circle cx="205.94" cy="24.462" r="2.724"/><circle cx="213.482" cy="24.462" r="2.724"/><circle cx="221.024" cy="24.462" r="2.724"/><circle cx="228.566" cy="24.462" r="2.724"/><circle cx="236.527" cy="24.462" r="2.724"/><circle cx="243.65" cy="24.462" r="2.724"/><circle cx="251.192" cy="24.462" r="2.724"/><circle cx="258.315" cy="24.462" r="2.724"/><circle cx="265.857" cy="24.462" r="2.724"/><circle cx="272.98" cy="24.462" r="2.724"/><circle cx="280.522" cy="24.462" r="2.724"/><circle cx="168.648" cy="31.57" r="2.724"/><circle cx="168.648" cy="54.568" r="2.724"/><circle cx="176.19" cy="31.57" r="2.724"/><circle cx="176.19" cy="47.041" r="2.724"/><circle cx="176.19" cy="54.568" r="2.724"/><circle cx="168.648" cy="61.677" r="2.724"/><circle cx="176.19" cy="61.677" r="2.724"/><circle cx="183.313" cy="31.57" r="2.724"/><circle cx="190.855" cy="31.57" r="2.724"/><circle cx="198.816" cy="31.57" r="2.724"/><circle cx="205.94" cy="31.57" r="2.724"/><circle cx="213.482" cy="31.57" r="2.724"/><circle cx="221.024" cy="31.57" r="2.724"/><circle cx="228.566" cy="31.57" r="2.724"/><circle cx="236.527" cy="31.57" r="2.724"/><circle cx="243.65" cy="31.57" r="2.724"/><circle cx="251.192" cy="31.57" r="2.724"/><circle cx="258.315" cy="31.57" r="2.724"/><circle cx="265.857" cy="31.57" r="2.724"/><circle cx="272.98" cy="31.57" r="2.724"/><circle cx="280.522" cy="31.57" r="2.724"/><circle cx="287.645" cy="31.57" r="2.724"/><circle cx="183.313" cy="39.515" r="2.724"/><circle cx="190.855" cy="39.515" r="2.724"/><circle cx="198.816" cy="39.515" r="2.724"/><circle cx="205.94" cy="39.515" r="2.724"/><circle cx="213.482" cy="39.515" r="2.724"/><circle cx="221.024" cy="39.515" r="2.724"/><circle cx="228.566" cy="39.515" r="2.724"/><circle cx="236.527" cy="39.515" r="2.724"/><circle cx="243.65" cy="39.515" r="2.724"/><circle cx="251.192" cy="39.515" r="2.724"/><circle cx="258.315" cy="39.515" r="2.724"/><circle cx="265.857" cy="39.515" r="2.724"/><circle cx="272.98" cy="39.515" r="2.724"/><circle cx="280.522" cy="39.515" r="2.724"/><circle cx="287.645" cy="39.515" r="2.724"/><circle cx="183.313" cy="47.041" r="2.724"/><circle cx="190.855" cy="47.041" r="2.724"/><circle cx="198.816" cy="47.041" r="2.724"/><circle cx="205.94" cy="47.041" r="2.724"/><circle cx="213.482" cy="47.041" r="2.724"/><circle cx="221.024" cy="47.041" r="2.724"/><circle cx="228.566" cy="47.041" r="2.724"/><circle cx="236.527" cy="47.041" r="2.724"/><circle cx="243.65" cy="47.041" r="2.724"/><circle cx="251.192" cy="47.041" r="2.724"/><circle cx="258.315" cy="47.041" r="2.724"/><circle cx="265.857" cy="47.041" r="2.724"/><circle cx="272.98" cy="47.041" r="2.724"/><circle cx="280.522" cy="47.041" r="2.724"/><circle cx="287.645" cy="47.041" r="2.724"/><circle cx="183.313" cy="54.568" r="2.724"/><circle cx="190.855" cy="54.568" r="2.724"/><circle cx="198.816" cy="54.568" r="2.724"/><circle cx="190.855" cy="61.677" r="2.724"/><circle cx="198.816" cy="61.677" r="2.724"/><circle cx="205.94" cy="54.568" r="2.724"/><circle cx="213.482" cy="54.568" r="2.724"/><circle cx="221.024" cy="54.568" r="2.724"/><circle cx="228.566" cy="54.568" r="2.724"/><circle cx="236.527" cy="54.568" r="2.724"/><circle cx="213.482" cy="69.621" r="2.724"/><circle cx="221.024" cy="69.621" r="2.724"/><circle cx="228.566" cy="69.621" r="2.724"/><circle cx="236.527" cy="69.621" r="2.724"/><circle cx="243.65" cy="54.568" r="2.724"/><circle cx="251.192" cy="54.568" r="2.724"/><circle cx="258.315" cy="54.568" r="2.724"/><circle cx="265.857" cy="54.568" r="2.724"/><circle cx="272.98" cy="54.568" r="2.724"/><circle cx="280.522" cy="54.568" r="2.724"/><circle cx="287.645" cy="54.568" r="2.724"/><circle cx="213.482" cy="61.677" r="2.724"/><circle cx="221.024" cy="61.677" r="2.724"/><circle cx="228.566" cy="61.677" r="2.724"/><circle cx="236.527" cy="61.677" r="2.724"/><circle cx="243.65" cy="61.677" r="2.724"/><circle cx="251.192" cy="61.677" r="2.724"/><circle cx="258.315" cy="61.677" r="2.724"/><circle cx="265.857" cy="61.677" r="2.724"/><circle cx="272.98" cy="61.677" r="2.724"/><circle cx="280.522" cy="61.677" r="2.724"/><circle cx="287.645" cy="61.677" r="2.724"/><circle cx="251.192" cy="69.621" r="2.724"/><circle cx="258.315" cy="69.621" r="2.724"/><circle cx="265.857" cy="69.621" r="2.724"/><circle cx="272.98" cy="69.621" r="2.724"/><circle cx="280.522" cy="69.621" r="2.724"/><circle cx="287.645" cy="69.621" r="2.724"/><circle cx="295.606" cy="69.621" r="2.724"/><circle cx="302.729" cy="69.621" r="2.724"/><circle cx="310.271" cy="69.621" r="2.724"/><circle cx="317.394" cy="69.621" r="2.724"/><circle cx="324.936" cy="69.621" r="2.724"/><circle cx="332.059" cy="69.621" r="2.724"/><circle cx="340.02" cy="69.621" r="2.724"/><circle cx="347.143" cy="69.621" r="2.724"/><circle cx="354.685" cy="69.621" r="2.724"/><circle cx="361.808" cy="69.621" r="2.724"/><circle cx="295.606" cy="61.677" r="2.724"/><circle cx="302.729" cy="61.677" r="2.724"/><circle cx="310.271" cy="61.677" r="2.724"/><circle cx="317.394" cy="61.677" r="2.724"/><circle cx="324.936" cy="61.677" r="2.724"/><circle cx="332.059" cy="61.677" r="2.724"/><circle cx="340.02" cy="61.677" r="2.724"/><circle cx="295.606" cy="54.568" r="2.724"/><circle cx="302.729" cy="54.568" r="2.724"/><circle cx="295.606" cy="47.041" r="2.724"/><circle cx="295.606" cy="39.515" r="2.724"/><circle cx="302.729" cy="47.041" r="2.724"/><circle cx="310.271" cy="54.568" r="2.724"/><circle cx="317.394" cy="54.568" r="2.724"/><circle cx="324.936" cy="54.568" r="2.724"/><circle cx="332.059" cy="54.568" r="2.724"/><circle cx="340.02" cy="54.568" r="2.724"/><circle cx="384.853" cy="54.568" r="2.724"/><circle cx="347.143" cy="61.677" r="2.724"/><circle cx="354.685" cy="61.677" r="2.724"/><circle cx="361.808" cy="61.677" r="2.724"/><circle cx="369.35" cy="69.621" r="2.724"/><circle cx="376.473" cy="69.621" r="2.724"/><circle cx="295.606" cy="76.73" r="2.724"/><circle cx="302.729" cy="76.73" r="2.724"/><circle cx="310.271" cy="76.73" r="2.724"/><circle cx="317.394" cy="76.73" r="2.724"/><circle cx="324.936" cy="76.73" r="2.724"/><circle cx="332.059" cy="76.73" r="2.724"/><circle cx="340.02" cy="76.73" r="2.724"/><circle cx="347.143" cy="76.73" r="2.724"/><circle cx="354.685" cy="76.73" r="2.724"/><circle cx="361.808" cy="76.73" r="2.724"/><circle cx="369.35" cy="76.73" r="2.724"/><circle cx="376.473" cy="76.73" r="2.724"/><circle cx="383.596" cy="76.73" r="2.724"/><circle cx="258.315" cy="76.73" r="2.724"/><circle cx="265.857" cy="76.73" r="2.724"/><circle cx="272.98" cy="76.73" r="2.724"/><circle cx="280.522" cy="76.73" r="2.724"/><circle cx="287.645" cy="76.73" r="2.724"/><circle cx="303.148" cy="84.256" r="2.724"/><circle cx="310.271" cy="84.256" r="2.724"/><circle cx="317.813" cy="84.256" r="2.724"/><circle cx="324.936" cy="84.256" r="2.724"/><circle cx="332.478" cy="84.256" r="2.724"/><circle cx="339.601" cy="84.256" r="2.724"/><circle cx="347.562" cy="84.256" r="2.724"/><circle cx="354.685" cy="84.256" r="2.724"/><circle cx="362.227" cy="84.256" r="2.724"/><circle cx="369.35" cy="84.256" r="2.724"/><circle cx="376.892" cy="84.256" r="2.724"/><circle cx="384.015" cy="84.256" r="2.724"/><circle cx="391.138" cy="84.256" r="2.724"/><circle cx="391.138" cy="62.095" r="2.724"/><circle cx="399.099" cy="84.256" r="2.724"/><circle cx="399.099" cy="69.621" r="2.724"/><circle cx="265.857" cy="84.256" r="2.724"/><circle cx="273.399" cy="84.256" r="2.724"/><circle cx="280.522" cy="84.256" r="2.724"/><circle cx="288.064" cy="84.256" r="2.724"/><circle cx="294.768" cy="84.256" r="2.724"/><circle cx="310.271" cy="91.365" r="2.724"/><circle cx="317.394" cy="91.365" r="2.724"/><circle cx="324.936" cy="91.365" r="2.724"/><circle cx="332.059" cy="91.365" r="2.724"/><circle cx="310.271" cy="98.473" r="2.724"/><circle cx="317.394" cy="98.473" r="2.724"/><circle cx="324.936" cy="98.473" r="2.724"/><circle cx="332.059" cy="98.473" r="2.724"/><circle cx="339.601" cy="91.365" r="2.724"/><circle cx="346.724" cy="91.365" r="2.724"/><circle cx="354.685" cy="91.365" r="2.724"/><circle cx="361.808" cy="91.365" r="2.724"/><circle cx="369.35" cy="91.365" r="2.724"/><circle cx="376.473" cy="91.365" r="2.724"/><circle cx="384.015" cy="91.365" r="2.724"/><circle cx="391.138" cy="91.365" r="2.724"/><circle cx="398.261" cy="91.365" r="2.724"/><circle cx="405.803" cy="91.365" r="2.724"/><circle cx="405.803" cy="76.73" r="2.724"/><circle cx="412.927" cy="91.365" r="2.724"/><circle cx="420.05" cy="91.365" r="2.724"/><circle cx="354.685" cy="98.473" r="2.724"/><circle cx="361.808" cy="98.473" r="2.724"/><circle cx="369.35" cy="98.473" r="2.724"/><circle cx="376.473" cy="98.473" r="2.724"/><circle cx="384.015" cy="98.473" r="2.724"/><circle cx="391.138" cy="98.473" r="2.724"/><circle cx="398.261" cy="98.473" r="2.724"/><circle cx="405.803" cy="98.473" r="2.724"/><circle cx="412.927" cy="98.473" r="2.724"/><circle cx="420.05" cy="98.473" r="2.724"/><circle cx="354.685" cy="98.473" r="2.724"/><circle cx="361.808" cy="106.418" r="2.724"/><circle cx="369.35" cy="106.418" r="2.724"/><circle cx="376.473" cy="106.418" r="2.724"/><circle cx="384.015" cy="106.418" r="2.724"/><circle cx="391.138" cy="106.418" r="2.724"/><circle cx="398.261" cy="106.418" r="2.724"/><circle cx="405.803" cy="106.418" r="2.724"/><circle cx="412.927" cy="106.418" r="2.724"/><circle cx="420.05" cy="106.418" r="2.724"/><circle cx="361.808" cy="114.363" r="2.724"/><circle cx="369.35" cy="114.363" r="2.724"/><circle cx="376.473" cy="114.363" r="2.724"/><circle cx="384.015" cy="114.363" r="2.724"/><circle cx="391.138" cy="114.363" r="2.724"/><circle cx="398.261" cy="114.363" r="2.724"/><circle cx="405.803" cy="114.363" r="2.724"/><circle cx="412.927" cy="114.363" r="2.724"/><circle cx="420.05" cy="114.363" r="2.724"/><circle cx="428.011" cy="114.363" r="2.724"/><circle cx="435.134" cy="114.363" r="2.724"/><circle cx="442.676" cy="114.363" r="2.724"/><circle cx="449.799" cy="114.363" r="2.724"/><circle cx="456.922" cy="114.363" r="2.724"/><circle cx="361.808" cy="121.89" r="2.724"/><circle cx="369.35" cy="121.89" r="2.724"/><circle cx="376.473" cy="121.89" r="2.724"/><circle cx="384.015" cy="121.89" r="2.724"/><circle cx="391.138" cy="121.89" r="2.724"/><circle cx="398.261" cy="121.89" r="2.724"/><circle cx="405.803" cy="121.89" r="2.724"/><circle cx="412.927" cy="121.89" r="2.724"/><circle cx="420.05" cy="121.89" r="2.724"/><circle cx="464.464" cy="121.89" r="2.724"/><circle cx="428.011" cy="121.89" r="2.724"/><circle cx="435.134" cy="121.89" r="2.724"/><circle cx="442.676" cy="121.89" r="2.724"/><circle cx="449.799" cy="121.89" r="2.724"/><circle cx="456.922" cy="121.89" r="2.724"/><circle cx="369.35" cy="128.998" r="2.724"/><circle cx="376.473" cy="128.998" r="2.724"/><circle cx="384.015" cy="128.998" r="2.724"/><circle cx="391.138" cy="128.998" r="2.724"/><circle cx="398.261" cy="128.998" r="2.724"/><circle cx="405.803" cy="128.998" r="2.724"/><circle cx="412.927" cy="128.998" r="2.724"/><circle cx="420.05" cy="128.998" r="2.724"/><circle cx="464.464" cy="128.998" r="2.724"/><circle cx="428.011" cy="128.998" r="2.724"/><circle cx="435.134" cy="128.998" r="2.724"/><circle cx="442.676" cy="128.998" r="2.724"/><circle cx="449.799" cy="128.998" r="2.724"/><circle cx="456.922" cy="128.998" r="2.724"/><circle cx="492.956" cy="128.998" r="2.724"/><circle cx="471.587" cy="128.998" r="2.724"/><circle cx="478.71" cy="128.998" r="2.724"/><circle cx="485.833" cy="128.998" r="2.724"/><circle cx="369.35" cy="136.107" r="2.724"/><circle cx="376.473" cy="136.107" r="2.724"/><circle cx="384.015" cy="136.107" r="2.724"/><circle cx="391.138" cy="136.107" r="2.724"/><circle cx="398.261" cy="136.107" r="2.724"/><circle cx="405.803" cy="136.107" r="2.724"/><circle cx="412.927" cy="136.107" r="2.724"/><circle cx="420.05" cy="136.107" r="2.724"/><circle cx="464.464" cy="136.107" r="2.724"/><circle cx="369.35" cy="136.107" r="2.724"/><circle cx="376.473" cy="136.107" r="2.724"/><circle cx="384.015" cy="136.107" r="2.724"/><circle cx="391.138" cy="136.107" r="2.724"/><circle cx="398.261" cy="136.107" r="2.724"/><circle cx="405.803" cy="136.107" r="2.724"/><circle cx="412.927" cy="136.107" r="2.724"/><circle cx="420.05" cy="136.107" r="2.724"/><circle cx="428.011" cy="136.107" r="2.724"/><circle cx="435.134" cy="136.107" r="2.724"/><circle cx="442.676" cy="136.107" r="2.724"/><circle cx="449.799" cy="136.107" r="2.724"/><circle cx="456.922" cy="136.107" r="2.724"/><circle cx="428.011" cy="136.107" r="2.724"/><circle cx="435.134" cy="136.107" r="2.724"/><circle cx="442.676" cy="136.107" r="2.724"/><circle cx="449.799" cy="136.107" r="2.724"/><circle cx="456.922" cy="136.107" r="2.724"/><circle cx="492.956" cy="136.107" r="2.724"/><circle cx="471.587" cy="136.107" r="2.724"/><circle cx="478.71" cy="136.107" r="2.724"/><circle cx="485.833" cy="136.107" r="2.724"/><circle cx="471.587" cy="136.107" r="2.724"/><circle cx="478.71" cy="136.107" r="2.724"/><circle cx="485.833" cy="136.107" r="2.724"/><circle cx="500.498" cy="136.107" r="2.724"/><circle cx="528.571" cy="136.107" r="2.724"/><circle cx="507.621" cy="136.107" r="2.724"/><circle cx="514.744" cy="136.107" r="2.724"/><circle cx="521.029" cy="136.107" r="2.724"/><circle cx="507.621" cy="136.107" r="2.724"/><circle cx="514.744" cy="136.107" r="2.724"/><circle cx="521.029" cy="136.107" r="2.724"/><circle cx="500.498" cy="143.633" r="2.724"/><circle cx="528.571" cy="143.633" r="2.724"/><circle cx="507.621" cy="143.633" r="2.724"/><circle cx="514.744" cy="143.633" r="2.724"/><circle cx="521.029" cy="143.633" r="2.724"/><circle cx="507.621" cy="143.633" r="2.724"/><circle cx="514.744" cy="143.633" r="2.724"/><circle cx="521.029" cy="143.633" r="2.724"/><circle cx="376.473" cy="143.633" r="2.724"/><circle cx="384.015" cy="143.633" r="2.724"/><circle cx="391.138" cy="143.633" r="2.724"/><circle cx="398.261" cy="143.633" r="2.724"/><circle cx="405.803" cy="143.633" r="2.724"/><circle cx="412.927" cy="143.633" r="2.724"/><circle cx="420.05" cy="143.633" r="2.724"/><circle cx="464.464" cy="143.633" r="2.724"/><circle cx="376.473" cy="143.633" r="2.724"/><circle cx="384.015" cy="143.633" r="2.724"/><circle cx="391.138" cy="143.633" r="2.724"/><circle cx="398.261" cy="143.633" r="2.724"/><circle cx="405.803" cy="143.633" r="2.724"/><circle cx="412.927" cy="143.633" r="2.724"/><circle cx="420.05" cy="143.633" r="2.724"/><circle cx="428.011" cy="143.633" r="2.724"/><circle cx="435.134" cy="143.633" r="2.724"/><circle cx="442.676" cy="143.633" r="2.724"/><circle cx="449.799" cy="143.633" r="2.724"/><circle cx="456.922" cy="143.633" r="2.724"/><circle cx="428.011" cy="143.633" r="2.724"/><circle cx="435.134" cy="143.633" r="2.724"/><circle cx="442.676" cy="143.633" r="2.724"/><circle cx="449.799" cy="143.633" r="2.724"/><circle cx="456.922" cy="143.633" r="2.724"/><circle cx="492.956" cy="143.633" r="2.724"/><circle cx="471.587" cy="143.633" r="2.724"/><circle cx="478.71" cy="143.633" r="2.724"/><circle cx="485.833" cy="143.633" r="2.724"/><circle cx="471.587" cy="143.633" r="2.724"/><circle cx="478.71" cy="143.633" r="2.724"/><circle cx="485.833" cy="143.633" r="2.724"/><circle cx="500.498" cy="150.742" r="2.724"/><circle cx="507.621" cy="150.742" r="2.724"/><circle cx="514.744" cy="150.742" r="2.724"/><circle cx="507.621" cy="150.742" r="2.724"/><circle cx="514.744" cy="150.742" r="2.724"/><circle cx="384.015" cy="150.742" r="2.724"/><circle cx="391.138" cy="150.742" r="2.724"/><circle cx="398.261" cy="150.742" r="2.724"/><circle cx="405.803" cy="150.742" r="2.724"/><circle cx="412.927" cy="150.742" r="2.724"/><circle cx="420.05" cy="150.742" r="2.724"/><circle cx="464.464" cy="150.742" r="2.724"/><circle cx="384.015" cy="150.742" r="2.724"/><circle cx="391.138" cy="150.742" r="2.724"/><circle cx="398.261" cy="150.742" r="2.724"/><circle cx="405.803" cy="150.742" r="2.724"/><circle cx="412.927" cy="150.742" r="2.724"/><circle cx="420.05" cy="150.742" r="2.724"/><circle cx="412.927" cy="157.85" r="2.724"/><circle cx="420.05" cy="157.85" r="2.724"/><circle cx="428.011" cy="150.742" r="2.724"/><circle cx="435.134" cy="150.742" r="2.724"/><circle cx="442.676" cy="150.742" r="2.724"/><circle cx="449.799" cy="150.742" r="2.724"/><circle cx="456.922" cy="150.742" r="2.724"/><circle cx="428.011" cy="150.742" r="2.724"/><circle cx="435.134" cy="150.742" r="2.724"/><circle cx="442.676" cy="150.742" r="2.724"/><circle cx="449.799" cy="150.742" r="2.724"/><circle cx="456.922" cy="150.742" r="2.724"/><circle cx="492.956" cy="150.742" r="2.724"/><circle cx="471.587" cy="150.742" r="2.724"/><circle cx="478.71" cy="150.742" r="2.724"/><circle cx="485.833" cy="150.742" r="2.724"/><circle cx="471.587" cy="150.742" r="2.724"/><circle cx="478.71" cy="150.742" r="2.724"/><circle cx="485.833" cy="150.742" r="2.724"/><circle cx="500.498" cy="157.85" r="2.724"/><circle cx="507.621" cy="157.85" r="2.724"/><circle cx="514.744" cy="157.85" r="2.724"/><circle cx="507.621" cy="157.85" r="2.724"/><circle cx="514.744" cy="157.85" r="2.724"/><circle cx="521.867" cy="157.85" r="2.724"/><circle cx="529.409" cy="157.85" r="2.724"/><circle cx="536.532" cy="157.85" r="2.724"/><circle cx="529.409" cy="157.85" r="2.724"/><circle cx="536.532" cy="157.85" r="2.724"/><circle cx="543.655" cy="157.85" r="2.724"/><circle cx="558.32" cy="157.85" r="2.724"/><circle cx="558.32" cy="157.85" r="2.724"/><circle cx="565.443" cy="157.85" r="2.724"/><circle cx="464.464" cy="157.85" r="2.724"/><circle cx="442.676" cy="157.85" r="2.724"/><circle cx="449.799" cy="157.85" r="2.724"/><circle cx="456.922" cy="157.85" r="2.724"/><circle cx="442.676" cy="157.85" r="2.724"/><circle cx="449.799" cy="157.85" r="2.724"/><circle cx="456.922" cy="157.85" r="2.724"/><circle cx="492.956" cy="157.85" r="2.724"/><circle cx="471.587" cy="157.85" r="2.724"/><circle cx="478.71" cy="157.85" r="2.724"/><circle cx="485.833" cy="157.85" r="2.724"/><circle cx="471.587" cy="157.85" r="2.724"/><circle cx="478.71" cy="157.85" r="2.724"/><circle cx="485.833" cy="157.85" r="2.724"/><circle cx="500.498" cy="165.377" r="2.724"/><circle cx="507.621" cy="165.377" r="2.724"/><circle cx="514.744" cy="165.377" r="2.724"/><circle cx="521.867" cy="165.377" r="2.724"/><circle cx="529.409" cy="165.377" r="2.724"/><circle cx="536.532" cy="165.377" r="2.724"/><circle cx="543.655" cy="165.377" r="2.724"/><circle cx="551.197" cy="165.377" r="2.724"/><circle cx="558.32" cy="165.377" r="2.724"/><circle cx="565.443" cy="165.377" r="2.724"/><circle cx="572.566" cy="165.377" r="2.724"/><circle cx="579.689" cy="165.377" r="2.724"/><circle cx="464.464" cy="165.377" r="2.724"/><circle cx="442.676" cy="165.377" r="2.724"/><circle cx="449.799" cy="165.377" r="2.724"/><circle cx="456.922" cy="165.377" r="2.724"/><circle cx="492.956" cy="165.377" r="2.724"/><circle cx="471.587" cy="165.377" r="2.724"/><circle cx="478.71" cy="165.377" r="2.724"/><circle cx="485.833" cy="165.377" r="2.724"/><circle cx="500.498" cy="172.485" r="2.724"/><circle cx="507.621" cy="172.485" r="2.724"/><circle cx="514.744" cy="172.485" r="2.724"/><circle cx="521.867" cy="172.485" r="2.724"/><circle cx="529.409" cy="172.485" r="2.724"/><circle cx="536.532" cy="172.485" r="2.724"/><circle cx="543.655" cy="172.485" r="2.724"/><circle cx="551.197" cy="172.485" r="2.724"/><circle cx="558.32" cy="172.485" r="2.724"/><circle cx="565.443" cy="172.485" r="2.724"/><circle cx="572.566" cy="172.485" r="2.724"/><circle cx="579.689" cy="172.485" r="2.724"/><circle cx="464.464" cy="172.485" r="2.724"/><circle cx="602.315" cy="180.012" r="2.724"/><circle cx="449.799" cy="172.485" r="2.724"/><circle cx="456.922" cy="172.485" r="2.724"/><circle cx="586.812" cy="172.485" r="2.724"/><circle cx="492.956" cy="172.485" r="2.724"/><circle cx="471.587" cy="172.485" r="2.724"/><circle cx="478.71" cy="172.485" r="2.724"/><circle cx="485.833" cy="172.485" r="2.724"/><circle cx="500.498" cy="180.012" r="2.724"/><circle cx="507.621" cy="180.012" r="2.724"/><circle cx="514.744" cy="180.012" r="2.724"/><circle cx="521.867" cy="180.012" r="2.724"/><circle cx="529.409" cy="180.012" r="2.724"/><circle cx="536.532" cy="180.012" r="2.724"/><circle cx="543.655" cy="180.012" r="2.724"/><circle cx="551.197" cy="180.012" r="2.724"/><circle cx="558.32" cy="180.012" r="2.724"/><circle cx="565.443" cy="180.012" r="2.724"/><circle cx="572.566" cy="180.012" r="2.724"/><circle cx="579.689" cy="180.012" r="2.724"/><circle cx="464.464" cy="180.012" r="2.724"/><circle cx="594.354" cy="180.012" r="2.724"/><circle cx="449.799" cy="180.012" r="2.724"/><circle cx="456.922" cy="180.012" r="2.724"/><circle cx="586.812" cy="180.012" r="2.724"/><circle cx="492.956" cy="180.012" r="2.724"/><circle cx="471.587" cy="180.012" r="2.724"/><circle cx="478.71" cy="180.012" r="2.724"/><circle cx="485.833" cy="180.012" r="2.724"/><circle cx="602.315" cy="187.12" r="2.724"/><circle cx="610.276" cy="187.12" r="2.724"/><circle cx="500.498" cy="187.12" r="2.724"/><circle cx="507.621" cy="187.12" r="2.724"/><circle cx="514.744" cy="187.12" r="2.724"/><circle cx="521.867" cy="187.12" r="2.724"/><circle cx="529.409" cy="187.12" r="2.724"/><circle cx="536.532" cy="187.12" r="2.724"/><path d="M543.655 189.838a2.72 2.72 0 0 0 2.724-2.718 2.72 2.72 0 0 0-2.725-2.718 2.72 2.72 0 0 0-2.723 2.718 2.72 2.72 0 0 0 2.723 2.718z"/><circle cx="551.197" cy="187.12" r="2.724"/><circle cx="558.32" cy="187.12" r="2.724"/><circle cx="565.443" cy="187.12" r="2.724"/><circle cx="572.566" cy="187.12" r="2.724"/><circle cx="579.689" cy="187.12" r="2.724"/><circle cx="464.464" cy="187.12" r="2.724"/><circle cx="594.354" cy="187.12" r="2.724"/><circle cx="449.799" cy="187.12" r="2.724"/><circle cx="456.922" cy="187.12" r="2.724"/><circle cx="586.812" cy="187.12" r="2.724"/><circle cx="442.676" cy="187.12" r="2.724"/><circle cx="492.956" cy="187.12" r="2.724"/><circle cx="471.587" cy="187.12" r="2.724"/><circle cx="478.71" cy="187.12" r="2.724"/><circle cx="485.833" cy="187.12" r="2.724"/><circle cx="500.498" cy="194.229" r="2.724"/><circle cx="507.621" cy="194.229" r="2.724"/><circle cx="514.744" cy="194.229" r="2.724"/><circle cx="521.867" cy="194.229" r="2.724"/><circle cx="529.409" cy="194.229" r="2.724"/><circle cx="536.532" cy="194.229" r="2.724"/><circle cx="543.655" cy="194.229" r="2.724"/><circle cx="551.197" cy="194.229" r="2.724"/><circle cx="558.32" cy="194.229" r="2.724"/><circle cx="565.443" cy="194.229" r="2.724"/><circle cx="572.566" cy="194.229" r="2.724"/><circle cx="579.689" cy="194.229" r="2.724"/><circle cx="464.464" cy="194.229" r="2.724"/><circle cx="449.799" cy="194.229" r="2.724"/><circle cx="456.922" cy="194.229" r="2.724"/><circle cx="586.812" cy="194.229" r="2.724"/><circle cx="442.676" cy="194.229" r="2.724"/><circle cx="492.956" cy="194.229" r="2.724"/><circle cx="471.587" cy="194.229" r="2.724"/><circle cx="478.71" cy="194.229" r="2.724"/><circle cx="485.833" cy="194.229" r="2.724"/><circle cx="507.621" cy="201.337" r="2.724"/><circle cx="514.744" cy="201.337" r="2.724"/><circle cx="521.867" cy="201.337" r="2.724"/><circle cx="529.409" cy="201.337" r="2.724"/><circle cx="536.532" cy="201.337" r="2.724"/><circle cx="543.655" cy="201.337" r="2.724"/><circle cx="551.197" cy="201.337" r="2.724"/><circle cx="565.443" cy="201.337" r="2.724"/><circle cx="435.553" cy="194.229" r="2.724"/><circle cx="428.011" cy="194.229" r="2.724"/><circle cx="464.464" cy="201.337" r="2.724"/><circle cx="449.799" cy="201.337" r="2.724"/><circle cx="456.922" cy="201.337" r="2.724"/><circle cx="442.676" cy="201.337" r="2.724"/><circle cx="492.956" cy="201.337" r="2.724"/><circle cx="471.587" cy="201.337" r="2.724"/><circle cx="478.71" cy="201.337" r="2.724"/><circle cx="485.833" cy="201.337" r="2.724"/><circle cx="435.553" cy="201.337" r="2.724"/><circle cx="428.011" cy="201.337" r="2.724"/><circle cx="420.05" cy="201.337" r="2.724"/><circle cx="428.011" cy="209.282" r="2.724"/><circle cx="420.05" cy="209.282" r="2.724"/><circle cx="412.927" cy="209.282" r="2.724"/><circle cx="427.173" cy="91.365" r="2.724"/><circle cx="272.98" cy="91.365" r="2.724"/><circle cx="280.522" cy="91.365" r="2.724"/><circle cx="287.645" cy="91.365" r="2.724"/><circle cx="272.98" cy="91.365" r="2.724"/><circle cx="92.809" cy="91.365" r="2.724"/><circle cx="92.809" cy="106.418" r="2.724"/><circle cx="100.351" cy="91.365" r="2.724"/><circle cx="115.435" cy="98.473" r="2.724"/><circle cx="100.351" cy="98.473" r="2.724"/><circle cx="100.351" cy="106.836" r="2.724"/><circle cx="107.893" cy="98.473" r="2.724"/><circle cx="294.768" cy="91.365" r="2.724"/><circle cx="301.891" cy="91.365" r="2.724"/><circle cx="265.438" cy="17.353" r="2.724"/></g></g></svg>